<svg width="3142" height="608" viewBox="0 0 3142 608" fill="none" xmlns="http://www.w3.org/2000/svg">
<mask id="mask0_11_13569" style="mask-type:luminance" maskUnits="userSpaceOnUse" x="241" y="231" width="125" height="240">
<path d="M241.245 231.427H365.245V470.094H241.245V231.427Z" fill="white"/>
</mask>
<g mask="url(#mask0_11_13569)">
<mask id="mask1_11_13569" style="mask-type:luminance" maskUnits="userSpaceOnUse" x="3" y="3" width="602" height="602">
<path d="M303.907 3.15625C470.001 3.15625 604.652 137.807 604.652 303.906C604.652 470 470.001 604.656 303.907 604.656C137.803 604.656 3.15674 470 3.15674 303.906C3.15674 137.807 137.803 3.15625 303.907 3.15625Z" fill="white"/>
</mask>
<g mask="url(#mask1_11_13569)">
<path d="M358.474 469.349L341.224 238.078H265.563L248.318 469.349L242.032 468.88L259.714 231.771H347.073L364.761 468.88L358.474 469.349Z" fill="#C6BAA8"/>
</g>
</g>
<mask id="mask2_11_13569" style="mask-type:luminance" maskUnits="userSpaceOnUse" x="214" y="72" width="178" height="53">
<path d="M214.578 72.7605H391.911V124.76H214.578V72.7605Z" fill="white"/>
</mask>
<g mask="url(#mask2_11_13569)">
<mask id="mask3_11_13569" style="mask-type:luminance" maskUnits="userSpaceOnUse" x="3" y="3" width="602" height="602">
<path d="M303.906 3.15625C470 3.15625 604.651 137.807 604.651 303.906C604.651 470 470 604.656 303.906 604.656C137.802 604.656 3.15625 470 3.15625 303.906C3.15625 137.807 137.802 3.15625 303.906 3.15625Z" fill="white"/>
</mask>
<g mask="url(#mask3_11_13569)">
<path d="M391.698 123.464H215.526L303.609 73.2449L391.698 123.464ZM239.286 117.162H367.937L303.609 80.4949L239.286 117.162Z" fill="#C6BAA8"/>
</g>
</g>
<mask id="mask4_11_13569" style="mask-type:luminance" maskUnits="userSpaceOnUse" x="378" y="168" width="68" height="9">
<path d="M378.578 168.76H445.245V176.76H378.578V168.76Z" fill="white"/>
</mask>
<g mask="url(#mask4_11_13569)">
<mask id="mask5_11_13569" style="mask-type:luminance" maskUnits="userSpaceOnUse" x="3" y="3" width="602" height="602">
<path d="M303.906 3.15601C470 3.15601 604.651 137.807 604.651 303.906C604.651 470 470 604.656 303.906 604.656C137.802 604.656 3.15625 470 3.15625 303.906C3.15625 137.807 137.802 3.15601 303.906 3.15601Z" fill="white"/>
</mask>
<g mask="url(#mask5_11_13569)">
<path d="M378.646 169.578H444.62V175.901H378.646V169.578Z" fill="#C6BAA8"/>
</g>
</g>
<mask id="mask6_11_13569" style="mask-type:luminance" maskUnits="userSpaceOnUse" x="375" y="127" width="68" height="34">
<path d="M375.912 127.427H442.578V160.761H375.912V127.427Z" fill="white"/>
</mask>
<g mask="url(#mask6_11_13569)">
<mask id="mask7_11_13569" style="mask-type:luminance" maskUnits="userSpaceOnUse" x="3" y="3" width="602" height="602">
<path d="M303.907 3.15625C470 3.15625 604.651 137.807 604.651 303.906C604.651 470 470 604.656 303.907 604.656C137.802 604.656 3.15649 470 3.15649 303.906C3.15649 137.807 137.802 3.15625 303.907 3.15625Z" fill="white"/>
</mask>
<g mask="url(#mask7_11_13569)">
<path d="M439.688 128.24L442.047 134.11L378.328 159.703L375.969 153.833L439.688 128.24Z" fill="#C6BAA8"/>
</g>
</g>
<mask id="mask8_11_13569" style="mask-type:luminance" maskUnits="userSpaceOnUse" x="375" y="184" width="68" height="35">
<path d="M375.912 184.76H442.578V218.094H375.912V184.76Z" fill="white"/>
</mask>
<g mask="url(#mask8_11_13569)">
<mask id="mask9_11_13569" style="mask-type:luminance" maskUnits="userSpaceOnUse" x="3" y="3" width="602" height="602">
<path d="M303.907 3.15601C470 3.15601 604.651 137.807 604.651 303.906C604.651 470 470 604.656 303.907 604.656C137.802 604.656 3.15649 470 3.15649 303.906C3.15649 137.807 137.802 3.15601 303.907 3.15601Z" fill="white"/>
</mask>
<g mask="url(#mask9_11_13569)">
<path d="M378.542 185.812L442.266 211.385L439.912 217.25L376.188 191.682L378.542 185.812Z" fill="#C6BAA8"/>
</g>
</g>
<mask id="mask10_11_13569" style="mask-type:luminance" maskUnits="userSpaceOnUse" x="161" y="168" width="69" height="9">
<path d="M161.245 168.76H229.245V176.76H161.245V168.76Z" fill="white"/>
</mask>
<g mask="url(#mask10_11_13569)">
<mask id="mask11_11_13569" style="mask-type:luminance" maskUnits="userSpaceOnUse" x="3" y="3" width="602" height="602">
<path d="M303.907 3.15601C470.001 3.15601 604.652 137.807 604.652 303.906C604.652 470 470.001 604.656 303.907 604.656C137.803 604.656 3.15674 470 3.15674 303.906C3.15674 137.807 137.803 3.15601 303.907 3.15601Z" fill="white"/>
</mask>
<g mask="url(#mask11_11_13569)">
<path d="M162.354 169.578H228.328V175.901H162.354V169.578Z" fill="#C6BAA8"/>
</g>
</g>
<mask id="mask12_11_13569" style="mask-type:luminance" maskUnits="userSpaceOnUse" x="163" y="127" width="69" height="34">
<path d="M163.912 127.427H231.912V160.761H163.912V127.427Z" fill="white"/>
</mask>
<g mask="url(#mask12_11_13569)">
<mask id="mask13_11_13569" style="mask-type:luminance" maskUnits="userSpaceOnUse" x="3" y="3" width="602" height="602">
<path d="M303.907 3.15625C470 3.15625 604.651 137.807 604.651 303.906C604.651 470 470 604.656 303.907 604.656C137.802 604.656 3.15649 470 3.15649 303.906C3.15649 137.807 137.802 3.15625 303.907 3.15625Z" fill="white"/>
</mask>
<g mask="url(#mask13_11_13569)">
<path d="M167.302 128.26L231.032 153.833L228.677 159.698L164.948 134.13L167.302 128.26Z" fill="#C6BAA8"/>
</g>
</g>
<mask id="mask14_11_13569" style="mask-type:luminance" maskUnits="userSpaceOnUse" x="163" y="184" width="69" height="35">
<path d="M163.912 184.76H231.912V218.094H163.912V184.76Z" fill="white"/>
</mask>
<g mask="url(#mask14_11_13569)">
<mask id="mask15_11_13569" style="mask-type:luminance" maskUnits="userSpaceOnUse" x="3" y="3" width="602" height="602">
<path d="M303.907 3.15601C470 3.15601 604.651 137.807 604.651 303.906C604.651 470 470 604.656 303.907 604.656C137.802 604.656 3.15649 470 3.15649 303.906C3.15649 137.807 137.802 3.15601 303.907 3.15601Z" fill="white"/>
</mask>
<g mask="url(#mask15_11_13569)">
<path d="M228.469 185.828L230.823 191.692L167.099 217.271L164.745 211.406L228.469 185.828Z" fill="#C6BAA8"/>
</g>
</g>
<mask id="mask16_11_13569" style="mask-type:luminance" maskUnits="userSpaceOnUse" x="38" y="474" width="229" height="131">
<path d="M38.5781 474.094H266.578V604.76H38.5781V474.094Z" fill="white"/>
</mask>
<g mask="url(#mask16_11_13569)">
<mask id="mask17_11_13569" style="mask-type:luminance" maskUnits="userSpaceOnUse" x="3" y="3" width="602" height="602">
<path d="M303.906 3.15625C470 3.15625 604.651 137.807 604.651 303.906C604.651 470 470 604.656 303.906 604.656C137.802 604.656 3.15625 470 3.15625 303.906C3.15625 137.807 137.802 3.15625 303.906 3.15625Z" fill="white"/>
</mask>
<g mask="url(#mask17_11_13569)">
<path d="M174.141 744.719C99.7135 744.719 39.1562 684.167 39.1562 609.734C39.1562 535.302 99.7083 474.745 174.141 474.745C205.922 474.745 236.797 486.01 261.068 506.464L265.276 510.01L260.089 511.854C208.865 530.031 174.448 578.776 174.448 633.146C174.448 671.177 191.146 707.057 220.266 731.589L224.474 735.136L219.286 736.974C204.807 742.115 189.62 744.719 174.141 744.719ZM174.141 481.057C103.193 481.057 45.4635 538.781 45.4635 609.734C45.4635 680.688 103.193 738.412 174.141 738.412C187.068 738.412 199.781 736.505 212.01 732.74C184.057 707.167 168.135 671.182 168.135 633.151C168.135 577.974 201.917 528.328 252.766 507.88C230.328 490.547 202.62 481.057 174.141 481.057Z" fill="#C6BAA8"/>
</g>
</g>
<mask id="mask18_11_13569" style="mask-type:luminance" maskUnits="userSpaceOnUse" x="49" y="484" width="206" height="121">
<path d="M49.2451 484.76H254.578V604.76H49.2451V484.76Z" fill="white"/>
</mask>
<g mask="url(#mask18_11_13569)">
<mask id="mask19_11_13569" style="mask-type:luminance" maskUnits="userSpaceOnUse" x="3" y="3" width="602" height="602">
<path d="M303.907 3.15601C470.001 3.15601 604.652 137.807 604.652 303.906C604.652 470 470.001 604.656 303.907 604.656C137.803 604.656 3.15674 470 3.15674 303.906C3.15674 137.807 137.803 3.15601 303.907 3.15601Z" fill="white"/>
</mask>
<g mask="url(#mask19_11_13569)">
<path d="M174.141 734.39C105.407 734.39 49.4795 678.474 49.4795 609.734C49.4795 540.995 105.407 485.073 174.141 485.073C201.854 485.073 228.089 493.979 250.016 510.823L254.162 514.005L249.412 516.193C203.875 537.14 174.448 583.052 174.448 633.146C174.448 667.328 187.709 699.51 211.782 723.771L215.469 727.489L210.464 729.01C198.735 732.583 186.516 734.39 174.141 734.39ZM174.141 491.385C108.886 491.385 55.792 544.479 55.792 609.734C55.792 674.989 108.886 728.083 174.141 728.083C184.146 728.083 194.042 726.838 203.636 724.375C180.703 699.417 168.136 667.224 168.136 633.146C168.136 582.359 196.959 535.682 242.011 512.765C222.073 498.76 198.719 491.385 174.141 491.385Z" fill="#C6BAA8"/>
</g>
</g>
<mask id="mask20_11_13569" style="mask-type:luminance" maskUnits="userSpaceOnUse" x="58" y="494" width="186" height="111">
<path d="M58.5781 494.094H243.911V604.76H58.5781V494.094Z" fill="white"/>
</mask>
<g mask="url(#mask20_11_13569)">
<mask id="mask21_11_13569" style="mask-type:luminance" maskUnits="userSpaceOnUse" x="3" y="3" width="602" height="602">
<path d="M303.906 3.15625C470 3.15625 604.651 137.807 604.651 303.906C604.651 470 470 604.656 303.906 604.656C137.802 604.656 3.15625 470 3.15625 303.906C3.15625 137.807 137.802 3.15625 303.906 3.15625Z" fill="white"/>
</mask>
<g mask="url(#mask21_11_13569)">
<path d="M174.14 724.073C111.099 724.073 59.8071 672.781 59.8071 609.734C59.8071 546.687 111.094 495.396 174.14 495.396C197.734 495.396 220.385 502.526 239.646 516.016L243.724 518.87L239.401 521.338C199.333 544.224 174.443 587.068 174.443 633.146C174.443 663.177 185.01 692.401 204.203 715.437L207.396 719.276L202.557 720.51C193.328 722.875 183.765 724.073 174.14 724.073ZM174.14 501.708C114.578 501.708 66.1144 550.167 66.1144 609.734C66.1144 669.302 114.578 717.76 174.14 717.76C181.573 717.76 188.963 717.005 196.177 715.51C178.057 692 168.135 662.948 168.135 633.146C168.135 586.495 192.453 543.01 231.927 518.448C214.656 507.479 194.776 501.708 174.14 501.708Z" fill="#C6BAA8"/>
</g>
</g>
<mask id="mask22_11_13569" style="mask-type:luminance" maskUnits="userSpaceOnUse" x="69" y="504" width="166" height="101">
<path d="M69.2451 504.76H234.578V604.76H69.2451V504.76Z" fill="white"/>
</mask>
<g mask="url(#mask22_11_13569)">
<mask id="mask23_11_13569" style="mask-type:luminance" maskUnits="userSpaceOnUse" x="3" y="3" width="602" height="602">
<path d="M303.907 3.15601C470.001 3.15601 604.652 137.807 604.652 303.906C604.652 470 470.001 604.656 303.907 604.656C137.803 604.656 3.15674 470 3.15674 303.906C3.15674 137.807 137.803 3.15601 303.907 3.15601Z" fill="white"/>
</mask>
<g mask="url(#mask23_11_13569)">
<path d="M174.141 713.75C116.787 713.75 70.1306 667.088 70.1306 609.734C70.1306 552.38 116.792 505.719 174.141 505.719C193.995 505.719 213.302 511.333 229.974 521.963L233.985 524.515L230.073 527.219C195.245 551.286 174.448 590.885 174.448 633.151C174.448 659.599 182.422 685.015 197.5 706.646L200.23 710.562L195.558 711.541C188.552 713.005 181.349 713.75 174.141 713.75ZM174.141 512.026C120.271 512.026 76.4431 555.859 76.4431 609.734C76.4431 663.609 120.271 707.437 174.141 707.437C179.329 707.437 184.511 707.026 189.615 706.219C175.547 684.422 168.136 659.265 168.136 633.146C168.136 590.427 188.391 550.302 222.552 524.849C207.849 516.448 191.214 512.026 174.141 512.026Z" fill="#C6BAA8"/>
</g>
</g>
<mask id="mask24_11_13569" style="mask-type:luminance" maskUnits="userSpaceOnUse" x="79" y="515" width="147" height="90">
<path d="M79.9116 515.427H225.245V604.761H79.9116V515.427Z" fill="white"/>
</mask>
<g mask="url(#mask24_11_13569)">
<mask id="mask25_11_13569" style="mask-type:luminance" maskUnits="userSpaceOnUse" x="3" y="3" width="602" height="602">
<path d="M303.907 3.15649C470 3.15649 604.651 137.808 604.651 303.907C604.651 470 470 604.657 303.907 604.657C137.802 604.657 3.15649 470 3.15649 303.907C3.15649 137.808 137.802 3.15649 303.907 3.15649Z" fill="white"/>
</mask>
<g mask="url(#mask25_11_13569)">
<path d="M174.141 703.422C122.485 703.422 80.4534 661.396 80.4534 609.735C80.4534 558.073 122.485 516.047 174.141 516.047C190.615 516.047 206.813 520.38 220.99 528.578L224.927 530.86L221.412 533.745C191.563 558.313 174.443 594.542 174.443 633.151C174.443 655.766 180.396 678.011 191.662 697.479L193.943 701.433L189.443 702.177C184.406 703.005 179.261 703.422 174.141 703.422ZM174.141 522.354C125.964 522.354 86.7659 561.552 86.7659 609.735C86.7659 657.912 125.964 697.115 174.141 697.115C177.412 697.115 180.688 696.927 183.938 696.568C173.584 677.136 168.136 655.313 168.136 633.146C168.136 594.198 184.745 557.558 213.865 531.886C201.63 525.641 187.99 522.354 174.141 522.354Z" fill="#C6BAA8"/>
</g>
</g>
<mask id="mask26_11_13569" style="mask-type:luminance" maskUnits="userSpaceOnUse" x="90" y="526" width="128" height="79">
<path d="M90.5781 526.094H217.245V604.76H90.5781V526.094Z" fill="white"/>
</mask>
<g mask="url(#mask26_11_13569)">
<mask id="mask27_11_13569" style="mask-type:luminance" maskUnits="userSpaceOnUse" x="3" y="3" width="602" height="602">
<path d="M303.906 3.15625C470 3.15625 604.651 137.807 604.651 303.906C604.651 470 470 604.656 303.906 604.656C137.802 604.656 3.15625 470 3.15625 303.906C3.15625 137.807 137.802 3.15625 303.906 3.15625Z" fill="white"/>
</mask>
<g mask="url(#mask27_11_13569)">
<path d="M174.14 693.099C128.172 693.099 90.7759 655.703 90.7759 609.734C90.7759 563.766 128.172 526.365 174.14 526.365C187.552 526.365 200.89 529.63 212.713 535.812L216.578 537.833L213.453 540.87C188.302 565.323 174.448 598.099 174.448 633.146C174.448 652.323 178.573 670.781 186.703 688.01L188.573 691.969L184.229 692.49C180.864 692.896 177.469 693.099 174.14 693.099ZM174.14 532.677C131.656 532.677 97.0832 567.245 97.0832 609.734C97.0832 653.88 134.411 689.615 179.151 686.625C171.838 669.724 168.135 651.76 168.135 633.146C168.135 597.87 181.51 564.792 205.901 539.516C195.979 535.031 185.088 532.677 174.14 532.677Z" fill="#C6BAA8"/>
</g>
</g>
<mask id="mask28_11_13569" style="mask-type:luminance" maskUnits="userSpaceOnUse" x="99" y="535" width="111" height="70">
<path d="M99.9116 535.427H209.245V604.761H99.9116V535.427Z" fill="white"/>
</mask>
<g mask="url(#mask28_11_13569)">
<mask id="mask29_11_13569" style="mask-type:luminance" maskUnits="userSpaceOnUse" x="3" y="3" width="602" height="602">
<path d="M303.907 3.15649C470 3.15649 604.651 137.808 604.651 303.907C604.651 470 470 604.657 303.907 604.657C137.802 604.657 3.15649 470 3.15649 303.907C3.15649 137.808 137.802 3.15649 303.907 3.15649Z" fill="white"/>
</mask>
<g mask="url(#mask29_11_13569)">
<path d="M174.141 682.771C133.865 682.771 101.099 650.011 101.099 609.735C101.099 569.458 133.865 536.693 174.141 536.693C184.99 536.693 195.427 539.016 205.162 543.594L208.948 545.37L206.198 548.521C185.724 571.948 174.448 602 174.448 633.146C174.448 648.677 177.188 663.87 182.599 678.302L184.073 682.229L179.891 682.552C178 682.698 176.068 682.771 174.141 682.771ZM174.141 543.005C137.344 543.005 107.412 572.938 107.412 609.735C107.412 646.531 137.349 676.464 174.141 676.464C174.511 676.464 174.875 676.464 175.24 676.459C170.526 662.537 168.136 647.99 168.136 633.151C168.136 601.917 178.948 571.724 198.667 547.656C190.88 544.568 182.651 543.005 174.141 543.005Z" fill="#C6BAA8"/>
</g>
</g>
<mask id="mask30_11_13569" style="mask-type:luminance" maskUnits="userSpaceOnUse" x="110" y="546" width="93" height="59">
<path d="M110.578 546.094H202.578V604.76H110.578V546.094Z" fill="white"/>
</mask>
<g mask="url(#mask30_11_13569)">
<mask id="mask31_11_13569" style="mask-type:luminance" maskUnits="userSpaceOnUse" x="3" y="3" width="602" height="602">
<path d="M303.906 3.15625C470 3.15625 604.651 137.807 604.651 303.906C604.651 470 470 604.656 303.906 604.656C137.802 604.656 3.15625 470 3.15625 303.906C3.15625 137.807 137.802 3.15625 303.906 3.15625Z" fill="white"/>
</mask>
<g mask="url(#mask31_11_13569)">
<path d="M174.141 672.453C139.557 672.453 111.422 644.318 111.422 609.734C111.422 575.151 139.557 547.016 174.141 547.016C182.516 547.016 190.651 548.641 198.339 551.854L202.057 553.411L199.661 556.646C183.167 578.906 174.448 605.365 174.448 633.146C174.448 645.12 176.094 656.979 179.333 668.391L180.432 672.26L176.406 672.406C175.656 672.432 174.901 672.453 174.141 672.453ZM174.141 553.323C143.036 553.323 117.734 578.63 117.734 609.734C117.734 640.182 141.99 665.073 172.188 666.109C169.5 655.375 168.135 644.307 168.135 633.146C168.135 605.396 176.432 578.906 192.167 556.271C186.37 554.313 180.328 553.323 174.141 553.323Z" fill="#C6BAA8"/>
</g>
</g>
<mask id="mask32_11_13569" style="mask-type:luminance" maskUnits="userSpaceOnUse" x="121" y="556" width="75" height="49">
<path d="M121.245 556.76H195.912V604.76H121.245V556.76Z" fill="white"/>
</mask>
<g mask="url(#mask32_11_13569)">
<mask id="mask33_11_13569" style="mask-type:luminance" maskUnits="userSpaceOnUse" x="3" y="3" width="602" height="602">
<path d="M303.907 3.15601C470.001 3.15601 604.652 137.807 604.652 303.906C604.652 470 470.001 604.656 303.907 604.656C137.803 604.656 3.15674 470 3.15674 303.906C3.15674 137.807 137.803 3.15601 303.907 3.15601Z" fill="white"/>
</mask>
<g mask="url(#mask33_11_13569)">
<path d="M177.678 662.151L173.808 662.125C145.105 661.942 121.75 638.437 121.75 609.734C121.75 580.838 145.25 557.333 174.141 557.333C180.36 557.333 186.454 558.416 192.261 560.557L195.902 561.896L193.849 565.187C181.157 585.552 174.443 609.052 174.443 633.146C174.443 641.593 175.282 650.073 176.922 658.354L177.678 662.151ZM174.141 563.646C148.735 563.646 128.058 584.323 128.058 609.734C128.058 633.687 146.553 653.526 170.006 655.63C168.766 648.208 168.136 640.666 168.136 633.146C168.136 609.224 174.443 585.854 186.412 565.302C182.433 564.203 178.318 563.646 174.141 563.646Z" fill="#C6BAA8"/>
</g>
</g>
<mask id="mask34_11_13569" style="mask-type:luminance" maskUnits="userSpaceOnUse" x="131" y="567" width="60" height="38">
<path d="M131.912 567.427H190.578V604.761H131.912V567.427Z" fill="white"/>
</mask>
<g mask="url(#mask34_11_13569)">
<mask id="mask35_11_13569" style="mask-type:luminance" maskUnits="userSpaceOnUse" x="3" y="3" width="602" height="602">
<path d="M303.907 3.15649C470 3.15649 604.651 137.808 604.651 303.907C604.651 470 470 604.657 303.907 604.657C137.802 604.657 3.15649 470 3.15649 303.907C3.15649 137.808 137.802 3.15649 303.907 3.15649Z" fill="white"/>
</mask>
<g mask="url(#mask35_11_13569)">
<path d="M175.766 651.938L172.042 651.756C149.631 650.651 132.073 632.193 132.073 609.735C132.073 586.537 150.943 567.667 174.141 567.667C178.5 567.667 182.802 568.334 186.927 569.646L190.49 570.782L188.771 574.104C179.266 592.474 174.448 612.339 174.448 633.151C174.448 638.12 174.745 643.198 175.334 648.24L175.766 651.938ZM174.141 573.974C154.427 573.974 138.386 590.016 138.386 609.735C138.386 627.573 151.417 642.443 168.667 645.084C168.313 641.084 168.136 637.084 168.136 633.146C168.136 612.636 172.599 593 181.412 574.714C179.032 574.224 176.594 573.974 174.141 573.974Z" fill="#C6BAA8"/>
</g>
</g>
<mask id="mask36_11_13569" style="mask-type:luminance" maskUnits="userSpaceOnUse" x="141" y="576" width="46" height="29">
<path d="M141.245 576.76H186.578V604.76H141.245V576.76Z" fill="white"/>
</mask>
<g mask="url(#mask36_11_13569)">
<mask id="mask37_11_13569" style="mask-type:luminance" maskUnits="userSpaceOnUse" x="3" y="3" width="602" height="602">
<path d="M303.907 3.15601C470.001 3.15601 604.652 137.807 604.652 303.906C604.652 470 470.001 604.656 303.907 604.656C137.803 604.656 3.15674 470 3.15674 303.906C3.15674 137.807 137.803 3.15601 303.907 3.15601Z" fill="white"/>
</mask>
<g mask="url(#mask37_11_13569)">
<path d="M174.688 641.677L171.099 641.338C154.735 639.776 142.396 626.192 142.396 609.734C142.396 592.229 156.636 577.984 174.141 577.984C176.922 577.984 179.688 578.344 182.355 579.062L185.849 580L184.448 583.333C177.813 599.125 174.448 615.885 174.448 633.146C174.448 634.797 174.49 636.442 174.552 638.073L174.688 641.677ZM174.141 584.297C160.115 584.297 148.704 595.708 148.704 609.734C148.704 621.698 156.844 631.771 168.146 634.463C168.136 634.026 168.136 633.588 168.136 633.146C168.136 616.344 171.177 599.989 177.183 584.479C176.177 584.354 175.162 584.297 174.141 584.297Z" fill="#C6BAA8"/>
</g>
</g>
<mask id="mask38_11_13569" style="mask-type:luminance" maskUnits="userSpaceOnUse" x="341" y="474" width="229" height="131">
<path d="M341.245 474.094H569.245V604.76H341.245V474.094Z" fill="white"/>
</mask>
<g mask="url(#mask38_11_13569)">
<mask id="mask39_11_13569" style="mask-type:luminance" maskUnits="userSpaceOnUse" x="3" y="3" width="602" height="602">
<path d="M303.907 3.15625C470 3.15625 604.651 137.807 604.651 303.906C604.651 470 470 604.656 303.907 604.656C137.802 604.656 3.15649 470 3.15649 303.906C3.15649 137.807 137.802 3.15625 303.907 3.15625Z" fill="white"/>
</mask>
<g mask="url(#mask39_11_13569)">
<path d="M433.094 744.719C417.349 744.719 401.922 742.026 387.229 736.719L382.104 734.87L386.261 731.349C415.203 706.823 431.797 671.031 431.797 633.151C431.797 579.099 397.651 530.453 346.839 512.094L341.708 510.245L345.87 506.724C370.198 486.104 401.172 474.75 433.089 474.75C507.521 474.75 568.078 535.302 568.078 609.734C568.078 684.167 507.526 744.719 433.094 744.719ZM394.479 732.51C406.938 736.427 419.901 738.411 433.094 738.411C504.047 738.411 561.771 680.688 561.771 609.734C561.771 538.781 504.047 481.057 433.094 481.057C404.469 481.057 376.636 490.635 354.13 508.141C404.589 528.745 438.11 578.292 438.11 633.146C438.11 671.047 422.276 706.953 394.479 732.51Z" fill="#C6BAA8"/>
</g>
</g>
<mask id="mask40_11_13569" style="mask-type:luminance" maskUnits="userSpaceOnUse" x="351" y="484" width="208" height="121">
<path d="M351.912 484.76H558.578V604.76H351.912V484.76Z" fill="white"/>
</mask>
<g mask="url(#mask40_11_13569)">
<mask id="mask41_11_13569" style="mask-type:luminance" maskUnits="userSpaceOnUse" x="3" y="3" width="602" height="602">
<path d="M303.907 3.15601C470 3.15601 604.651 137.807 604.651 303.906C604.651 470 470 604.656 303.907 604.656C137.802 604.656 3.15649 470 3.15649 303.906C3.15649 137.807 137.802 3.15601 303.907 3.15601Z" fill="white"/>
</mask>
<g mask="url(#mask41_11_13569)">
<path d="M433.094 734.39C420.438 734.39 407.953 732.5 395.99 728.781L391.037 727.234L394.683 723.547C418.615 699.312 431.797 667.208 431.797 633.146C431.797 583.333 402.61 537.536 357.433 516.474L352.745 514.286L356.834 511.12C378.839 494.083 405.209 485.073 433.094 485.073C501.834 485.073 557.756 540.995 557.756 609.734C557.756 678.474 501.834 734.39 433.094 734.39ZM402.797 724.172C412.641 726.765 422.808 728.083 433.094 728.083C498.354 728.083 551.448 674.989 551.448 609.734C551.448 544.479 498.354 491.385 433.094 491.385C408.334 491.385 384.839 498.859 364.813 513.062C409.511 536.073 438.11 582.646 438.11 633.151C438.11 667.12 425.61 699.239 402.797 724.172Z" fill="#C6BAA8"/>
</g>
</g>
<mask id="mask42_11_13569" style="mask-type:luminance" maskUnits="userSpaceOnUse" x="362" y="494" width="186" height="111">
<path d="M362.578 494.094H547.911V604.76H362.578V494.094Z" fill="white"/>
</mask>
<g mask="url(#mask42_11_13569)">
<mask id="mask43_11_13569" style="mask-type:luminance" maskUnits="userSpaceOnUse" x="3" y="3" width="602" height="602">
<path d="M303.906 3.15625C470 3.15625 604.651 137.807 604.651 303.906C604.651 470 470 604.656 303.906 604.656C137.802 604.656 3.15625 470 3.15625 303.906C3.15625 137.807 137.802 3.15625 303.906 3.15625Z" fill="white"/>
</mask>
<g mask="url(#mask43_11_13569)">
<path d="M433.094 724.073C423.198 724.073 413.365 722.802 403.844 720.286L399.063 719.031L402.219 715.224C421.297 692.224 431.797 663.078 431.797 633.146C431.797 587.323 407.109 544.594 367.375 521.641L363.109 519.177L367.13 516.328C386.49 502.635 409.302 495.396 433.094 495.396C496.135 495.396 547.432 546.687 547.432 609.734C547.432 672.781 496.135 724.073 433.094 724.073ZM410.214 715.323C417.708 716.943 425.385 717.76 433.094 717.76C492.656 717.76 541.12 669.302 541.12 609.734C541.12 550.167 492.656 501.708 433.094 501.708C412.25 501.708 392.203 507.588 374.818 518.755C413.979 543.37 438.109 586.745 438.109 633.146C438.109 662.865 428.24 691.849 410.214 715.323Z" fill="#C6BAA8"/>
</g>
</g>
<mask id="mask44_11_13569" style="mask-type:luminance" maskUnits="userSpaceOnUse" x="371" y="504" width="167" height="101">
<path d="M371.912 504.76H537.245V604.76H371.912V504.76Z" fill="white"/>
</mask>
<g mask="url(#mask44_11_13569)">
<mask id="mask45_11_13569" style="mask-type:luminance" maskUnits="userSpaceOnUse" x="3" y="3" width="602" height="602">
<path d="M303.907 3.15601C470 3.15601 604.651 137.807 604.651 303.906C604.651 470 470 604.656 303.907 604.656C137.802 604.656 3.15649 470 3.15649 303.906C3.15649 137.807 137.802 3.15601 303.907 3.15601Z" fill="white"/>
</mask>
<g mask="url(#mask45_11_13569)">
<path d="M433.094 713.75C425.599 713.75 418.089 712.937 410.792 711.338L406.182 710.328L408.87 706.458C423.875 684.859 431.797 659.51 431.797 633.146C431.797 591.109 411.177 551.63 376.641 527.542L372.787 524.854L376.735 522.302C393.526 511.448 413.016 505.713 433.089 505.713C490.443 505.713 537.11 552.38 537.11 609.729C537.11 667.083 490.443 713.75 433.094 713.75ZM416.729 706.062C422.125 706.974 427.61 707.437 433.094 707.437C486.969 707.437 530.797 663.609 530.797 609.734C530.797 555.859 486.969 512.026 433.094 512.026C415.797 512.026 398.964 516.557 384.13 525.172C418.021 550.64 438.11 590.646 438.11 633.146C438.11 659.198 430.735 684.302 416.729 706.062Z" fill="#C6BAA8"/>
</g>
</g>
<mask id="mask46_11_13569" style="mask-type:luminance" maskUnits="userSpaceOnUse" x="381" y="515" width="147" height="90">
<path d="M381.245 515.427H527.912V604.761H381.245V515.427Z" fill="white"/>
</mask>
<g mask="url(#mask46_11_13569)">
<mask id="mask47_11_13569" style="mask-type:luminance" maskUnits="userSpaceOnUse" x="3" y="3" width="602" height="602">
<path d="M303.907 3.15649C470 3.15649 604.651 137.808 604.651 303.907C604.651 470 470 604.657 303.907 604.657C137.802 604.657 3.15649 470 3.15649 303.907C3.15649 137.808 137.802 3.15649 303.907 3.15649Z" fill="white"/>
</mask>
<g mask="url(#mask47_11_13569)">
<path d="M433.094 703.422C427.657 703.422 422.193 702.953 416.86 702.026L412.417 701.245L414.667 697.334C425.875 677.901 431.797 655.703 431.797 633.146C431.797 594.745 414.828 558.636 385.24 534.078L381.776 531.214L385.651 528.933C399.979 520.5 416.386 516.042 433.089 516.042C484.756 516.042 526.782 558.073 526.782 609.735C526.782 661.391 484.756 703.422 433.094 703.422ZM422.37 696.459C425.922 696.891 429.511 697.115 433.094 697.115C481.276 697.115 520.474 657.912 520.474 609.735C520.474 561.552 481.276 522.354 433.094 522.354C419 522.354 405.151 525.75 392.75 532.214C421.636 557.865 438.11 594.391 438.11 633.146C438.11 655.261 432.683 677.052 422.37 696.459Z" fill="#C6BAA8"/>
</g>
</g>
<mask id="mask48_11_13569" style="mask-type:luminance" maskUnits="userSpaceOnUse" x="389" y="526" width="129" height="79">
<path d="M389.245 526.094H517.245V604.76H389.245V526.094Z" fill="white"/>
</mask>
<g mask="url(#mask48_11_13569)">
<mask id="mask49_11_13569" style="mask-type:luminance" maskUnits="userSpaceOnUse" x="3" y="3" width="602" height="602">
<path d="M303.907 3.15625C470 3.15625 604.651 137.807 604.651 303.906C604.651 470 470 604.656 303.907 604.656C137.802 604.656 3.15649 470 3.15649 303.906C3.15649 137.807 137.802 3.15625 303.907 3.15625Z" fill="white"/>
</mask>
<g mask="url(#mask49_11_13569)">
<path d="M433.094 693.099C429.407 693.099 425.683 692.854 422.032 692.365L417.761 691.792L419.594 687.891C427.693 670.693 431.797 652.271 431.797 633.146C431.797 598.266 418.068 565.615 393.131 541.208L390.058 538.198L393.849 536.172C405.849 529.755 419.422 526.365 433.089 526.365C479.058 526.365 516.459 563.766 516.459 609.734C516.459 655.703 479.063 693.099 433.094 693.099ZM427.125 686.557C429.11 686.708 431.104 686.792 433.094 686.792C475.578 686.792 510.151 652.219 510.151 609.734C510.151 567.245 475.578 532.672 433.094 532.672C421.886 532.672 410.756 535.141 400.646 539.828C424.839 565.062 438.11 598.026 438.11 633.146C438.11 651.729 434.412 669.677 427.125 686.557Z" fill="#C6BAA8"/>
</g>
</g>
<mask id="mask50_11_13569" style="mask-type:luminance" maskUnits="userSpaceOnUse" x="397" y="535" width="110" height="70">
<path d="M397.245 535.427H506.578V604.761H397.245V535.427Z" fill="white"/>
</mask>
<g mask="url(#mask50_11_13569)">
<mask id="mask51_11_13569" style="mask-type:luminance" maskUnits="userSpaceOnUse" x="3" y="3" width="602" height="602">
<path d="M303.907 3.15649C470 3.15649 604.651 137.808 604.651 303.907C604.651 470 470 604.657 303.907 604.657C137.802 604.657 3.15649 470 3.15649 303.907C3.15649 137.808 137.802 3.15649 303.907 3.15649Z" fill="white"/>
</mask>
<g mask="url(#mask51_11_13569)">
<path d="M433.094 682.771C430.849 682.771 428.578 682.667 426.339 682.464L422.229 682.078L423.672 678.214C429.063 663.802 431.797 648.641 431.797 633.146C431.797 602.162 420.625 572.224 400.333 548.849L397.63 545.735L401.344 543.938C411.276 539.13 421.958 536.693 433.094 536.693C473.365 536.693 506.136 569.458 506.136 609.735C506.136 650.011 473.365 682.771 433.094 682.771ZM431.011 676.432C468.667 677.453 499.823 647.219 499.823 609.735C499.823 572.938 469.891 543.005 433.094 543.005C424.302 543.005 415.823 544.667 407.823 547.948C427.386 571.969 438.11 602.057 438.11 633.146C438.11 647.974 435.724 662.511 431.011 676.432Z" fill="#C6BAA8"/>
</g>
</g>
<mask id="mask52_11_13569" style="mask-type:luminance" maskUnits="userSpaceOnUse" x="403" y="546" width="93" height="59">
<path d="M403.912 546.094H495.912V604.76H403.912V546.094Z" fill="white"/>
</mask>
<g mask="url(#mask52_11_13569)">
<mask id="mask53_11_13569" style="mask-type:luminance" maskUnits="userSpaceOnUse" x="3" y="3" width="602" height="602">
<path d="M303.907 3.15625C470 3.15625 604.651 137.807 604.651 303.906C604.651 470 470 604.656 303.907 604.656C137.802 604.656 3.15649 470 3.15649 303.906C3.15649 137.807 137.802 3.15625 303.907 3.15625Z" fill="white"/>
</mask>
<g mask="url(#mask53_11_13569)">
<path d="M433.094 672.453C431.985 672.453 430.88 672.427 429.781 672.37L425.844 672.146L426.922 668.354C430.156 656.958 431.797 645.115 431.797 633.146C431.797 605.516 423.162 579.167 406.818 556.958L404.474 553.771L408.104 552.193C416.005 548.76 424.417 547.016 433.094 547.016C467.677 547.016 495.813 575.151 495.813 609.734C495.813 644.318 467.677 672.453 433.094 672.453ZM414.271 556.542C429.88 579.125 438.11 605.521 438.11 633.146C438.11 644.323 436.745 655.401 434.052 666.135C464.714 665.62 489.5 640.521 489.5 609.734C489.5 578.63 464.193 553.323 433.094 553.323C426.61 553.323 420.302 554.401 414.271 556.542Z" fill="#C6BAA8"/>
</g>
</g>
<mask id="mask54_11_13569" style="mask-type:luminance" maskUnits="userSpaceOnUse" x="410" y="556" width="77" height="49">
<path d="M410.578 556.76H486.578V604.76H410.578V556.76Z" fill="white"/>
</mask>
<g mask="url(#mask54_11_13569)">
<mask id="mask55_11_13569" style="mask-type:luminance" maskUnits="userSpaceOnUse" x="3" y="3" width="602" height="602">
<path d="M303.906 3.15601C470 3.15601 604.651 137.807 604.651 303.906C604.651 470 470 604.656 303.906 604.656C137.802 604.656 3.15625 470 3.15625 303.906C3.15625 137.807 137.802 3.15601 303.906 3.15601Z" fill="white"/>
</mask>
<g mask="url(#mask55_11_13569)">
<path d="M433.094 662.13L428.604 662.01L429.323 658.349C430.963 650.073 431.797 641.599 431.797 633.146C431.797 609.172 425.151 585.776 412.578 565.489L410.583 562.26L414.12 560.885C420.167 558.531 426.552 557.338 433.088 557.338C461.984 557.338 485.49 580.838 485.49 609.734C485.49 638.63 461.984 662.13 433.094 662.13ZM419.974 565.542C431.849 586.031 438.109 609.318 438.109 633.146C438.109 640.703 437.474 648.271 436.219 655.713C460.182 654.099 479.177 634.094 479.177 609.734C479.177 584.323 458.505 563.646 433.094 563.646C428.615 563.646 424.213 564.286 419.974 565.542Z" fill="#C6BAA8"/>
</g>
</g>
<mask id="mask56_11_13569" style="mask-type:luminance" maskUnits="userSpaceOnUse" x="415" y="567" width="61" height="38">
<path d="M415.912 567.427H475.912V604.761H415.912V567.427Z" fill="white"/>
</mask>
<g mask="url(#mask56_11_13569)">
<mask id="mask57_11_13569" style="mask-type:luminance" maskUnits="userSpaceOnUse" x="3" y="3" width="602" height="602">
<path d="M303.907 3.15649C470 3.15649 604.651 137.808 604.651 303.907C604.651 470 470 604.657 303.907 604.657C137.802 604.657 3.15649 470 3.15649 303.907C3.15649 137.808 137.802 3.15649 303.907 3.15649Z" fill="white"/>
</mask>
<g mask="url(#mask57_11_13569)">
<path d="M430.485 651.875L430.912 648.271C431.5 643.229 431.797 638.141 431.797 633.146C431.797 612.443 427.026 592.662 417.615 574.37L415.948 571.13L419.396 569.943C423.792 568.427 428.396 567.662 433.094 567.662C456.292 567.662 475.167 586.537 475.167 609.735C475.167 632.38 456.756 651.245 434.12 651.792L430.485 651.875ZM424.933 574.906C433.677 593.136 438.11 612.714 438.11 633.146C438.11 637.13 437.927 641.177 437.568 645.208C455.12 642.979 468.854 627.766 468.854 609.735C468.854 590.016 452.813 573.974 433.094 573.974C430.323 573.974 427.589 574.287 424.933 574.906Z" fill="#C6BAA8"/>
</g>
</g>
<mask id="mask58_11_13569" style="mask-type:luminance" maskUnits="userSpaceOnUse" x="419" y="576" width="47" height="29">
<path d="M419.912 576.76H465.245V604.76H419.912V576.76Z" fill="white"/>
</mask>
<g mask="url(#mask58_11_13569)">
<mask id="mask59_11_13569" style="mask-type:luminance" maskUnits="userSpaceOnUse" x="3" y="3" width="602" height="602">
<path d="M303.907 3.15601C470 3.15601 604.651 137.807 604.651 303.906C604.651 470 470 604.656 303.907 604.656C137.802 604.656 3.15649 470 3.15649 303.906C3.15649 137.807 137.802 3.15601 303.907 3.15601Z" fill="white"/>
</mask>
<g mask="url(#mask59_11_13569)">
<path d="M431.558 641.63L431.693 638.146C431.755 636.489 431.797 634.823 431.797 633.146C431.797 615.984 428.469 599.307 421.896 583.578L420.547 580.349L423.896 579.338C426.875 578.442 429.969 577.984 433.094 577.984C450.599 577.984 464.839 592.229 464.839 609.734C464.839 626.495 451.745 640.416 435.031 641.422L431.558 641.63ZM429.11 584.609C435.084 600.088 438.11 616.396 438.11 633.146C438.11 633.656 438.104 634.166 438.099 634.677C449.797 632.349 458.531 621.989 458.531 609.734C458.531 595.708 447.115 584.297 433.094 584.297C431.755 584.297 430.427 584.401 429.11 584.609Z" fill="#C6BAA8"/>
</g>
</g>
<mask id="mask60_11_13569" style="mask-type:luminance" maskUnits="userSpaceOnUse" x="167" y="498" width="272" height="107">
<path d="M167.912 498.094H438.578V604.76H167.912V498.094Z" fill="white"/>
</mask>
<g mask="url(#mask60_11_13569)">
<mask id="mask61_11_13569" style="mask-type:luminance" maskUnits="userSpaceOnUse" x="3" y="3" width="602" height="602">
<path d="M303.907 3.15625C470 3.15625 604.651 137.807 604.651 303.906C604.651 470 470 604.656 303.907 604.656C137.802 604.656 3.15649 470 3.15649 303.906C3.15649 137.807 137.802 3.15625 303.907 3.15625Z" fill="white"/>
</mask>
<g mask="url(#mask61_11_13569)">
<path d="M303.12 768.135C228.693 768.135 168.136 707.578 168.136 633.146C168.136 558.713 228.688 498.161 303.12 498.161C377.558 498.161 438.11 558.713 438.11 633.146C438.11 707.578 377.558 768.135 303.12 768.135ZM303.12 504.474C232.172 504.474 174.443 562.198 174.443 633.146C174.443 704.099 232.167 761.823 303.12 761.823C374.073 761.823 431.797 704.099 431.797 633.146C431.797 562.198 374.073 504.474 303.12 504.474Z" fill="#C6BAA8"/>
</g>
</g>
<mask id="mask62_11_13569" style="mask-type:luminance" maskUnits="userSpaceOnUse" x="177" y="507" width="251" height="98">
<path d="M177.245 507.427H427.912V604.761H177.245V507.427Z" fill="white"/>
</mask>
<g mask="url(#mask62_11_13569)">
<mask id="mask63_11_13569" style="mask-type:luminance" maskUnits="userSpaceOnUse" x="3" y="3" width="602" height="602">
<path d="M303.907 3.15649C470.001 3.15649 604.652 137.808 604.652 303.907C604.652 470 470.001 604.657 303.907 604.657C137.803 604.657 3.15674 470 3.15674 303.907C3.15674 137.808 137.803 3.15649 303.907 3.15649Z" fill="white"/>
</mask>
<g mask="url(#mask63_11_13569)">
<path d="M303.12 757.813C234.386 757.813 178.459 701.891 178.459 633.146C178.459 564.406 234.386 508.485 303.12 508.485C371.86 508.485 427.787 564.406 427.787 633.146C427.787 701.891 371.86 757.813 303.12 757.813ZM303.12 514.792C237.865 514.792 184.771 567.886 184.771 633.146C184.771 698.406 237.865 751.5 303.12 751.5C368.381 751.5 421.474 698.406 421.474 633.146C421.474 567.886 368.381 514.792 303.12 514.792Z" fill="#C6BAA8"/>
</g>
</g>
<mask id="mask64_11_13569" style="mask-type:luminance" maskUnits="userSpaceOnUse" x="187" y="518" width="232" height="87">
<path d="M187.912 518.094H418.578V604.76H187.912V518.094Z" fill="white"/>
</mask>
<g mask="url(#mask64_11_13569)">
<mask id="mask65_11_13569" style="mask-type:luminance" maskUnits="userSpaceOnUse" x="3" y="3" width="602" height="602">
<path d="M303.907 3.15625C470 3.15625 604.651 137.807 604.651 303.906C604.651 470 470 604.656 303.907 604.656C137.802 604.656 3.15649 470 3.15649 303.906C3.15649 137.807 137.802 3.15625 303.907 3.15625Z" fill="white"/>
</mask>
<g mask="url(#mask65_11_13569)">
<path d="M303.12 747.484C240.073 747.484 188.781 696.193 188.781 633.146C188.781 570.099 240.073 518.807 303.12 518.807C366.167 518.807 417.459 570.099 417.459 633.146C417.459 696.193 366.167 747.484 303.12 747.484ZM303.12 525.12C243.552 525.12 195.094 573.583 195.094 633.146C195.094 692.714 243.552 741.172 303.12 741.172C362.688 741.172 411.151 692.714 411.151 633.146C411.151 573.583 362.688 525.12 303.12 525.12Z" fill="#C6BAA8"/>
</g>
</g>
<mask id="mask66_11_13569" style="mask-type:luminance" maskUnits="userSpaceOnUse" x="198" y="528" width="210" height="77">
<path d="M198.578 528.76H407.911V604.76H198.578V528.76Z" fill="white"/>
</mask>
<g mask="url(#mask66_11_13569)">
<mask id="mask67_11_13569" style="mask-type:luminance" maskUnits="userSpaceOnUse" x="3" y="3" width="602" height="602">
<path d="M303.906 3.15601C470 3.15601 604.651 137.807 604.651 303.906C604.651 470 470 604.656 303.906 604.656C137.802 604.656 3.15625 470 3.15625 303.906C3.15625 137.807 137.802 3.15601 303.906 3.15601Z" fill="white"/>
</mask>
<g mask="url(#mask67_11_13569)">
<path d="M303.12 737.167C245.766 737.167 199.109 690.5 199.109 633.146C199.109 575.797 245.771 529.135 303.12 529.135C360.474 529.135 407.135 575.797 407.135 633.146C407.135 690.5 360.474 737.167 303.12 737.167ZM303.12 535.448C249.25 535.448 205.417 579.281 205.417 633.146C205.417 687.026 249.25 730.854 303.12 730.854C356.995 730.854 400.828 687.026 400.828 633.146C400.828 579.276 356.995 535.448 303.12 535.448Z" fill="#C6BAA8"/>
</g>
</g>
<mask id="mask68_11_13569" style="mask-type:luminance" maskUnits="userSpaceOnUse" x="209" y="539" width="189" height="66">
<path d="M209.245 539.427H397.245V604.761H209.245V539.427Z" fill="white"/>
</mask>
<g mask="url(#mask68_11_13569)">
<mask id="mask69_11_13569" style="mask-type:luminance" maskUnits="userSpaceOnUse" x="3" y="3" width="602" height="602">
<path d="M303.907 3.15649C470.001 3.15649 604.652 137.808 604.652 303.907C604.652 470 470.001 604.657 303.907 604.657C137.803 604.657 3.15674 470 3.15674 303.907C3.15674 137.808 137.803 3.15649 303.907 3.15649Z" fill="white"/>
</mask>
<g mask="url(#mask69_11_13569)">
<path d="M303.12 726.844C251.459 726.844 209.433 684.813 209.433 633.146C209.433 581.49 251.459 539.458 303.12 539.458C354.787 539.458 396.813 581.49 396.813 633.146C396.818 684.813 354.787 726.844 303.12 726.844ZM303.12 545.771C254.938 545.771 215.74 584.969 215.74 633.146C215.74 681.328 254.938 720.531 303.12 720.531C351.302 720.531 390.506 681.328 390.506 633.146C390.506 584.969 351.302 545.771 303.12 545.771Z" fill="#C6BAA8"/>
</g>
</g>
<mask id="mask70_11_13569" style="mask-type:luminance" maskUnits="userSpaceOnUse" x="218" y="548" width="169" height="57">
<path d="M218.578 548.76H386.578V604.76H218.578V548.76Z" fill="white"/>
</mask>
<g mask="url(#mask70_11_13569)">
<mask id="mask71_11_13569" style="mask-type:luminance" maskUnits="userSpaceOnUse" x="3" y="3" width="602" height="602">
<path d="M303.906 3.15601C470 3.15601 604.651 137.807 604.651 303.906C604.651 470 470 604.656 303.906 604.656C137.802 604.656 3.15625 470 3.15625 303.906C3.15625 137.807 137.802 3.15601 303.906 3.15601Z" fill="white"/>
</mask>
<g mask="url(#mask71_11_13569)">
<path d="M303.12 716.515C257.151 716.515 219.755 679.114 219.755 633.146C219.755 587.177 257.151 549.781 303.12 549.781C349.088 549.781 386.484 587.177 386.484 633.146C386.484 679.114 349.088 716.515 303.12 716.515ZM303.12 556.088C260.635 556.088 226.062 590.661 226.062 633.146C226.062 675.635 260.635 710.208 303.12 710.208C345.609 710.208 380.177 675.635 380.177 633.146C380.177 590.661 345.609 556.088 303.12 556.088Z" fill="#C6BAA8"/>
</g>
</g>
<mask id="mask72_11_13569" style="mask-type:luminance" maskUnits="userSpaceOnUse" x="229" y="559" width="149" height="46">
<path d="M229.245 559.427H377.245V604.761H229.245V559.427Z" fill="white"/>
</mask>
<g mask="url(#mask72_11_13569)">
<mask id="mask73_11_13569" style="mask-type:luminance" maskUnits="userSpaceOnUse" x="3" y="3" width="602" height="602">
<path d="M303.907 3.15649C470.001 3.15649 604.652 137.808 604.652 303.907C604.652 470 470.001 604.657 303.907 604.657C137.803 604.657 3.15674 470 3.15674 303.907C3.15674 137.808 137.803 3.15649 303.907 3.15649Z" fill="white"/>
</mask>
<g mask="url(#mask73_11_13569)">
<path d="M303.12 706.188C262.844 706.188 230.079 673.422 230.079 633.146C230.079 592.875 262.844 560.11 303.12 560.11C343.396 560.11 376.167 592.875 376.167 633.146C376.167 673.422 343.396 706.188 303.12 706.188ZM303.12 566.417C266.323 566.417 236.391 596.354 236.391 633.146C236.391 669.943 266.329 699.88 303.12 699.88C339.922 699.88 369.855 669.943 369.855 633.146C369.855 596.354 339.922 566.417 303.12 566.417Z" fill="#C6BAA8"/>
</g>
</g>
<mask id="mask74_11_13569" style="mask-type:luminance" maskUnits="userSpaceOnUse" x="239" y="570" width="128" height="35">
<path d="M239.912 570.094H366.578V604.76H239.912V570.094Z" fill="white"/>
</mask>
<g mask="url(#mask74_11_13569)">
<mask id="mask75_11_13569" style="mask-type:luminance" maskUnits="userSpaceOnUse" x="3" y="3" width="602" height="602">
<path d="M303.907 3.15625C470 3.15625 604.651 137.807 604.651 303.906C604.651 470 470 604.656 303.907 604.656C137.802 604.656 3.15649 470 3.15649 303.906C3.15649 137.807 137.802 3.15625 303.907 3.15625Z" fill="white"/>
</mask>
<g mask="url(#mask75_11_13569)">
<path d="M303.12 695.865C268.537 695.865 240.401 667.734 240.401 633.146C240.401 598.562 268.537 570.427 303.12 570.427C337.709 570.427 365.839 598.562 365.839 633.146C365.839 667.734 337.709 695.865 303.12 695.865ZM303.12 576.74C272.016 576.74 246.714 602.042 246.714 633.146C246.714 664.25 272.016 689.557 303.12 689.557C334.224 689.557 359.532 664.25 359.532 633.146C359.532 602.042 334.224 576.74 303.12 576.74Z" fill="#C6BAA8"/>
</g>
</g>
<mask id="mask76_11_13569" style="mask-type:luminance" maskUnits="userSpaceOnUse" x="250" y="579" width="106" height="26">
<path d="M250.578 579.427H355.911V604.761H250.578V579.427Z" fill="white"/>
</mask>
<g mask="url(#mask76_11_13569)">
<mask id="mask77_11_13569" style="mask-type:luminance" maskUnits="userSpaceOnUse" x="3" y="3" width="602" height="602">
<path d="M303.906 3.15649C470 3.15649 604.651 137.808 604.651 303.907C604.651 470 470 604.657 303.906 604.657C137.802 604.657 3.15625 470 3.15625 303.907C3.15625 137.808 137.802 3.15649 303.906 3.15649Z" fill="white"/>
</mask>
<g mask="url(#mask77_11_13569)">
<path d="M303.12 685.547C274.229 685.547 250.729 662.037 250.729 633.146C250.729 604.261 274.229 580.755 303.12 580.755C332.01 580.755 355.515 604.261 355.515 633.146C355.515 662.037 332.01 685.547 303.12 685.547ZM303.12 587.068C277.713 587.068 257.036 607.74 257.036 633.146C257.036 658.563 277.713 679.235 303.12 679.235C328.531 679.235 349.208 658.563 349.208 633.146C349.208 607.74 328.531 587.068 303.12 587.068Z" fill="#C6BAA8"/>
</g>
</g>
<mask id="mask78_11_13569" style="mask-type:luminance" maskUnits="userSpaceOnUse" x="259" y="590" width="87" height="15">
<path d="M259.912 590.094H345.245V604.76H259.912V590.094Z" fill="white"/>
</mask>
<g mask="url(#mask78_11_13569)">
<mask id="mask79_11_13569" style="mask-type:luminance" maskUnits="userSpaceOnUse" x="3" y="3" width="602" height="602">
<path d="M303.907 3.15625C470 3.15625 604.651 137.807 604.651 303.906C604.651 470 470 604.656 303.907 604.656C137.802 604.656 3.15649 470 3.15649 303.906C3.15649 137.807 137.802 3.15625 303.907 3.15625Z" fill="white"/>
</mask>
<g mask="url(#mask79_11_13569)">
<path d="M303.12 675.219C279.922 675.219 261.047 656.344 261.047 633.146C261.047 609.948 279.922 591.078 303.12 591.078C326.323 591.078 345.193 609.948 345.193 633.146C345.193 656.344 326.323 675.219 303.12 675.219ZM303.12 597.385C283.401 597.385 267.36 613.432 267.36 633.146C267.36 652.865 283.401 668.906 303.12 668.906C322.844 668.906 338.886 652.865 338.886 633.146C338.886 613.432 322.844 597.385 303.12 597.385Z" fill="#C6BAA8"/>
</g>
</g>
<mask id="mask80_11_13569" style="mask-type:luminance" maskUnits="userSpaceOnUse" x="270" y="600" width="66" height="5">
<path d="M270.578 600.76H335.911V604.76H270.578V600.76Z" fill="white"/>
</mask>
<g mask="url(#mask80_11_13569)">
<mask id="mask81_11_13569" style="mask-type:luminance" maskUnits="userSpaceOnUse" x="3" y="3" width="602" height="602">
<path d="M303.906 3.15601C470 3.15601 604.651 137.807 604.651 303.906C604.651 470 470 604.656 303.906 604.656C137.802 604.656 3.15625 470 3.15625 303.906C3.15625 137.807 137.802 3.15601 303.906 3.15601Z" fill="white"/>
</mask>
<g mask="url(#mask81_11_13569)">
<path d="M303.12 664.896C285.615 664.896 271.375 650.656 271.375 633.146C271.375 615.64 285.615 601.401 303.12 601.401C320.625 601.401 334.87 615.64 334.87 633.146C334.87 650.656 320.63 664.896 303.12 664.896ZM303.12 607.708C289.099 607.708 277.688 619.125 277.688 633.146C277.688 647.172 289.099 658.588 303.12 658.588C317.146 658.588 328.557 647.172 328.557 633.146C328.557 619.125 317.146 607.708 303.12 607.708Z" fill="#C6BAA8"/>
</g>
</g>
<mask id="mask82_11_13569" style="mask-type:luminance" maskUnits="userSpaceOnUse" x="183" y="463" width="240" height="38">
<path d="M183.912 463.427H422.578V500.761H183.912V463.427Z" fill="white"/>
</mask>
<g mask="url(#mask82_11_13569)">
<mask id="mask83_11_13569" style="mask-type:luminance" maskUnits="userSpaceOnUse" x="3" y="3" width="602" height="602">
<path d="M303.907 3.15649C470 3.15649 604.651 137.808 604.651 303.907C604.651 470 470 604.657 303.907 604.657C137.802 604.657 3.15649 470 3.15649 303.907C3.15649 137.808 137.802 3.15649 303.907 3.15649Z" fill="white"/>
</mask>
<g mask="url(#mask83_11_13569)">
<path d="M346.172 500.657L344.594 500.167C317.933 491.828 288.646 491.756 261.948 499.948L260.391 500.427L259.094 499.427C237.495 482.74 211.693 472.844 184.485 470.808L184.959 464.511C212.86 466.604 239.344 476.599 261.662 493.443C288.604 485.506 317.985 485.573 344.912 493.662C367.276 476.693 393.865 466.62 421.901 464.511L422.37 470.808C395.026 472.86 369.13 482.834 347.474 499.646L346.172 500.657Z" fill="#C6BAA8"/>
</g>
</g>
<mask id="mask84_11_13569" style="mask-type:luminance" maskUnits="userSpaceOnUse" x="255" y="231" width="92" height="62">
<path d="M255.912 231.427H346.578V292.761H255.912V231.427Z" fill="white"/>
</mask>
<g mask="url(#mask84_11_13569)">
<mask id="mask85_11_13569" style="mask-type:luminance" maskUnits="userSpaceOnUse" x="3" y="3" width="602" height="602">
<path d="M303.907 3.15625C470 3.15625 604.651 137.807 604.651 303.906C604.651 470 470 604.656 303.907 604.656C137.802 604.656 3.15649 470 3.15649 303.906C3.15649 137.807 137.802 3.15625 303.907 3.15625Z" fill="white"/>
</mask>
<g mask="url(#mask85_11_13569)">
<path d="M342.526 232.234L345.906 237.557L260.349 291.875L256.969 286.552L342.526 232.234Z" fill="#C6BAA8"/>
</g>
</g>
<mask id="mask86_11_13569" style="mask-type:luminance" maskUnits="userSpaceOnUse" x="251" y="278" width="100" height="66">
<path d="M251.912 278.094H350.578V343.427H251.912V278.094Z" fill="white"/>
</mask>
<g mask="url(#mask86_11_13569)">
<mask id="mask87_11_13569" style="mask-type:luminance" maskUnits="userSpaceOnUse" x="3" y="3" width="602" height="602">
<path d="M303.907 3.15625C470 3.15625 604.651 137.807 604.651 303.906C604.651 470 470 604.656 303.907 604.656C137.802 604.656 3.15649 470 3.15649 303.906C3.15649 137.807 137.802 3.15625 303.907 3.15625Z" fill="white"/>
</mask>
<g mask="url(#mask87_11_13569)">
<path d="M345.969 278.583L349.349 283.906L256.532 342.818L253.151 337.495L345.969 278.583Z" fill="#C6BAA8"/>
</g>
</g>
<mask id="mask88_11_13569" style="mask-type:luminance" maskUnits="userSpaceOnUse" x="249" y="324" width="105" height="71">
<path d="M249.245 324.76H353.245V394.094H249.245V324.76Z" fill="white"/>
</mask>
<g mask="url(#mask88_11_13569)">
<mask id="mask89_11_13569" style="mask-type:luminance" maskUnits="userSpaceOnUse" x="3" y="3" width="602" height="602">
<path d="M303.907 3.15601C470.001 3.15601 604.652 137.807 604.652 303.906C604.652 470 470.001 604.656 303.907 604.656C137.803 604.656 3.15674 470 3.15674 303.906C3.15674 137.807 137.803 3.15601 303.907 3.15601Z" fill="white"/>
</mask>
<g mask="url(#mask89_11_13569)">
<path d="M349.412 324.896L352.792 330.218L252.735 393.744L249.354 388.422L349.412 324.896Z" fill="#C6BAA8"/>
</g>
</g>
<mask id="mask90_11_13569" style="mask-type:luminance" maskUnits="userSpaceOnUse" x="245" y="370" width="113" height="75">
<path d="M245.245 370.094H357.245V444.76H245.245V370.094Z" fill="white"/>
</mask>
<g mask="url(#mask90_11_13569)">
<mask id="mask91_11_13569" style="mask-type:luminance" maskUnits="userSpaceOnUse" x="3" y="3" width="602" height="602">
<path d="M303.907 3.15625C470.001 3.15625 604.652 137.807 604.652 303.906C604.652 470 470.001 604.656 303.907 604.656C137.803 604.656 3.15674 470 3.15674 303.906C3.15674 137.807 137.803 3.15625 303.907 3.15625Z" fill="white"/>
</mask>
<g mask="url(#mask91_11_13569)">
<path d="M352.881 371.219L356.261 376.542L248.954 444.693L245.579 439.37L352.881 371.219Z" fill="#C6BAA8"/>
</g>
</g>
<mask id="mask92_11_13569" style="mask-type:luminance" maskUnits="userSpaceOnUse" x="263" y="416" width="97" height="67">
<path d="M263.912 416.76H359.912V482.094H263.912V416.76Z" fill="white"/>
</mask>
<g mask="url(#mask92_11_13569)">
<mask id="mask93_11_13569" style="mask-type:luminance" maskUnits="userSpaceOnUse" x="3" y="3" width="602" height="602">
<path d="M303.907 3.15601C470 3.15601 604.651 137.807 604.651 303.906C604.651 470 470 604.656 303.907 604.656C137.802 604.656 3.15649 470 3.15649 303.906C3.15649 137.807 137.802 3.15601 303.907 3.15601Z" fill="white"/>
</mask>
<g mask="url(#mask93_11_13569)">
<path d="M356.349 417.573L359.729 422.896L267.448 481.552L264.068 476.229L356.349 417.573Z" fill="#C6BAA8"/>
</g>
</g>
<mask id="mask94_11_13569" style="mask-type:luminance" maskUnits="userSpaceOnUse" x="230" y="208" width="148" height="31">
<path d="M230.578 208.76H377.245V238.094H230.578V208.76Z" fill="white"/>
</mask>
<g mask="url(#mask94_11_13569)">
<mask id="mask95_11_13569" style="mask-type:luminance" maskUnits="userSpaceOnUse" x="3" y="3" width="602" height="602">
<path d="M303.906 3.15601C470 3.15601 604.651 137.807 604.651 303.906C604.651 470 470 604.656 303.906 604.656C137.802 604.656 3.15625 470 3.15625 303.906C3.15625 137.807 137.802 3.15601 303.906 3.15601Z" fill="white"/>
</mask>
<g mask="url(#mask95_11_13569)">
<path d="M371.057 238.021H235.922L230.88 209.187H376.099L371.057 238.021ZM241.219 231.713H365.755L368.594 215.489H238.385L241.219 231.713Z" fill="#C6BAA8"/>
</g>
</g>
<mask id="mask96_11_13569" style="mask-type:luminance" maskUnits="userSpaceOnUse" x="229" y="116" width="149" height="21">
<path d="M229.245 116.76H377.245V136.76H229.245V116.76Z" fill="white"/>
</mask>
<g mask="url(#mask96_11_13569)">
<mask id="mask97_11_13569" style="mask-type:luminance" maskUnits="userSpaceOnUse" x="3" y="3" width="602" height="602">
<path d="M303.907 3.15601C470.001 3.15601 604.652 137.807 604.652 303.906C604.652 470 470.001 604.656 303.907 604.656C137.803 604.656 3.15674 470 3.15674 303.906C3.15674 137.807 137.803 3.15601 303.907 3.15601Z" fill="white"/>
</mask>
<g mask="url(#mask97_11_13569)">
<path d="M376.537 136.463H230.302L236.162 117.177H370.677L376.537 136.463ZM238.823 130.151H368.016L366 123.494H240.844L238.823 130.151Z" fill="#C6BAA8"/>
</g>
</g>
<mask id="mask98_11_13569" style="mask-type:luminance" maskUnits="userSpaceOnUse" x="249" y="132" width="7" height="81">
<path d="M249.245 132.76H255.912V212.76H249.245V132.76Z" fill="white"/>
</mask>
<g mask="url(#mask98_11_13569)">
<mask id="mask99_11_13569" style="mask-type:luminance" maskUnits="userSpaceOnUse" x="3" y="3" width="602" height="602">
<path d="M303.907 3.15601C470.001 3.15601 604.652 137.807 604.652 303.906C604.652 470 470.001 604.656 303.907 604.656C137.803 604.656 3.15674 470 3.15674 303.906C3.15674 137.807 137.803 3.15601 303.907 3.15601Z" fill="white"/>
</mask>
<g mask="url(#mask99_11_13569)">
<path d="M249.302 133.312H255.573V212.385H249.302V133.312Z" fill="#C6BAA8"/>
</g>
</g>
<mask id="mask100_11_13569" style="mask-type:luminance" maskUnits="userSpaceOnUse" x="350" y="132" width="9" height="81">
<path d="M350.578 132.76H358.578V212.76H350.578V132.76Z" fill="white"/>
</mask>
<g mask="url(#mask100_11_13569)">
<mask id="mask101_11_13569" style="mask-type:luminance" maskUnits="userSpaceOnUse" x="3" y="3" width="602" height="602">
<path d="M303.906 3.15601C470 3.15601 604.651 137.807 604.651 303.906C604.651 470 470 604.656 303.906 604.656C137.802 604.656 3.15625 470 3.15625 303.906C3.15625 137.807 137.802 3.15601 303.906 3.15601Z" fill="white"/>
</mask>
<g mask="url(#mask101_11_13569)">
<path d="M351.422 133.312H357.688V212.385H351.422V133.312Z" fill="#C6BAA8"/>
</g>
</g>
<mask id="mask102_11_13569" style="mask-type:luminance" maskUnits="userSpaceOnUse" x="262" y="132" width="9" height="81">
<path d="M262.578 132.76H270.578V212.76H262.578V132.76Z" fill="white"/>
</mask>
<g mask="url(#mask102_11_13569)">
<mask id="mask103_11_13569" style="mask-type:luminance" maskUnits="userSpaceOnUse" x="3" y="3" width="602" height="602">
<path d="M303.906 3.15601C470 3.15601 604.651 137.807 604.651 303.906C604.651 470 470 604.656 303.906 604.656C137.802 604.656 3.15625 470 3.15625 303.906C3.15625 137.807 137.802 3.15601 303.906 3.15601Z" fill="white"/>
</mask>
<g mask="url(#mask103_11_13569)">
<path d="M262.963 133.312H269.286V212.385H262.963V133.312Z" fill="#C6BAA8"/>
</g>
</g>
<mask id="mask104_11_13569" style="mask-type:luminance" maskUnits="userSpaceOnUse" x="337" y="132" width="9" height="81">
<path d="M337.245 132.76H345.245V212.76H337.245V132.76Z" fill="white"/>
</mask>
<g mask="url(#mask104_11_13569)">
<mask id="mask105_11_13569" style="mask-type:luminance" maskUnits="userSpaceOnUse" x="3" y="3" width="602" height="602">
<path d="M303.907 3.15601C470 3.15601 604.651 137.807 604.651 303.906C604.651 470 470 604.656 303.907 604.656C137.802 604.656 3.15649 470 3.15649 303.906C3.15649 137.807 137.802 3.15601 303.907 3.15601Z" fill="white"/>
</mask>
<g mask="url(#mask105_11_13569)">
<path d="M337.776 133.312H344.099V212.385H337.776V133.312Z" fill="#C6BAA8"/>
</g>
</g>
<mask id="mask106_11_13569" style="mask-type:luminance" maskUnits="userSpaceOnUse" x="291" y="132" width="8" height="81">
<path d="M291.912 132.76H298.578V212.76H291.912V132.76Z" fill="white"/>
</mask>
<g mask="url(#mask106_11_13569)">
<mask id="mask107_11_13569" style="mask-type:luminance" maskUnits="userSpaceOnUse" x="3" y="3" width="602" height="602">
<path d="M303.907 3.15601C470 3.15601 604.651 137.807 604.651 303.906C604.651 470 470 604.656 303.907 604.656C137.802 604.656 3.15649 470 3.15649 303.906C3.15649 137.807 137.802 3.15601 303.907 3.15601Z" fill="white"/>
</mask>
<g mask="url(#mask107_11_13569)">
<path d="M292.172 133.536H298.495V212.609H292.172V133.536Z" fill="#C6BAA8"/>
</g>
</g>
<mask id="mask108_11_13569" style="mask-type:luminance" maskUnits="userSpaceOnUse" x="307" y="132" width="9" height="81">
<path d="M307.912 132.76H315.912V212.76H307.912V132.76Z" fill="white"/>
</mask>
<g mask="url(#mask108_11_13569)">
<mask id="mask109_11_13569" style="mask-type:luminance" maskUnits="userSpaceOnUse" x="3" y="3" width="602" height="602">
<path d="M303.907 3.15601C470 3.15601 604.651 137.807 604.651 303.906C604.651 470 470 604.656 303.907 604.656C137.802 604.656 3.15649 470 3.15649 303.906C3.15649 137.807 137.802 3.15601 303.907 3.15601Z" fill="white"/>
</mask>
<g mask="url(#mask109_11_13569)">
<path d="M308.922 133.536H315.245V212.609H308.922V133.536Z" fill="#C6BAA8"/>
</g>
</g>
<mask id="mask110_11_13569" style="mask-type:luminance" maskUnits="userSpaceOnUse" x="249" y="119" width="7" height="16">
<path d="M249.245 119.427H255.912V134.094H249.245V119.427Z" fill="white"/>
</mask>
<g mask="url(#mask110_11_13569)">
<mask id="mask111_11_13569" style="mask-type:luminance" maskUnits="userSpaceOnUse" x="3" y="3" width="602" height="602">
<path d="M303.907 3.15625C470.001 3.15625 604.652 137.807 604.652 303.906C604.652 470 470.001 604.656 303.907 604.656C137.803 604.656 3.15674 470 3.15674 303.906C3.15674 137.807 137.803 3.15625 303.907 3.15625Z" fill="white"/>
</mask>
<g mask="url(#mask111_11_13569)">
<path d="M249.349 120.302H255.641V133.271H249.349V120.302Z" fill="#C6BAA8"/>
</g>
</g>
<mask id="mask112_11_13569" style="mask-type:luminance" maskUnits="userSpaceOnUse" x="261" y="119" width="9" height="16">
<path d="M261.245 119.427H269.245V134.094H261.245V119.427Z" fill="white"/>
</mask>
<g mask="url(#mask112_11_13569)">
<mask id="mask113_11_13569" style="mask-type:luminance" maskUnits="userSpaceOnUse" x="3" y="3" width="602" height="602">
<path d="M303.907 3.15625C470.001 3.15625 604.652 137.807 604.652 303.906C604.652 470 470.001 604.656 303.907 604.656C137.803 604.656 3.15674 470 3.15674 303.906C3.15674 137.807 137.803 3.15625 303.907 3.15625Z" fill="white"/>
</mask>
<g mask="url(#mask113_11_13569)">
<path d="M262.11 120.302H268.407V133.271H262.11V120.302Z" fill="#C6BAA8"/>
</g>
</g>
<mask id="mask114_11_13569" style="mask-type:luminance" maskUnits="userSpaceOnUse" x="274" y="119" width="8" height="16">
<path d="M274.578 119.427H281.245V134.094H274.578V119.427Z" fill="white"/>
</mask>
<g mask="url(#mask114_11_13569)">
<mask id="mask115_11_13569" style="mask-type:luminance" maskUnits="userSpaceOnUse" x="3" y="3" width="602" height="602">
<path d="M303.906 3.15625C470 3.15625 604.651 137.807 604.651 303.906C604.651 470 470 604.656 303.906 604.656C137.802 604.656 3.15625 470 3.15625 303.906C3.15625 137.807 137.802 3.15625 303.906 3.15625Z" fill="white"/>
</mask>
<g mask="url(#mask115_11_13569)">
<path d="M274.875 120.302H281.167V133.271H274.875V120.302Z" fill="#C6BAA8"/>
</g>
</g>
<mask id="mask116_11_13569" style="mask-type:luminance" maskUnits="userSpaceOnUse" x="286" y="119" width="9" height="16">
<path d="M286.578 119.427H294.578V134.094H286.578V119.427Z" fill="white"/>
</mask>
<g mask="url(#mask116_11_13569)">
<mask id="mask117_11_13569" style="mask-type:luminance" maskUnits="userSpaceOnUse" x="3" y="3" width="602" height="602">
<path d="M303.906 3.15625C470 3.15625 604.651 137.807 604.651 303.906C604.651 470 470 604.656 303.906 604.656C137.802 604.656 3.15625 470 3.15625 303.906C3.15625 137.807 137.802 3.15625 303.906 3.15625Z" fill="white"/>
</mask>
<g mask="url(#mask117_11_13569)">
<path d="M287.641 120.302H293.932V133.271H287.641V120.302Z" fill="#C6BAA8"/>
</g>
</g>
<mask id="mask118_11_13569" style="mask-type:luminance" maskUnits="userSpaceOnUse" x="299" y="119" width="9" height="16">
<path d="M299.912 119.427H307.912V134.094H299.912V119.427Z" fill="white"/>
</mask>
<g mask="url(#mask118_11_13569)">
<mask id="mask119_11_13569" style="mask-type:luminance" maskUnits="userSpaceOnUse" x="3" y="3" width="602" height="602">
<path d="M303.907 3.15625C470 3.15625 604.651 137.807 604.651 303.906C604.651 470 470 604.656 303.907 604.656C137.802 604.656 3.15649 470 3.15649 303.906C3.15649 137.807 137.802 3.15625 303.907 3.15625Z" fill="white"/>
</mask>
<g mask="url(#mask119_11_13569)">
<path d="M300.406 120.302H306.703V133.271H300.406V120.302Z" fill="#C6BAA8"/>
</g>
</g>
<mask id="mask120_11_13569" style="mask-type:luminance" maskUnits="userSpaceOnUse" x="311" y="119" width="9" height="16">
<path d="M311.912 119.427H319.912V134.094H311.912V119.427Z" fill="white"/>
</mask>
<g mask="url(#mask120_11_13569)">
<mask id="mask121_11_13569" style="mask-type:luminance" maskUnits="userSpaceOnUse" x="3" y="3" width="602" height="602">
<path d="M303.907 3.15625C470 3.15625 604.651 137.807 604.651 303.906C604.651 470 470 604.656 303.907 604.656C137.802 604.656 3.15649 470 3.15649 303.906C3.15649 137.807 137.802 3.15625 303.907 3.15625Z" fill="white"/>
</mask>
<g mask="url(#mask121_11_13569)">
<path d="M313.172 120.302H319.469V133.271H313.172V120.302Z" fill="#C6BAA8"/>
</g>
</g>
<mask id="mask122_11_13569" style="mask-type:luminance" maskUnits="userSpaceOnUse" x="325" y="119" width="9" height="16">
<path d="M325.245 119.427H333.245V134.094H325.245V119.427Z" fill="white"/>
</mask>
<g mask="url(#mask122_11_13569)">
<mask id="mask123_11_13569" style="mask-type:luminance" maskUnits="userSpaceOnUse" x="3" y="3" width="602" height="602">
<path d="M303.907 3.15625C470.001 3.15625 604.652 137.807 604.652 303.906C604.652 470 470.001 604.656 303.907 604.656C137.803 604.656 3.15674 470 3.15674 303.906C3.15674 137.807 137.803 3.15625 303.907 3.15625Z" fill="white"/>
</mask>
<g mask="url(#mask123_11_13569)">
<path d="M325.933 120.302H332.229V133.271H325.933V120.302Z" fill="#C6BAA8"/>
</g>
</g>
<mask id="mask124_11_13569" style="mask-type:luminance" maskUnits="userSpaceOnUse" x="338" y="119" width="8" height="16">
<path d="M338.578 119.427H345.245V134.094H338.578V119.427Z" fill="white"/>
</mask>
<g mask="url(#mask124_11_13569)">
<mask id="mask125_11_13569" style="mask-type:luminance" maskUnits="userSpaceOnUse" x="3" y="3" width="602" height="602">
<path d="M303.906 3.15625C470 3.15625 604.651 137.807 604.651 303.906C604.651 470 470 604.656 303.906 604.656C137.802 604.656 3.15625 470 3.15625 303.906C3.15625 137.807 137.802 3.15625 303.906 3.15625Z" fill="white"/>
</mask>
<g mask="url(#mask125_11_13569)">
<path d="M338.698 120.302H344.995V133.271H338.698V120.302Z" fill="#C6BAA8"/>
</g>
</g>
<mask id="mask126_11_13569" style="mask-type:luminance" maskUnits="userSpaceOnUse" x="350" y="119" width="9" height="16">
<path d="M350.578 119.427H358.578V134.094H350.578V119.427Z" fill="white"/>
</mask>
<g mask="url(#mask126_11_13569)">
<mask id="mask127_11_13569" style="mask-type:luminance" maskUnits="userSpaceOnUse" x="3" y="3" width="602" height="602">
<path d="M303.906 3.15625C470 3.15625 604.651 137.807 604.651 303.906C604.651 470 470 604.656 303.906 604.656C137.802 604.656 3.15625 470 3.15625 303.906C3.15625 137.807 137.802 3.15625 303.906 3.15625Z" fill="white"/>
</mask>
<g mask="url(#mask127_11_13569)">
<path d="M351.464 120.302H357.76V133.271H351.464V120.302Z" fill="#C6BAA8"/>
</g>
</g>
<mask id="mask128_11_13569" style="mask-type:luminance" maskUnits="userSpaceOnUse" x="249" y="211" width="7" height="25">
<path d="M249.245 211.427H255.912V235.427H249.245V211.427Z" fill="white"/>
</mask>
<g mask="url(#mask128_11_13569)">
<mask id="mask129_11_13569" style="mask-type:luminance" maskUnits="userSpaceOnUse" x="3" y="3" width="602" height="602">
<path d="M303.907 3.15625C470.001 3.15625 604.652 137.807 604.652 303.906C604.652 470 470.001 604.656 303.907 604.656C137.803 604.656 3.15674 470 3.15674 303.906C3.15674 137.807 137.803 3.15625 303.907 3.15625Z" fill="white"/>
</mask>
<g mask="url(#mask129_11_13569)">
<path d="M249.334 212.292H255.657V234.828H249.334V212.292Z" fill="#C6BAA8"/>
</g>
</g>
<mask id="mask130_11_13569" style="mask-type:luminance" maskUnits="userSpaceOnUse" x="261" y="211" width="9" height="25">
<path d="M261.245 211.427H269.245V235.427H261.245V211.427Z" fill="white"/>
</mask>
<g mask="url(#mask130_11_13569)">
<mask id="mask131_11_13569" style="mask-type:luminance" maskUnits="userSpaceOnUse" x="3" y="3" width="602" height="602">
<path d="M303.907 3.15625C470.001 3.15625 604.652 137.807 604.652 303.906C604.652 470 470.001 604.656 303.907 604.656C137.803 604.656 3.15674 470 3.15674 303.906C3.15674 137.807 137.803 3.15625 303.907 3.15625Z" fill="white"/>
</mask>
<g mask="url(#mask131_11_13569)">
<path d="M262.094 212.292H268.417V234.828H262.094V212.292Z" fill="#C6BAA8"/>
</g>
</g>
<mask id="mask132_11_13569" style="mask-type:luminance" maskUnits="userSpaceOnUse" x="274" y="211" width="8" height="25">
<path d="M274.578 211.427H281.245V235.427H274.578V211.427Z" fill="white"/>
</mask>
<g mask="url(#mask132_11_13569)">
<mask id="mask133_11_13569" style="mask-type:luminance" maskUnits="userSpaceOnUse" x="3" y="3" width="602" height="602">
<path d="M303.906 3.15625C470 3.15625 604.651 137.807 604.651 303.906C604.651 470 470 604.656 303.906 604.656C137.802 604.656 3.15625 470 3.15625 303.906C3.15625 137.807 137.802 3.15625 303.906 3.15625Z" fill="white"/>
</mask>
<g mask="url(#mask133_11_13569)">
<path d="M274.859 212.292H281.182V234.828H274.859V212.292Z" fill="#C6BAA8"/>
</g>
</g>
<mask id="mask134_11_13569" style="mask-type:luminance" maskUnits="userSpaceOnUse" x="286" y="211" width="9" height="25">
<path d="M286.578 211.427H294.578V235.427H286.578V211.427Z" fill="white"/>
</mask>
<g mask="url(#mask134_11_13569)">
<mask id="mask135_11_13569" style="mask-type:luminance" maskUnits="userSpaceOnUse" x="3" y="3" width="602" height="602">
<path d="M303.906 3.15625C470 3.15625 604.651 137.807 604.651 303.906C604.651 470 470 604.656 303.906 604.656C137.802 604.656 3.15625 470 3.15625 303.906C3.15625 137.807 137.802 3.15625 303.906 3.15625Z" fill="white"/>
</mask>
<g mask="url(#mask135_11_13569)">
<path d="M287.625 212.292H293.948V234.828H287.625V212.292Z" fill="#C6BAA8"/>
</g>
</g>
<mask id="mask136_11_13569" style="mask-type:luminance" maskUnits="userSpaceOnUse" x="299" y="211" width="9" height="25">
<path d="M299.912 211.427H307.912V235.427H299.912V211.427Z" fill="white"/>
</mask>
<g mask="url(#mask136_11_13569)">
<mask id="mask137_11_13569" style="mask-type:luminance" maskUnits="userSpaceOnUse" x="3" y="3" width="602" height="602">
<path d="M303.907 3.15625C470 3.15625 604.651 137.807 604.651 303.906C604.651 470 470 604.656 303.907 604.656C137.802 604.656 3.15649 470 3.15649 303.906C3.15649 137.807 137.802 3.15625 303.907 3.15625Z" fill="white"/>
</mask>
<g mask="url(#mask137_11_13569)">
<path d="M300.391 212.292H306.714V234.828H300.391V212.292Z" fill="#C6BAA8"/>
</g>
</g>
<mask id="mask138_11_13569" style="mask-type:luminance" maskUnits="userSpaceOnUse" x="311" y="211" width="9" height="25">
<path d="M311.912 211.427H319.912V235.427H311.912V211.427Z" fill="white"/>
</mask>
<g mask="url(#mask138_11_13569)">
<mask id="mask139_11_13569" style="mask-type:luminance" maskUnits="userSpaceOnUse" x="3" y="3" width="602" height="602">
<path d="M303.907 3.15625C470 3.15625 604.651 137.807 604.651 303.906C604.651 470 470 604.656 303.907 604.656C137.802 604.656 3.15649 470 3.15649 303.906C3.15649 137.807 137.802 3.15625 303.907 3.15625Z" fill="white"/>
</mask>
<g mask="url(#mask139_11_13569)">
<path d="M313.156 212.292H319.479V234.828H313.156V212.292Z" fill="#C6BAA8"/>
</g>
</g>
<mask id="mask140_11_13569" style="mask-type:luminance" maskUnits="userSpaceOnUse" x="325" y="211" width="9" height="25">
<path d="M325.245 211.427H333.245V235.427H325.245V211.427Z" fill="white"/>
</mask>
<g mask="url(#mask140_11_13569)">
<mask id="mask141_11_13569" style="mask-type:luminance" maskUnits="userSpaceOnUse" x="3" y="3" width="602" height="602">
<path d="M303.907 3.15625C470.001 3.15625 604.652 137.807 604.652 303.906C604.652 470 470.001 604.656 303.907 604.656C137.803 604.656 3.15674 470 3.15674 303.906C3.15674 137.807 137.803 3.15625 303.907 3.15625Z" fill="white"/>
</mask>
<g mask="url(#mask141_11_13569)">
<path d="M325.922 212.292H332.245V234.828H325.922V212.292Z" fill="#C6BAA8"/>
</g>
</g>
<mask id="mask142_11_13569" style="mask-type:luminance" maskUnits="userSpaceOnUse" x="338" y="211" width="8" height="25">
<path d="M338.578 211.427H345.245V235.427H338.578V211.427Z" fill="white"/>
</mask>
<g mask="url(#mask142_11_13569)">
<mask id="mask143_11_13569" style="mask-type:luminance" maskUnits="userSpaceOnUse" x="3" y="3" width="602" height="602">
<path d="M303.906 3.15625C470 3.15625 604.651 137.807 604.651 303.906C604.651 470 470 604.656 303.906 604.656C137.802 604.656 3.15625 470 3.15625 303.906C3.15625 137.807 137.802 3.15625 303.906 3.15625Z" fill="white"/>
</mask>
<g mask="url(#mask143_11_13569)">
<path d="M338.682 212.292H345.005V234.828H338.682V212.292Z" fill="#C6BAA8"/>
</g>
</g>
<mask id="mask144_11_13569" style="mask-type:luminance" maskUnits="userSpaceOnUse" x="350" y="211" width="9" height="25">
<path d="M350.578 211.427H358.578V235.427H350.578V211.427Z" fill="white"/>
</mask>
<g mask="url(#mask144_11_13569)">
<mask id="mask145_11_13569" style="mask-type:luminance" maskUnits="userSpaceOnUse" x="3" y="3" width="602" height="602">
<path d="M303.906 3.15625C470 3.15625 604.651 137.807 604.651 303.906C604.651 470 470 604.656 303.906 604.656C137.802 604.656 3.15625 470 3.15625 303.906C3.15625 137.807 137.802 3.15625 303.906 3.15625Z" fill="white"/>
</mask>
<g mask="url(#mask145_11_13569)">
<path d="M351.448 212.292H357.771V234.828H351.448V212.292Z" fill="#C6BAA8"/>
</g>
</g>
<mask id="mask146_11_13569" style="mask-type:luminance" maskUnits="userSpaceOnUse" x="299" y="42" width="45" height="37">
<path d="M299.912 42.0938H343.912V78.0938H299.912V42.0938Z" fill="white"/>
</mask>
<g mask="url(#mask146_11_13569)">
<mask id="mask147_11_13569" style="mask-type:luminance" maskUnits="userSpaceOnUse" x="3" y="3" width="602" height="602">
<path d="M303.907 3.15625C470 3.15625 604.651 137.807 604.651 303.906C604.651 470 470 604.656 303.907 604.656C137.802 604.656 3.15649 470 3.15649 303.906C3.15649 137.807 137.802 3.15625 303.907 3.15625Z" fill="white"/>
</mask>
<g mask="url(#mask147_11_13569)">
<path d="M306.578 76.8906H300.271V42.8438H342.688L332.688 52.8385L342.688 62.8281H312.427V56.5156H327.443L323.761 52.8385L327.443 49.1563H306.578V76.8906Z" fill="#C6BAA8"/>
</g>
</g>
<mask id="mask148_11_13569" style="mask-type:luminance" maskUnits="userSpaceOnUse" x="0" y="0" width="608" height="608">
<path d="M0 0H607.911V608H0V0Z" fill="white"/>
</mask>
<g mask="url(#mask148_11_13569)">
<path d="M514.333 93.474C460.484 39.6198 386.083 6.30729 303.906 6.30729C221.724 6.30729 147.323 39.6198 93.474 93.474C39.625 147.328 6.30729 221.724 6.30729 303.906C6.30729 386.089 39.6198 460.484 93.474 514.339C147.323 568.188 221.724 601.5 303.906 601.5C386.083 601.5 460.479 568.188 514.333 514.339C568.188 460.484 601.495 386.083 601.495 303.906C601.5 221.724 568.188 147.328 514.333 93.474ZM303.906 0C387.823 0 463.802 34.0156 518.797 89.0156C573.797 144.01 607.813 219.984 607.813 303.906C607.813 387.823 573.797 463.802 518.797 518.797C463.802 573.797 387.823 607.813 303.906 607.813C219.984 607.813 144.005 573.797 89.0104 518.797C34.0156 463.802 0 387.823 0 303.906C0 219.984 34.0156 144.01 89.0104 89.0156C144.005 34.0156 219.984 0 303.906 0Z" fill="#C6BAA8"/>
</g>
<path d="M86.724 488.516C65.1563 463.172 47.9479 434.026 36.2552 402.24C24.9896 371.578 18.8281 338.453 18.8281 303.906C18.8281 225.188 50.7396 153.917 102.328 102.328C153.917 50.7397 225.188 18.8335 303.906 18.8335C382.625 18.8335 453.896 50.7397 505.479 102.333C557.068 153.917 588.974 225.188 588.974 303.906C588.974 338.453 582.823 371.573 571.552 402.235C559.865 434.026 542.651 463.172 521.083 488.516L516.302 484.448C537.365 459.693 554.188 431.188 565.63 400.063C576.651 370.099 582.667 337.714 582.667 303.906C582.667 226.927 551.464 157.235 501.021 106.792C450.573 56.3439 380.88 25.146 303.906 25.146C226.927 25.146 157.24 56.3439 106.792 106.792C56.3438 157.235 25.1458 226.927 25.1458 303.906C25.1458 337.714 31.1615 370.104 42.1771 400.068C53.6198 431.193 70.4427 459.698 91.5052 484.448L86.724 488.516Z" fill="#C6BAA8"/>
<path d="M120.042 330.406C117.068 333.849 113.354 336.661 109.157 338.583C105.104 340.437 100.61 341.479 95.8962 341.479C87.0993 341.479 79.1305 337.906 73.3597 332.135C67.5784 326.364 64.0107 318.39 64.0107 309.588C64.0107 300.786 67.5785 292.807 73.3493 287.036C79.1357 281.271 87.0993 277.698 95.8962 277.698C98.1201 277.698 100.323 277.937 102.464 278.385C104.662 278.849 106.761 279.526 108.745 280.401L106.209 286.172C104.599 285.463 102.912 284.917 101.183 284.552C99.5003 284.198 97.7347 284.015 95.8962 284.015C88.8285 284.015 82.4378 286.875 77.8024 291.495C73.1878 296.13 70.3232 302.526 70.3232 309.588C70.3232 316.651 73.1878 323.047 77.8128 327.672C82.4378 332.302 88.8285 335.167 95.8962 335.167C99.7139 335.167 103.318 334.338 106.547 332.859C109.907 331.318 112.886 329.062 115.282 326.286L120.042 330.406Z" fill="#C6BAA8"/>
<path d="M106.214 295.203C105.536 293.667 105.005 292.026 104.646 290.313C104.297 288.635 104.109 286.927 104.109 285.198C104.109 278.333 106.896 272.12 111.391 267.625C115.885 263.125 122.104 260.344 128.969 260.344C133.734 260.344 138.188 261.687 141.974 264.016C145.875 266.417 149.073 269.88 151.156 274.005L145.531 276.839C143.984 273.776 141.594 271.193 138.672 269.391C135.854 267.656 132.526 266.656 128.969 266.656C123.849 266.656 119.208 268.729 115.854 272.083C112.505 275.437 110.427 280.078 110.427 285.198C110.427 286.536 110.563 287.818 110.813 289.031C111.073 290.276 111.474 291.495 111.984 292.667L106.214 295.203Z" fill="#C6BAA8"/>
<path d="M138.912 276.557C140.36 275.224 142.068 274.146 143.938 273.411C145.761 272.703 147.724 272.312 149.766 272.312C154.182 272.312 158.188 274.109 161.089 277.005L161.104 277.021C164 279.922 165.797 283.927 165.797 288.339L165.761 289.271C165.74 289.516 165.667 290.656 165.573 290.948C164.943 294.786 162.953 298.161 160.12 300.563C157.328 302.938 153.708 304.37 149.771 304.37V298.052C152.172 298.052 154.365 297.187 156.052 295.755C157.761 294.307 158.964 292.276 159.354 289.979L159.427 289.479L159.474 288.906L159.479 288.339C159.479 285.656 158.396 283.219 156.646 281.464C154.891 279.714 152.453 278.63 149.771 278.63C148.511 278.63 147.323 278.859 146.24 279.281C145.099 279.729 144.068 280.38 143.182 281.198L138.912 276.557Z" fill="#C6BAA8"/>
<path d="M165.495 322.609C165.495 332.104 161.636 340.714 155.412 346.943L155.396 346.953C149.167 353.182 140.563 357.042 131.063 357.042C124.511 357.042 118.375 355.198 113.146 352.005C107.75 348.714 103.334 343.974 100.433 338.328L106.032 335.448C108.401 340.062 112.016 343.937 116.422 346.63C120.677 349.229 125.693 350.724 131.063 350.724C138.828 350.724 145.865 347.578 150.953 342.495C156.032 337.406 159.177 330.375 159.177 322.609H165.495Z" fill="#C6BAA8"/>
<path d="M162.016 287.24C162.849 287.057 163.724 286.917 164.63 286.823C165.557 286.729 166.437 286.677 167.276 286.677C174.214 286.677 180.495 289.495 185.052 294.047L185.063 294.057C189.609 298.61 192.427 304.896 192.427 311.833C192.427 318.781 189.615 325.068 185.063 329.62C180.495 334.167 174.214 336.99 167.276 336.99C166.026 336.99 164.776 336.891 163.542 336.708C162.328 336.526 161.104 336.24 159.891 335.87L161.719 329.854C162.568 330.115 163.484 330.323 164.453 330.469C165.354 330.599 166.302 330.672 167.276 330.672C172.479 330.672 177.198 328.563 180.604 325.162C184.005 321.75 186.115 317.037 186.115 311.833C186.115 306.63 184.01 301.917 180.604 298.505C177.198 295.099 172.479 292.99 167.276 292.99C166.542 292.99 165.875 293.021 165.276 293.089C164.641 293.156 163.984 293.261 163.318 293.401L162.016 287.24Z" fill="#C6BAA8"/>
<path d="M492.526 326.286C494.922 329.062 497.901 331.318 501.261 332.859C504.49 334.338 508.094 335.167 511.912 335.167C518.974 335.167 525.37 332.302 529.995 327.672C534.62 323.047 537.485 316.651 537.485 309.588C537.485 302.526 534.62 296.13 529.995 291.505C525.37 286.88 518.974 284.015 511.912 284.015C510.073 284.015 508.302 284.198 506.625 284.552C504.891 284.917 503.208 285.463 501.604 286.172L499.063 280.401C501.042 279.526 503.146 278.849 505.344 278.385C507.485 277.937 509.682 277.698 511.912 277.698C520.714 277.698 528.693 281.271 534.458 287.036C540.229 292.807 543.797 300.786 543.797 309.588C543.797 318.39 540.229 326.364 534.458 332.135C528.693 337.906 520.714 341.479 511.912 341.479C507.198 341.479 502.703 340.437 498.651 338.583C494.453 336.661 490.74 333.849 487.771 330.406L492.526 326.286Z" fill="#C6BAA8"/>
<path d="M495.823 292.667C496.334 291.495 496.729 290.281 496.995 289.031C497.245 287.823 497.381 286.536 497.381 285.198C497.381 280.078 495.302 275.437 491.948 272.083C488.594 268.729 483.959 266.656 478.839 266.656C475.282 266.656 471.953 267.656 469.136 269.391C466.214 271.193 463.823 273.776 462.271 276.839L456.651 274.005C458.735 269.88 461.927 266.417 465.834 264.016C469.62 261.687 474.078 260.344 478.839 260.344C485.703 260.344 491.917 263.125 496.412 267.625C500.912 272.12 503.698 278.333 503.698 285.198C503.698 286.927 503.511 288.635 503.162 290.313C502.802 292.026 502.271 293.667 501.594 295.203L495.823 292.667Z" fill="#C6BAA8"/>
<path d="M464.63 281.198C463.745 280.38 462.708 279.724 461.573 279.281C460.49 278.859 459.297 278.63 458.036 278.63C455.359 278.63 452.927 279.714 451.172 281.469C449.417 283.219 448.328 285.651 448.328 288.339C448.333 288.911 448.354 289.406 448.458 289.974C448.844 292.276 450.047 294.307 451.755 295.755C453.443 297.188 455.635 298.052 458.036 298.052V304.365C454.099 304.365 450.484 302.938 447.688 300.563C444.854 298.156 442.865 294.781 442.234 290.948C442.141 290.656 442.073 289.526 442.052 289.276L442.016 288.339C442.016 283.922 443.813 279.922 446.708 277.016C449.609 274.109 453.615 272.312 458.036 272.312C460.078 272.312 462.047 272.698 463.865 273.411C465.745 274.141 467.448 275.224 468.896 276.557L464.63 281.198Z" fill="#C6BAA8"/>
<path d="M448.63 322.609C448.63 330.37 451.776 337.401 456.859 342.49C461.943 347.578 468.974 350.724 476.745 350.724C482.115 350.724 487.13 349.229 491.38 346.63C495.792 343.937 499.401 340.057 501.776 335.443L507.375 338.328C504.474 343.974 500.052 348.708 494.661 352.005C489.427 355.193 483.297 357.042 476.745 357.042C467.245 357.042 458.641 353.182 452.406 346.953C446.167 340.724 442.312 332.109 442.312 322.609H448.63Z" fill="#C6BAA8"/>
<path d="M444.485 293.401C443.823 293.261 443.172 293.151 442.531 293.089C441.932 293.021 441.266 292.99 440.531 292.99C435.323 292.99 430.615 295.099 427.203 298.5C423.802 301.912 421.693 306.625 421.693 311.833C421.693 317.037 423.802 321.745 427.208 325.156C430.615 328.563 435.323 330.672 440.531 330.672C441.511 330.672 442.453 330.599 443.354 330.464C444.302 330.328 445.214 330.115 446.078 329.854L447.927 335.87C446.724 336.235 445.495 336.521 444.266 336.703C443.026 336.886 441.781 336.985 440.531 336.985C433.594 336.985 427.307 334.167 422.761 329.615C418.193 325.068 415.38 318.776 415.38 311.833C415.38 304.896 418.193 298.61 422.745 294.057L422.761 294.047C427.307 289.495 433.594 286.677 440.531 286.677C441.365 286.677 442.25 286.729 443.172 286.823C444.083 286.917 444.958 287.057 445.792 287.235L444.485 293.401Z" fill="#C6BAA8"/>
<path d="M865 185.167H915.08C940.256 185.167 958.736 190.343 970.501 200.686C982.266 211.01 988.149 227.845 988.149 251.192C988.149 283.141 977.913 302.492 957.459 309.245L992.755 433.942H959.278L926.729 317.218H899.716V433.942H865V185.167ZM912.913 292.371C927.852 292.371 938.543 289.41 944.997 283.47C951.441 277.51 954.672 266.75 954.672 251.192C954.672 240.956 953.55 232.915 951.305 227.081C949.06 221.256 945.055 216.961 939.307 214.193C933.58 211.436 925.501 210.052 915.08 210.052H899.716V292.371H912.913Z" fill="#C6BAA8"/>
<path d="M1079.08 185.167H1112.55L1165.69 433.942H1132.83L1121.46 371.284H1070.8L1058.8 433.942H1026.25L1079.08 185.167ZM1116.85 346.399L1095.95 234.318L1075.4 346.399H1116.85Z" fill="#C6BAA8"/>
<path d="M1208.08 185.167H1242.14V433.942H1208.08V185.167Z" fill="#C6BAA8"/>
<path d="M1356.42 436.69C1335.52 436.69 1319.58 430.247 1308.62 417.339C1297.68 404.442 1291.6 386.746 1290.39 364.241L1321.08 355.92C1322.11 371.894 1325.23 384.791 1330.45 394.621C1335.68 404.452 1344.34 409.367 1356.42 409.367C1365.42 409.367 1372.22 406.871 1376.81 401.859C1381.43 396.827 1383.74 389.61 1383.74 380.186C1383.74 369.949 1381.58 361.454 1377.28 354.72C1372.99 347.966 1366.14 340.478 1356.73 332.273L1314.93 295.429C1306.54 288.056 1300.46 280.122 1296.66 271.627C1292.87 263.113 1290.97 252.721 1290.97 240.433C1290.97 222.224 1296.2 208.098 1306.65 198.055C1317.1 188.022 1331.32 183 1349.34 183C1369 183 1383.84 188.225 1393.88 198.674C1403.92 209.124 1409.95 225.301 1411.99 247.206L1382.5 255.179C1381.5 240.656 1378.68 229.462 1374.07 221.586C1369.47 213.691 1361.23 209.743 1349.34 209.743C1340.53 209.743 1333.78 212.055 1329.06 216.671C1324.35 221.266 1322.01 228.068 1322.01 237.066C1322.01 244.449 1323.23 250.651 1325.69 255.682C1328.14 260.694 1332.35 265.744 1338.31 270.853L1380.37 307.697C1391.21 317.324 1399.85 327.774 1406.3 339.046C1412.75 350.298 1415.98 363.099 1415.98 377.438C1415.98 395.657 1410.45 410.093 1399.38 420.745C1388.33 431.379 1374.01 436.69 1356.42 436.69Z" fill="#C6BAA8"/>
<path d="M1460.23 185.167H1494.29V433.942H1460.23V185.167Z" fill="#C6BAA8"/>
<path d="M1549.9 185.167H1573.55L1644.18 350.385V185.167H1673.05V433.942H1650.95L1579.39 264.08V433.942H1549.9V185.167Z" fill="#C6BAA8"/>
<path d="M1786.71 437C1764.19 437 1747.91 429.898 1737.87 415.675C1727.83 401.433 1722.82 380.292 1722.82 352.243V268.995C1722.82 249.751 1724.8 233.932 1728.78 221.547C1732.77 209.162 1739.63 199.642 1749.37 192.985C1759.09 186.328 1772.45 183 1789.46 183C1812.39 183 1828.94 188.844 1839.08 200.532C1849.22 212.201 1854.29 230.516 1854.29 255.488V264.7H1821.7V257.037C1821.7 245.174 1820.97 236.012 1819.53 229.558C1818.11 223.114 1815.09 218.248 1810.48 214.968C1805.88 211.697 1799.08 210.053 1790.08 210.053C1780.45 210.053 1773.28 212.259 1768.56 216.671C1763.86 221.063 1760.84 226.946 1759.51 234.319C1758.19 241.672 1757.53 251.493 1757.53 263.771V355.92C1757.53 374.961 1759.83 388.642 1764.42 396.944C1769.04 405.226 1777.9 409.367 1791.01 409.367C1803.91 409.367 1812.76 404.868 1817.56 395.86C1822.38 386.862 1824.8 372.426 1824.8 352.553V335.369H1793.14V310.793H1856.11V433.943H1834.32L1830.91 405.381C1823.14 426.463 1808.41 437 1786.71 437Z" fill="#C6BAA8"/>
<path d="M2032.1 185.167H2065.58L2118.72 433.942H2085.86L2074.48 371.284H2023.82L2011.82 433.942H1979.28L2032.1 185.167ZM2069.88 346.399L2048.98 234.318L2028.43 346.399H2069.88Z" fill="#C6BAA8"/>
<path d="M2186.57 210.942H2144.5V185.167H2262.16V210.942H2221.29V433.942H2186.57V210.942Z" fill="#C6BAA8"/>
<path d="M2301.45 185.167H2336.16V409.057H2399.71V433.942H2301.45V185.167Z" fill="#C6BAA8"/>
<path d="M2478.06 185.167H2511.53L2564.67 433.942H2531.81L2520.44 371.284H2469.78L2457.78 433.942H2425.23L2478.06 185.167ZM2515.83 346.399L2494.93 234.318L2474.38 346.399H2515.83Z" fill="#C6BAA8"/>
<path d="M2605.2 185.167H2628.85L2699.48 350.385V185.167H2728.35V433.942H2706.25L2634.69 264.08V433.942H2605.2V185.167Z" fill="#C6BAA8"/>
<path d="M2810.04 210.942H2767.98V185.167H2885.63V210.942H2844.76V433.942H2810.04V210.942Z" fill="#C6BAA8"/>
<path d="M2926.78 185.167H2960.84V433.942H2926.78V185.167Z" fill="#C6BAA8"/>
<path d="M3078.8 436.69C3054.23 436.69 3036.93 429.376 3026.9 414.746C3016.85 400.117 3011.84 379.905 3011.84 354.101V266.248C3011.84 239.002 3016.76 218.325 3026.59 204.209C3036.42 190.073 3053.81 183 3078.8 183C3101.11 183 3117.13 189.057 3126.86 201.151C3136.59 213.226 3141.46 231.029 3141.46 254.56V274.22H3108.6V256.727C3108.6 245.271 3108.07 236.476 3107.05 230.332C3106.01 224.169 3103.39 219.254 3099.19 215.587C3095.01 211.901 3088.32 210.053 3079.11 210.053C3069.68 210.053 3062.67 212.055 3058.05 216.051C3053.46 220.028 3050.44 225.553 3049 232.616C3047.57 239.688 3046.87 249.161 3046.87 261.023V359.596C3046.87 372.32 3047.88 382.266 3049.93 389.435C3051.96 396.586 3055.28 401.694 3059.87 404.761C3064.49 407.838 3070.9 409.367 3079.11 409.367C3087.9 409.367 3094.44 407.432 3098.73 403.562C3103.03 399.672 3105.75 394.341 3106.89 387.578C3108.03 380.824 3108.6 371.594 3108.6 359.906V341.484H3141.46V359.906C3141.46 384.704 3136.79 403.707 3127.48 416.914C3118.17 430.101 3101.94 436.69 3078.8 436.69Z" fill="#C6BAA8"/>
</svg>
