<svg width="1226" height="863" viewBox="0 0 1226 863" fill="none" xmlns="http://www.w3.org/2000/svg">
<mask id="mask0_1_5012" style="mask-type:luminance" maskUnits="userSpaceOnUse" x="548" y="231" width="125" height="240">
<path d="M548.562 231.427H672.562V470.094H548.562V231.427Z" fill="white"/>
</mask>
<g mask="url(#mask0_1_5012)">
<mask id="mask1_1_5012" style="mask-type:luminance" maskUnits="userSpaceOnUse" x="310" y="3" width="602" height="602">
<path d="M611.224 3.15625C777.318 3.15625 911.969 137.807 911.969 303.906C911.969 470 777.318 604.656 611.224 604.656C445.12 604.656 310.474 470 310.474 303.906C310.474 137.807 445.12 3.15625 611.224 3.15625Z" fill="white"/>
</mask>
<g mask="url(#mask1_1_5012)">
<path d="M665.792 469.349L648.542 238.078H572.88L555.635 469.349L549.349 468.88L567.031 231.771H654.391L672.078 468.88L665.792 469.349Z" fill="#C6BAA8"/>
</g>
</g>
<mask id="mask2_1_5012" style="mask-type:luminance" maskUnits="userSpaceOnUse" x="521" y="72" width="179" height="53">
<path d="M521.896 72.7605H699.229V124.76H521.896V72.7605Z" fill="white"/>
</mask>
<g mask="url(#mask2_1_5012)">
<mask id="mask3_1_5012" style="mask-type:luminance" maskUnits="userSpaceOnUse" x="310" y="3" width="602" height="602">
<path d="M611.224 3.15625C777.318 3.15625 911.969 137.807 911.969 303.906C911.969 470 777.318 604.656 611.224 604.656C445.12 604.656 310.474 470 310.474 303.906C310.474 137.807 445.12 3.15625 611.224 3.15625Z" fill="white"/>
</mask>
<g mask="url(#mask3_1_5012)">
<path d="M699.016 123.464H522.844L610.927 73.2449L699.016 123.464ZM546.604 117.162H675.255L610.927 80.4949L546.604 117.162Z" fill="#C6BAA8"/>
</g>
</g>
<mask id="mask4_1_5012" style="mask-type:luminance" maskUnits="userSpaceOnUse" x="685" y="168" width="68" height="9">
<path d="M685.896 168.76H752.562V176.76H685.896V168.76Z" fill="white"/>
</mask>
<g mask="url(#mask4_1_5012)">
<mask id="mask5_1_5012" style="mask-type:luminance" maskUnits="userSpaceOnUse" x="310" y="3" width="602" height="602">
<path d="M611.224 3.15625C777.318 3.15625 911.969 137.807 911.969 303.906C911.969 470 777.318 604.656 611.224 604.656C445.12 604.656 310.474 470 310.474 303.906C310.474 137.807 445.12 3.15625 611.224 3.15625Z" fill="white"/>
</mask>
<g mask="url(#mask5_1_5012)">
<path d="M685.964 169.578H751.938V175.901H685.964V169.578Z" fill="#C6BAA8"/>
</g>
</g>
<mask id="mask6_1_5012" style="mask-type:luminance" maskUnits="userSpaceOnUse" x="683" y="127" width="67" height="34">
<path d="M683.229 127.427H749.896V160.76H683.229V127.427Z" fill="white"/>
</mask>
<g mask="url(#mask6_1_5012)">
<mask id="mask7_1_5012" style="mask-type:luminance" maskUnits="userSpaceOnUse" x="310" y="3" width="602" height="602">
<path d="M611.224 3.15625C777.318 3.15625 911.969 137.807 911.969 303.906C911.969 470 777.318 604.656 611.224 604.656C445.12 604.656 310.474 470 310.474 303.906C310.474 137.807 445.12 3.15625 611.224 3.15625Z" fill="white"/>
</mask>
<g mask="url(#mask7_1_5012)">
<path d="M747.005 128.24L749.365 134.109L685.646 159.703L683.286 153.833L747.005 128.24Z" fill="#C6BAA8"/>
</g>
</g>
<mask id="mask8_1_5012" style="mask-type:luminance" maskUnits="userSpaceOnUse" x="683" y="184" width="67" height="35">
<path d="M683.229 184.76H749.896V218.094H683.229V184.76Z" fill="white"/>
</mask>
<g mask="url(#mask8_1_5012)">
<mask id="mask9_1_5012" style="mask-type:luminance" maskUnits="userSpaceOnUse" x="310" y="3" width="602" height="602">
<path d="M611.224 3.15625C777.318 3.15625 911.969 137.807 911.969 303.906C911.969 470 777.318 604.656 611.224 604.656C445.12 604.656 310.474 470 310.474 303.906C310.474 137.807 445.12 3.15625 611.224 3.15625Z" fill="white"/>
</mask>
<g mask="url(#mask9_1_5012)">
<path d="M685.859 185.812L749.583 211.385L747.229 217.25L683.505 191.682L685.859 185.812Z" fill="#C6BAA8"/>
</g>
</g>
<mask id="mask10_1_5012" style="mask-type:luminance" maskUnits="userSpaceOnUse" x="468" y="168" width="69" height="9">
<path d="M468.562 168.76H536.562V176.76H468.562V168.76Z" fill="white"/>
</mask>
<g mask="url(#mask10_1_5012)">
<mask id="mask11_1_5012" style="mask-type:luminance" maskUnits="userSpaceOnUse" x="310" y="3" width="602" height="602">
<path d="M611.224 3.15625C777.318 3.15625 911.969 137.807 911.969 303.906C911.969 470 777.318 604.656 611.224 604.656C445.12 604.656 310.474 470 310.474 303.906C310.474 137.807 445.12 3.15625 611.224 3.15625Z" fill="white"/>
</mask>
<g mask="url(#mask11_1_5012)">
<path d="M469.672 169.578H535.646V175.901H469.672V169.578Z" fill="#C6BAA8"/>
</g>
</g>
<mask id="mask12_1_5012" style="mask-type:luminance" maskUnits="userSpaceOnUse" x="471" y="127" width="69" height="34">
<path d="M471.229 127.427H539.229V160.76H471.229V127.427Z" fill="white"/>
</mask>
<g mask="url(#mask12_1_5012)">
<mask id="mask13_1_5012" style="mask-type:luminance" maskUnits="userSpaceOnUse" x="310" y="3" width="602" height="602">
<path d="M611.224 3.15625C777.318 3.15625 911.969 137.807 911.969 303.906C911.969 470 777.318 604.656 611.224 604.656C445.12 604.656 310.474 470 310.474 303.906C310.474 137.807 445.12 3.15625 611.224 3.15625Z" fill="white"/>
</mask>
<g mask="url(#mask13_1_5012)">
<path d="M474.62 128.26L538.349 153.833L535.995 159.698L472.266 134.13L474.62 128.26Z" fill="#C6BAA8"/>
</g>
</g>
<mask id="mask14_1_5012" style="mask-type:luminance" maskUnits="userSpaceOnUse" x="471" y="184" width="69" height="35">
<path d="M471.229 184.76H539.229V218.094H471.229V184.76Z" fill="white"/>
</mask>
<g mask="url(#mask14_1_5012)">
<mask id="mask15_1_5012" style="mask-type:luminance" maskUnits="userSpaceOnUse" x="310" y="3" width="602" height="602">
<path d="M611.224 3.15625C777.318 3.15625 911.969 137.807 911.969 303.906C911.969 470 777.318 604.656 611.224 604.656C445.12 604.656 310.474 470 310.474 303.906C310.474 137.807 445.12 3.15625 611.224 3.15625Z" fill="white"/>
</mask>
<g mask="url(#mask15_1_5012)">
<path d="M535.786 185.828L538.141 191.693L474.417 217.271L472.062 211.406L535.786 185.828Z" fill="#C6BAA8"/>
</g>
</g>
<mask id="mask16_1_5012" style="mask-type:luminance" maskUnits="userSpaceOnUse" x="345" y="474" width="229" height="131">
<path d="M345.896 474.094H573.896V604.76H345.896V474.094Z" fill="white"/>
</mask>
<g mask="url(#mask16_1_5012)">
<mask id="mask17_1_5012" style="mask-type:luminance" maskUnits="userSpaceOnUse" x="310" y="3" width="602" height="602">
<path d="M611.224 3.15625C777.318 3.15625 911.969 137.807 911.969 303.906C911.969 470 777.318 604.656 611.224 604.656C445.12 604.656 310.474 470 310.474 303.906C310.474 137.807 445.12 3.15625 611.224 3.15625Z" fill="white"/>
</mask>
<g mask="url(#mask17_1_5012)">
<path d="M481.458 744.719C407.031 744.719 346.474 684.167 346.474 609.734C346.474 535.302 407.026 474.745 481.458 474.745C513.24 474.745 544.115 486.01 568.385 506.464L572.594 510.01L567.406 511.854C516.182 530.031 481.766 578.776 481.766 633.146C481.766 671.177 498.464 707.057 527.583 731.589L531.792 735.135L526.604 736.974C512.125 742.115 496.938 744.719 481.458 744.719ZM481.458 481.057C410.51 481.057 352.781 538.781 352.781 609.734C352.781 680.688 410.51 738.412 481.458 738.412C494.385 738.412 507.099 736.505 519.328 732.74C491.375 707.167 475.453 671.182 475.453 633.151C475.453 577.974 509.234 528.328 560.083 507.88C537.646 490.547 509.938 481.057 481.458 481.057Z" fill="#C6BAA8"/>
</g>
</g>
<mask id="mask18_1_5012" style="mask-type:luminance" maskUnits="userSpaceOnUse" x="356" y="484" width="206" height="121">
<path d="M356.562 484.76H561.896V604.76H356.562V484.76Z" fill="white"/>
</mask>
<g mask="url(#mask18_1_5012)">
<mask id="mask19_1_5012" style="mask-type:luminance" maskUnits="userSpaceOnUse" x="310" y="3" width="602" height="602">
<path d="M611.224 3.15625C777.318 3.15625 911.969 137.807 911.969 303.906C911.969 470 777.318 604.656 611.224 604.656C445.12 604.656 310.474 470 310.474 303.906C310.474 137.807 445.12 3.15625 611.224 3.15625Z" fill="white"/>
</mask>
<g mask="url(#mask19_1_5012)">
<path d="M481.458 734.391C412.724 734.391 356.797 678.474 356.797 609.734C356.797 540.995 412.724 485.073 481.458 485.073C509.172 485.073 535.406 493.979 557.333 510.823L561.479 514.005L556.729 516.193C511.193 537.141 481.766 583.052 481.766 633.146C481.766 667.328 495.026 699.51 519.099 723.771L522.786 727.49L517.781 729.01C506.052 732.583 493.833 734.391 481.458 734.391ZM481.458 491.385C416.203 491.385 363.109 544.479 363.109 609.734C363.109 674.99 416.203 728.083 481.458 728.083C491.463 728.083 501.359 726.839 510.953 724.375C488.021 699.417 475.453 667.224 475.453 633.146C475.453 582.359 504.276 535.682 549.328 512.766C529.391 498.76 506.036 491.385 481.458 491.385Z" fill="#C6BAA8"/>
</g>
</g>
<mask id="mask20_1_5012" style="mask-type:luminance" maskUnits="userSpaceOnUse" x="365" y="494" width="187" height="111">
<path d="M365.896 494.094H551.229V604.76H365.896V494.094Z" fill="white"/>
</mask>
<g mask="url(#mask20_1_5012)">
<mask id="mask21_1_5012" style="mask-type:luminance" maskUnits="userSpaceOnUse" x="310" y="3" width="602" height="602">
<path d="M611.224 3.15625C777.318 3.15625 911.969 137.807 911.969 303.906C911.969 470 777.318 604.656 611.224 604.656C445.12 604.656 310.474 470 310.474 303.906C310.474 137.807 445.12 3.15625 611.224 3.15625Z" fill="white"/>
</mask>
<g mask="url(#mask21_1_5012)">
<path d="M481.458 724.073C418.417 724.073 367.125 672.781 367.125 609.734C367.125 546.687 418.411 495.396 481.458 495.396C505.052 495.396 527.703 502.526 546.964 516.016L551.042 518.87L546.719 521.338C506.651 544.224 481.76 587.068 481.76 633.146C481.76 663.177 492.328 692.401 511.521 715.437L514.714 719.276L509.875 720.51C500.646 722.875 491.083 724.073 481.458 724.073ZM481.458 501.708C421.896 501.708 373.432 550.167 373.432 609.734C373.432 669.302 421.896 717.76 481.458 717.76C488.891 717.76 496.281 717.005 503.495 715.51C485.375 692 475.453 662.948 475.453 633.146C475.453 586.495 499.771 543.01 539.245 518.448C521.974 507.479 502.094 501.708 481.458 501.708Z" fill="#C6BAA8"/>
</g>
</g>
<mask id="mask22_1_5012" style="mask-type:luminance" maskUnits="userSpaceOnUse" x="376" y="504" width="166" height="101">
<path d="M376.562 504.76H541.896V604.76H376.562V504.76Z" fill="white"/>
</mask>
<g mask="url(#mask22_1_5012)">
<mask id="mask23_1_5012" style="mask-type:luminance" maskUnits="userSpaceOnUse" x="310" y="3" width="602" height="602">
<path d="M611.224 3.15625C777.318 3.15625 911.969 137.807 911.969 303.906C911.969 470 777.318 604.656 611.224 604.656C445.12 604.656 310.474 470 310.474 303.906C310.474 137.807 445.12 3.15625 611.224 3.15625Z" fill="white"/>
</mask>
<g mask="url(#mask23_1_5012)">
<path d="M481.458 713.75C424.104 713.75 377.448 667.089 377.448 609.734C377.448 552.38 424.109 505.719 481.458 505.719C501.312 505.719 520.62 511.333 537.292 521.964L541.302 524.516L537.391 527.219C502.562 551.286 481.766 590.885 481.766 633.151C481.766 659.599 489.74 685.016 504.818 706.646L507.547 710.562L502.875 711.542C495.87 713.005 488.667 713.75 481.458 713.75ZM481.458 512.026C427.589 512.026 383.76 555.859 383.76 609.734C383.76 663.609 427.589 707.438 481.458 707.438C486.646 707.438 491.828 707.026 496.932 706.219C482.865 684.422 475.453 659.266 475.453 633.146C475.453 590.427 495.708 550.302 529.87 524.849C515.167 516.448 498.531 512.026 481.458 512.026Z" fill="#C6BAA8"/>
</g>
</g>
<mask id="mask24_1_5012" style="mask-type:luminance" maskUnits="userSpaceOnUse" x="387" y="515" width="146" height="90">
<path d="M387.229 515.427H532.562V604.76H387.229V515.427Z" fill="white"/>
</mask>
<g mask="url(#mask24_1_5012)">
<mask id="mask25_1_5012" style="mask-type:luminance" maskUnits="userSpaceOnUse" x="310" y="3" width="602" height="602">
<path d="M611.224 3.15625C777.318 3.15625 911.969 137.807 911.969 303.906C911.969 470 777.318 604.656 611.224 604.656C445.12 604.656 310.474 470 310.474 303.906C310.474 137.807 445.12 3.15625 611.224 3.15625Z" fill="white"/>
</mask>
<g mask="url(#mask25_1_5012)">
<path d="M481.458 703.422C429.802 703.422 387.771 661.396 387.771 609.734C387.771 558.073 429.802 516.047 481.458 516.047C497.932 516.047 514.13 520.38 528.307 528.578L532.245 530.859L528.729 533.745C498.88 558.312 481.76 594.542 481.76 633.151C481.76 655.766 487.714 678.01 498.979 697.479L501.26 701.432L496.76 702.177C491.724 703.005 486.578 703.422 481.458 703.422ZM481.458 522.354C433.281 522.354 394.083 561.552 394.083 609.734C394.083 657.911 433.281 697.115 481.458 697.115C484.729 697.115 488.005 696.927 491.255 696.568C480.901 677.135 475.453 655.312 475.453 633.146C475.453 594.198 492.063 557.557 521.182 531.885C508.948 525.641 495.307 522.354 481.458 522.354Z" fill="#C6BAA8"/>
</g>
</g>
<mask id="mask26_1_5012" style="mask-type:luminance" maskUnits="userSpaceOnUse" x="397" y="526" width="128" height="79">
<path d="M397.896 526.094H524.563V604.76H397.896V526.094Z" fill="white"/>
</mask>
<g mask="url(#mask26_1_5012)">
<mask id="mask27_1_5012" style="mask-type:luminance" maskUnits="userSpaceOnUse" x="310" y="3" width="602" height="602">
<path d="M611.224 3.15625C777.318 3.15625 911.969 137.807 911.969 303.906C911.969 470 777.318 604.656 611.224 604.656C445.12 604.656 310.474 470 310.474 303.906C310.474 137.807 445.12 3.15625 611.224 3.15625Z" fill="white"/>
</mask>
<g mask="url(#mask27_1_5012)">
<path d="M481.458 693.099C435.49 693.099 398.094 655.703 398.094 609.734C398.094 563.766 435.49 526.365 481.458 526.365C494.87 526.365 508.208 529.63 520.031 535.812L523.896 537.833L520.771 540.87C495.62 565.323 481.766 598.099 481.766 633.146C481.766 652.323 485.891 670.781 494.021 688.01L495.891 691.969L491.547 692.49C488.182 692.896 484.786 693.099 481.458 693.099ZM481.458 532.677C438.974 532.677 404.401 567.245 404.401 609.734C404.401 653.88 441.729 689.615 486.469 686.625C479.156 669.724 475.453 651.76 475.453 633.146C475.453 597.87 488.828 564.792 513.219 539.516C503.297 535.031 492.406 532.677 481.458 532.677Z" fill="#C6BAA8"/>
</g>
</g>
<mask id="mask28_1_5012" style="mask-type:luminance" maskUnits="userSpaceOnUse" x="407" y="535" width="110" height="70">
<path d="M407.229 535.427H516.562V604.76H407.229V535.427Z" fill="white"/>
</mask>
<g mask="url(#mask28_1_5012)">
<mask id="mask29_1_5012" style="mask-type:luminance" maskUnits="userSpaceOnUse" x="310" y="3" width="602" height="602">
<path d="M611.224 3.15625C777.318 3.15625 911.969 137.807 911.969 303.906C911.969 470 777.318 604.656 611.224 604.656C445.12 604.656 310.474 470 310.474 303.906C310.474 137.807 445.12 3.15625 611.224 3.15625Z" fill="white"/>
</mask>
<g mask="url(#mask29_1_5012)">
<path d="M481.458 682.771C441.182 682.771 408.417 650.01 408.417 609.734C408.417 569.458 441.182 536.693 481.458 536.693C492.307 536.693 502.745 539.016 512.479 543.594L516.266 545.37L513.516 548.521C493.042 571.948 481.766 602 481.766 633.146C481.766 648.677 484.505 663.87 489.917 678.302L491.391 682.229L487.208 682.552C485.318 682.698 483.385 682.771 481.458 682.771ZM481.458 543.005C444.661 543.005 414.729 572.937 414.729 609.734C414.729 646.531 444.667 676.463 481.458 676.463C481.828 676.463 482.193 676.463 482.557 676.458C477.844 662.536 475.453 647.99 475.453 633.151C475.453 601.917 486.266 571.724 505.984 547.656C498.198 544.568 489.969 543.005 481.458 543.005Z" fill="#C6BAA8"/>
</g>
</g>
<mask id="mask30_1_5012" style="mask-type:luminance" maskUnits="userSpaceOnUse" x="417" y="546" width="93" height="59">
<path d="M417.896 546.094H509.896V604.76H417.896V546.094Z" fill="white"/>
</mask>
<g mask="url(#mask30_1_5012)">
<mask id="mask31_1_5012" style="mask-type:luminance" maskUnits="userSpaceOnUse" x="310" y="3" width="602" height="602">
<path d="M611.224 3.15625C777.318 3.15625 911.969 137.807 911.969 303.906C911.969 470 777.318 604.656 611.224 604.656C445.12 604.656 310.474 470 310.474 303.906C310.474 137.807 445.12 3.15625 611.224 3.15625Z" fill="white"/>
</mask>
<g mask="url(#mask31_1_5012)">
<path d="M481.458 672.453C446.875 672.453 418.74 644.318 418.74 609.734C418.74 575.151 446.875 547.016 481.458 547.016C489.833 547.016 497.969 548.641 505.656 551.854L509.375 553.411L506.979 556.646C490.484 578.906 481.766 605.365 481.766 633.146C481.766 645.12 483.411 656.979 486.651 668.391L487.75 672.26L483.724 672.406C482.974 672.432 482.219 672.453 481.458 672.453ZM481.458 553.323C450.354 553.323 425.052 578.63 425.052 609.734C425.052 640.182 449.307 665.073 479.505 666.109C476.818 655.375 475.453 644.307 475.453 633.146C475.453 605.396 483.75 578.906 499.484 556.271C493.688 554.312 487.646 553.323 481.458 553.323Z" fill="#C6BAA8"/>
</g>
</g>
<mask id="mask32_1_5012" style="mask-type:luminance" maskUnits="userSpaceOnUse" x="428" y="556" width="76" height="49">
<path d="M428.562 556.76H503.229V604.76H428.562V556.76Z" fill="white"/>
</mask>
<g mask="url(#mask32_1_5012)">
<mask id="mask33_1_5012" style="mask-type:luminance" maskUnits="userSpaceOnUse" x="310" y="3" width="602" height="602">
<path d="M611.224 3.15625C777.318 3.15625 911.969 137.807 911.969 303.906C911.969 470 777.318 604.656 611.224 604.656C445.12 604.656 310.474 470 310.474 303.906C310.474 137.807 445.12 3.15625 611.224 3.15625Z" fill="white"/>
</mask>
<g mask="url(#mask33_1_5012)">
<path d="M484.995 662.151L481.125 662.125C452.422 661.943 429.068 638.437 429.068 609.734C429.068 580.838 452.568 557.333 481.458 557.333C487.677 557.333 493.771 558.417 499.578 560.557L503.219 561.896L501.167 565.187C488.474 585.552 481.76 609.052 481.76 633.146C481.76 641.594 482.599 650.073 484.24 658.354L484.995 662.151ZM481.458 563.646C456.052 563.646 435.375 584.323 435.375 609.734C435.375 633.687 453.87 653.526 477.323 655.63C476.083 648.208 475.453 640.667 475.453 633.146C475.453 609.224 481.76 585.854 493.729 565.302C489.75 564.203 485.635 563.646 481.458 563.646Z" fill="#C6BAA8"/>
</g>
</g>
<mask id="mask34_1_5012" style="mask-type:luminance" maskUnits="userSpaceOnUse" x="439" y="567" width="59" height="38">
<path d="M439.229 567.427H497.896V604.76H439.229V567.427Z" fill="white"/>
</mask>
<g mask="url(#mask34_1_5012)">
<mask id="mask35_1_5012" style="mask-type:luminance" maskUnits="userSpaceOnUse" x="310" y="3" width="602" height="602">
<path d="M611.224 3.15625C777.318 3.15625 911.969 137.807 911.969 303.906C911.969 470 777.318 604.656 611.224 604.656C445.12 604.656 310.474 470 310.474 303.906C310.474 137.807 445.12 3.15625 611.224 3.15625Z" fill="white"/>
</mask>
<g mask="url(#mask35_1_5012)">
<path d="M483.083 651.938L479.359 651.755C456.948 650.651 439.391 632.193 439.391 609.734C439.391 586.537 458.26 567.667 481.458 567.667C485.818 567.667 490.12 568.333 494.245 569.646L497.807 570.781L496.089 574.104C486.583 592.474 481.766 612.339 481.766 633.151C481.766 638.12 482.062 643.198 482.651 648.24L483.083 651.938ZM481.458 573.974C461.745 573.974 445.703 590.016 445.703 609.734C445.703 627.573 458.734 642.443 475.984 645.083C475.63 641.083 475.453 637.083 475.453 633.146C475.453 612.636 479.917 593 488.729 574.714C486.349 574.224 483.911 573.974 481.458 573.974Z" fill="#C6BAA8"/>
</g>
</g>
<mask id="mask36_1_5012" style="mask-type:luminance" maskUnits="userSpaceOnUse" x="448" y="576" width="46" height="29">
<path d="M448.562 576.76H493.896V604.76H448.562V576.76Z" fill="white"/>
</mask>
<g mask="url(#mask36_1_5012)">
<mask id="mask37_1_5012" style="mask-type:luminance" maskUnits="userSpaceOnUse" x="310" y="3" width="602" height="602">
<path d="M611.224 3.15625C777.318 3.15625 911.969 137.807 911.969 303.906C911.969 470 777.318 604.656 611.224 604.656C445.12 604.656 310.474 470 310.474 303.906C310.474 137.807 445.12 3.15625 611.224 3.15625Z" fill="white"/>
</mask>
<g mask="url(#mask37_1_5012)">
<path d="M482.005 641.677L478.417 641.339C462.052 639.776 449.714 626.193 449.714 609.734C449.714 592.229 463.953 577.984 481.458 577.984C484.24 577.984 487.005 578.344 489.672 579.062L493.167 580L491.766 583.333C485.13 599.125 481.766 615.885 481.766 633.146C481.766 634.797 481.807 636.443 481.87 638.073L482.005 641.677ZM481.458 584.297C467.432 584.297 456.021 595.708 456.021 609.734C456.021 621.698 464.161 631.771 475.464 634.464C475.453 634.026 475.453 633.589 475.453 633.146C475.453 616.344 478.495 599.99 484.5 584.479C483.495 584.354 482.479 584.297 481.458 584.297Z" fill="#C6BAA8"/>
</g>
</g>
<mask id="mask38_1_5012" style="mask-type:luminance" maskUnits="userSpaceOnUse" x="648" y="474" width="229" height="131">
<path d="M648.562 474.094H876.562V604.76H648.562V474.094Z" fill="white"/>
</mask>
<g mask="url(#mask38_1_5012)">
<mask id="mask39_1_5012" style="mask-type:luminance" maskUnits="userSpaceOnUse" x="310" y="3" width="602" height="602">
<path d="M611.224 3.15625C777.318 3.15625 911.969 137.807 911.969 303.906C911.969 470 777.318 604.656 611.224 604.656C445.12 604.656 310.474 470 310.474 303.906C310.474 137.807 445.12 3.15625 611.224 3.15625Z" fill="white"/>
</mask>
<g mask="url(#mask39_1_5012)">
<path d="M740.411 744.719C724.667 744.719 709.24 742.026 694.547 736.719L689.422 734.87L693.578 731.349C722.521 706.823 739.115 671.031 739.115 633.151C739.115 579.099 704.969 530.453 654.156 512.094L649.026 510.245L653.188 506.724C677.516 486.104 708.49 474.75 740.406 474.75C814.839 474.75 875.396 535.302 875.396 609.734C875.396 684.167 814.844 744.719 740.411 744.719ZM701.797 732.51C714.255 736.427 727.219 738.411 740.411 738.411C811.365 738.411 869.089 680.688 869.089 609.734C869.089 538.781 811.365 481.057 740.411 481.057C711.786 481.057 683.953 490.635 661.448 508.141C711.906 528.745 745.427 578.292 745.427 633.146C745.427 671.047 729.594 706.953 701.797 732.51Z" fill="#C6BAA8"/>
</g>
</g>
<mask id="mask40_1_5012" style="mask-type:luminance" maskUnits="userSpaceOnUse" x="659" y="484" width="207" height="121">
<path d="M659.229 484.76H865.896V604.76H659.229V484.76Z" fill="white"/>
</mask>
<g mask="url(#mask40_1_5012)">
<mask id="mask41_1_5012" style="mask-type:luminance" maskUnits="userSpaceOnUse" x="310" y="3" width="602" height="602">
<path d="M611.224 3.15625C777.318 3.15625 911.969 137.807 911.969 303.906C911.969 470 777.318 604.656 611.224 604.656C445.12 604.656 310.474 470 310.474 303.906C310.474 137.807 445.12 3.15625 611.224 3.15625Z" fill="white"/>
</mask>
<g mask="url(#mask41_1_5012)">
<path d="M740.412 734.391C727.755 734.391 715.271 732.5 703.307 728.781L698.354 727.234L702 723.547C725.932 699.313 739.115 667.208 739.115 633.146C739.115 583.333 709.927 537.537 664.75 516.474L660.063 514.287L664.151 511.12C686.156 494.083 712.526 485.073 740.412 485.073C809.151 485.073 865.073 540.995 865.073 609.734C865.073 678.474 809.151 734.391 740.412 734.391ZM710.115 724.172C719.958 726.766 730.125 728.083 740.412 728.083C805.672 728.083 858.766 674.99 858.766 609.734C858.766 544.479 805.672 491.385 740.412 491.385C715.651 491.385 692.156 498.859 672.13 513.063C716.828 536.073 745.427 582.646 745.427 633.151C745.427 667.12 732.927 699.24 710.115 724.172Z" fill="#C6BAA8"/>
</g>
</g>
<mask id="mask42_1_5012" style="mask-type:luminance" maskUnits="userSpaceOnUse" x="669" y="494" width="187" height="111">
<path d="M669.896 494.094H855.229V604.76H669.896V494.094Z" fill="white"/>
</mask>
<g mask="url(#mask42_1_5012)">
<mask id="mask43_1_5012" style="mask-type:luminance" maskUnits="userSpaceOnUse" x="310" y="3" width="602" height="602">
<path d="M611.224 3.15625C777.318 3.15625 911.969 137.807 911.969 303.906C911.969 470 777.318 604.656 611.224 604.656C445.12 604.656 310.474 470 310.474 303.906C310.474 137.807 445.12 3.15625 611.224 3.15625Z" fill="white"/>
</mask>
<g mask="url(#mask43_1_5012)">
<path d="M740.411 724.073C730.516 724.073 720.682 722.802 711.161 720.286L706.38 719.031L709.536 715.224C728.615 692.224 739.115 663.078 739.115 633.146C739.115 587.323 714.427 544.594 674.693 521.641L670.427 519.177L674.448 516.328C693.807 502.635 716.62 495.396 740.411 495.396C803.453 495.396 854.75 546.687 854.75 609.734C854.75 672.781 803.453 724.073 740.411 724.073ZM717.531 715.323C725.026 716.943 732.703 717.76 740.411 717.76C799.974 717.76 848.437 669.302 848.437 609.734C848.437 550.167 799.974 501.708 740.411 501.708C719.568 501.708 699.521 507.588 682.135 518.755C721.297 543.37 745.427 586.745 745.427 633.146C745.427 662.865 735.557 691.849 717.531 715.323Z" fill="#C6BAA8"/>
</g>
</g>
<mask id="mask44_1_5012" style="mask-type:luminance" maskUnits="userSpaceOnUse" x="679" y="504" width="166" height="101">
<path d="M679.229 504.76H844.562V604.76H679.229V504.76Z" fill="white"/>
</mask>
<g mask="url(#mask44_1_5012)">
<mask id="mask45_1_5012" style="mask-type:luminance" maskUnits="userSpaceOnUse" x="310" y="3" width="602" height="602">
<path d="M611.224 3.15625C777.318 3.15625 911.969 137.807 911.969 303.906C911.969 470 777.318 604.656 611.224 604.656C445.12 604.656 310.474 470 310.474 303.906C310.474 137.807 445.12 3.15625 611.224 3.15625Z" fill="white"/>
</mask>
<g mask="url(#mask45_1_5012)">
<path d="M740.411 713.75C732.917 713.75 725.406 712.938 718.109 711.339L713.5 710.328L716.188 706.458C731.193 684.859 739.115 659.51 739.115 633.146C739.115 591.109 718.495 551.63 683.958 527.542L680.104 524.854L684.052 522.302C700.844 511.448 720.333 505.714 740.406 505.714C797.76 505.714 844.427 552.38 844.427 609.729C844.427 667.083 797.76 713.75 740.411 713.75ZM724.047 706.063C729.443 706.974 734.927 707.438 740.411 707.438C794.286 707.438 838.115 663.609 838.115 609.734C838.115 555.859 794.286 512.026 740.411 512.026C723.115 512.026 706.281 516.557 691.448 525.172C725.339 550.641 745.427 590.646 745.427 633.146C745.427 659.198 738.052 684.302 724.047 706.063Z" fill="#C6BAA8"/>
</g>
</g>
<mask id="mask46_1_5012" style="mask-type:luminance" maskUnits="userSpaceOnUse" x="688" y="515" width="148" height="90">
<path d="M688.562 515.427H835.229V604.76H688.562V515.427Z" fill="white"/>
</mask>
<g mask="url(#mask46_1_5012)">
<mask id="mask47_1_5012" style="mask-type:luminance" maskUnits="userSpaceOnUse" x="310" y="3" width="602" height="602">
<path d="M611.224 3.15625C777.318 3.15625 911.969 137.807 911.969 303.906C911.969 470 777.318 604.656 611.224 604.656C445.12 604.656 310.474 470 310.474 303.906C310.474 137.807 445.12 3.15625 611.224 3.15625Z" fill="white"/>
</mask>
<g mask="url(#mask47_1_5012)">
<path d="M740.412 703.422C734.974 703.422 729.51 702.953 724.177 702.026L719.734 701.245L721.984 697.333C733.193 677.901 739.115 655.703 739.115 633.146C739.115 594.745 722.146 558.635 692.557 534.078L689.094 531.214L692.969 528.932C707.297 520.5 723.703 516.042 740.406 516.042C792.073 516.042 834.099 558.073 834.099 609.734C834.099 661.391 792.073 703.422 740.412 703.422ZM729.688 696.458C733.24 696.891 736.828 697.115 740.412 697.115C788.594 697.115 827.792 657.912 827.792 609.734C827.792 561.552 788.594 522.354 740.412 522.354C726.318 522.354 712.469 525.75 700.068 532.214C728.953 557.865 745.427 594.391 745.427 633.146C745.427 655.26 740 677.052 729.688 696.458Z" fill="#C6BAA8"/>
</g>
</g>
<mask id="mask48_1_5012" style="mask-type:luminance" maskUnits="userSpaceOnUse" x="696" y="526" width="129" height="79">
<path d="M696.562 526.094H824.562V604.76H696.562V526.094Z" fill="white"/>
</mask>
<g mask="url(#mask48_1_5012)">
<mask id="mask49_1_5012" style="mask-type:luminance" maskUnits="userSpaceOnUse" x="310" y="3" width="602" height="602">
<path d="M611.224 3.15625C777.318 3.15625 911.969 137.807 911.969 303.906C911.969 470 777.318 604.656 611.224 604.656C445.12 604.656 310.474 470 310.474 303.906C310.474 137.807 445.12 3.15625 611.224 3.15625Z" fill="white"/>
</mask>
<g mask="url(#mask49_1_5012)">
<path d="M740.412 693.099C736.724 693.099 733 692.854 729.349 692.365L725.078 691.792L726.912 687.891C735.01 670.693 739.115 652.271 739.115 633.146C739.115 598.266 725.385 565.615 700.448 541.208L697.375 538.198L701.167 536.172C713.167 529.755 726.74 526.365 740.406 526.365C786.375 526.365 823.776 563.766 823.776 609.734C823.776 655.703 786.38 693.099 740.412 693.099ZM734.443 686.557C736.427 686.708 738.422 686.792 740.412 686.792C782.896 686.792 817.469 652.219 817.469 609.734C817.469 567.245 782.896 532.672 740.412 532.672C729.203 532.672 718.073 535.141 707.964 539.828C732.156 565.062 745.427 598.026 745.427 633.146C745.427 651.729 741.729 669.677 734.443 686.557Z" fill="#C6BAA8"/>
</g>
</g>
<mask id="mask50_1_5012" style="mask-type:luminance" maskUnits="userSpaceOnUse" x="704" y="535" width="110" height="70">
<path d="M704.562 535.427H813.896V604.76H704.562V535.427Z" fill="white"/>
</mask>
<g mask="url(#mask50_1_5012)">
<mask id="mask51_1_5012" style="mask-type:luminance" maskUnits="userSpaceOnUse" x="310" y="3" width="602" height="602">
<path d="M611.224 3.15625C777.318 3.15625 911.969 137.807 911.969 303.906C911.969 470 777.318 604.656 611.224 604.656C445.12 604.656 310.474 470 310.474 303.906C310.474 137.807 445.12 3.15625 611.224 3.15625Z" fill="white"/>
</mask>
<g mask="url(#mask51_1_5012)">
<path d="M740.411 682.771C738.167 682.771 735.896 682.667 733.656 682.463L729.547 682.078L730.99 678.213C736.38 663.802 739.115 648.641 739.115 633.146C739.115 602.161 727.943 572.224 707.651 548.849L704.948 545.734L708.661 543.937C718.594 539.13 729.276 536.693 740.411 536.693C780.682 536.693 813.453 569.458 813.453 609.734C813.453 650.01 780.682 682.771 740.411 682.771ZM738.328 676.432C775.984 677.453 807.141 647.219 807.141 609.734C807.141 572.937 777.208 543.005 740.411 543.005C731.62 543.005 723.141 544.667 715.141 547.948C734.703 571.969 745.427 602.057 745.427 633.146C745.427 647.974 743.042 662.51 738.328 676.432Z" fill="#C6BAA8"/>
</g>
</g>
<mask id="mask52_1_5012" style="mask-type:luminance" maskUnits="userSpaceOnUse" x="711" y="546" width="93" height="59">
<path d="M711.229 546.094H803.229V604.76H711.229V546.094Z" fill="white"/>
</mask>
<g mask="url(#mask52_1_5012)">
<mask id="mask53_1_5012" style="mask-type:luminance" maskUnits="userSpaceOnUse" x="310" y="3" width="602" height="602">
<path d="M611.224 3.15625C777.318 3.15625 911.969 137.807 911.969 303.906C911.969 470 777.318 604.656 611.224 604.656C445.12 604.656 310.474 470 310.474 303.906C310.474 137.807 445.12 3.15625 611.224 3.15625Z" fill="white"/>
</mask>
<g mask="url(#mask53_1_5012)">
<path d="M740.411 672.453C739.302 672.453 738.198 672.427 737.099 672.37L733.161 672.146L734.24 668.354C737.474 656.958 739.115 645.115 739.115 633.146C739.115 605.516 730.479 579.167 714.135 556.958L711.792 553.771L715.422 552.193C723.323 548.76 731.734 547.016 740.411 547.016C774.995 547.016 803.13 575.151 803.13 609.734C803.13 644.318 774.995 672.453 740.411 672.453ZM721.589 556.542C737.198 579.125 745.427 605.521 745.427 633.146C745.427 644.323 744.063 655.401 741.37 666.135C772.031 665.62 796.818 640.521 796.818 609.734C796.818 578.63 771.51 553.323 740.411 553.323C733.927 553.323 727.62 554.401 721.589 556.542Z" fill="#C6BAA8"/>
</g>
</g>
<mask id="mask54_1_5012" style="mask-type:luminance" maskUnits="userSpaceOnUse" x="717" y="556" width="77" height="49">
<path d="M717.896 556.76H793.896V604.76H717.896V556.76Z" fill="white"/>
</mask>
<g mask="url(#mask54_1_5012)">
<mask id="mask55_1_5012" style="mask-type:luminance" maskUnits="userSpaceOnUse" x="310" y="3" width="602" height="602">
<path d="M611.224 3.15625C777.318 3.15625 911.969 137.807 911.969 303.906C911.969 470 777.318 604.656 611.224 604.656C445.12 604.656 310.474 470 310.474 303.906C310.474 137.807 445.12 3.15625 611.224 3.15625Z" fill="white"/>
</mask>
<g mask="url(#mask55_1_5012)">
<path d="M740.411 662.13L735.922 662.01L736.641 658.349C738.281 650.073 739.115 641.599 739.115 633.146C739.115 609.172 732.469 585.776 719.896 565.49L717.901 562.26L721.438 560.885C727.484 558.531 733.87 557.339 740.406 557.339C769.302 557.339 792.807 580.839 792.807 609.734C792.807 638.63 769.302 662.13 740.411 662.13ZM727.292 565.542C739.167 586.031 745.427 609.318 745.427 633.146C745.427 640.703 744.792 648.271 743.536 655.714C767.5 654.099 786.495 634.094 786.495 609.734C786.495 584.323 765.823 563.646 740.411 563.646C735.932 563.646 731.531 564.287 727.292 565.542Z" fill="#C6BAA8"/>
</g>
</g>
<mask id="mask56_1_5012" style="mask-type:luminance" maskUnits="userSpaceOnUse" x="723" y="567" width="61" height="38">
<path d="M723.229 567.427H783.229V604.76H723.229V567.427Z" fill="white"/>
</mask>
<g mask="url(#mask56_1_5012)">
<mask id="mask57_1_5012" style="mask-type:luminance" maskUnits="userSpaceOnUse" x="310" y="3" width="602" height="602">
<path d="M611.224 3.15625C777.318 3.15625 911.969 137.807 911.969 303.906C911.969 470 777.318 604.656 611.224 604.656C445.12 604.656 310.474 470 310.474 303.906C310.474 137.807 445.12 3.15625 611.224 3.15625Z" fill="white"/>
</mask>
<g mask="url(#mask57_1_5012)">
<path d="M737.802 651.875L738.229 648.271C738.818 643.229 739.115 638.141 739.115 633.146C739.115 612.443 734.344 592.661 724.932 574.37L723.266 571.13L726.714 569.943C731.109 568.427 735.714 567.661 740.412 567.661C763.609 567.661 782.484 586.536 782.484 609.734C782.484 632.38 764.073 651.245 741.438 651.792L737.802 651.875ZM732.25 574.906C740.995 593.135 745.427 612.713 745.427 633.146C745.427 637.13 745.245 641.177 744.885 645.208C762.438 642.979 776.172 627.766 776.172 609.734C776.172 590.016 760.13 573.974 740.412 573.974C737.641 573.974 734.906 574.286 732.25 574.906Z" fill="#C6BAA8"/>
</g>
</g>
<mask id="mask58_1_5012" style="mask-type:luminance" maskUnits="userSpaceOnUse" x="727" y="576" width="46" height="29">
<path d="M727.229 576.76H772.562V604.76H727.229V576.76Z" fill="white"/>
</mask>
<g mask="url(#mask58_1_5012)">
<mask id="mask59_1_5012" style="mask-type:luminance" maskUnits="userSpaceOnUse" x="310" y="3" width="602" height="602">
<path d="M611.224 3.15625C777.318 3.15625 911.969 137.807 911.969 303.906C911.969 470 777.318 604.656 611.224 604.656C445.12 604.656 310.474 470 310.474 303.906C310.474 137.807 445.12 3.15625 611.224 3.15625Z" fill="white"/>
</mask>
<g mask="url(#mask59_1_5012)">
<path d="M738.875 641.63L739.01 638.146C739.073 636.49 739.115 634.823 739.115 633.146C739.115 615.984 735.786 599.307 729.214 583.578L727.865 580.349L731.214 579.339C734.193 578.443 737.286 577.984 740.411 577.984C757.917 577.984 772.156 592.229 772.156 609.734C772.156 626.495 759.062 640.417 742.349 641.422L738.875 641.63ZM736.427 584.609C742.401 600.089 745.427 616.396 745.427 633.146C745.427 633.656 745.422 634.167 745.417 634.677C757.115 632.349 765.849 621.99 765.849 609.734C765.849 595.708 754.432 584.297 740.411 584.297C739.073 584.297 737.745 584.401 736.427 584.609Z" fill="#C6BAA8"/>
</g>
</g>
<mask id="mask60_1_5012" style="mask-type:luminance" maskUnits="userSpaceOnUse" x="475" y="498" width="271" height="107">
<path d="M475.229 498.094H745.896V604.76H475.229V498.094Z" fill="white"/>
</mask>
<g mask="url(#mask60_1_5012)">
<mask id="mask61_1_5012" style="mask-type:luminance" maskUnits="userSpaceOnUse" x="310" y="3" width="602" height="602">
<path d="M611.224 3.15625C777.318 3.15625 911.969 137.807 911.969 303.906C911.969 470 777.318 604.656 611.224 604.656C445.12 604.656 310.474 470 310.474 303.906C310.474 137.807 445.12 3.15625 611.224 3.15625Z" fill="white"/>
</mask>
<g mask="url(#mask61_1_5012)">
<path d="M610.438 768.135C536.01 768.135 475.453 707.578 475.453 633.146C475.453 558.713 536.005 498.161 610.438 498.161C684.875 498.161 745.427 558.713 745.427 633.146C745.427 707.578 684.875 768.135 610.438 768.135ZM610.438 504.474C539.49 504.474 481.76 562.198 481.76 633.146C481.76 704.099 539.484 761.823 610.438 761.823C681.391 761.823 739.115 704.099 739.115 633.146C739.115 562.198 681.391 504.474 610.438 504.474Z" fill="#C6BAA8"/>
</g>
</g>
<mask id="mask62_1_5012" style="mask-type:luminance" maskUnits="userSpaceOnUse" x="484" y="507" width="252" height="98">
<path d="M484.562 507.427H735.229V604.76H484.562V507.427Z" fill="white"/>
</mask>
<g mask="url(#mask62_1_5012)">
<mask id="mask63_1_5012" style="mask-type:luminance" maskUnits="userSpaceOnUse" x="310" y="3" width="602" height="602">
<path d="M611.224 3.15625C777.318 3.15625 911.969 137.807 911.969 303.906C911.969 470 777.318 604.656 611.224 604.656C445.12 604.656 310.474 470 310.474 303.906C310.474 137.807 445.12 3.15625 611.224 3.15625Z" fill="white"/>
</mask>
<g mask="url(#mask63_1_5012)">
<path d="M610.437 757.812C541.703 757.812 485.776 701.891 485.776 633.146C485.776 564.406 541.703 508.484 610.437 508.484C679.177 508.484 735.104 564.406 735.104 633.146C735.104 701.891 679.177 757.812 610.437 757.812ZM610.437 514.792C545.182 514.792 492.089 567.885 492.089 633.146C492.089 698.406 545.182 751.5 610.437 751.5C675.698 751.5 728.792 698.406 728.792 633.146C728.792 567.885 675.698 514.792 610.437 514.792Z" fill="#C6BAA8"/>
</g>
</g>
<mask id="mask64_1_5012" style="mask-type:luminance" maskUnits="userSpaceOnUse" x="495" y="518" width="231" height="87">
<path d="M495.229 518.094H725.896V604.76H495.229V518.094Z" fill="white"/>
</mask>
<g mask="url(#mask64_1_5012)">
<mask id="mask65_1_5012" style="mask-type:luminance" maskUnits="userSpaceOnUse" x="310" y="3" width="602" height="602">
<path d="M611.224 3.15625C777.318 3.15625 911.969 137.807 911.969 303.906C911.969 470 777.318 604.656 611.224 604.656C445.12 604.656 310.474 470 310.474 303.906C310.474 137.807 445.12 3.15625 611.224 3.15625Z" fill="white"/>
</mask>
<g mask="url(#mask65_1_5012)">
<path d="M610.438 747.484C547.391 747.484 496.099 696.193 496.099 633.146C496.099 570.099 547.391 518.807 610.438 518.807C673.484 518.807 724.776 570.099 724.776 633.146C724.776 696.193 673.484 747.484 610.438 747.484ZM610.438 525.12C550.87 525.12 502.411 573.583 502.411 633.146C502.411 692.714 550.87 741.172 610.438 741.172C670.005 741.172 718.469 692.714 718.469 633.146C718.469 573.583 670.005 525.12 610.438 525.12Z" fill="#C6BAA8"/>
</g>
</g>
<mask id="mask66_1_5012" style="mask-type:luminance" maskUnits="userSpaceOnUse" x="505" y="528" width="211" height="77">
<path d="M505.896 528.76H715.229V604.76H505.896V528.76Z" fill="white"/>
</mask>
<g mask="url(#mask66_1_5012)">
<mask id="mask67_1_5012" style="mask-type:luminance" maskUnits="userSpaceOnUse" x="310" y="3" width="602" height="602">
<path d="M611.224 3.15625C777.318 3.15625 911.969 137.807 911.969 303.906C911.969 470 777.318 604.656 611.224 604.656C445.12 604.656 310.474 470 310.474 303.906C310.474 137.807 445.12 3.15625 611.224 3.15625Z" fill="white"/>
</mask>
<g mask="url(#mask67_1_5012)">
<path d="M610.438 737.167C553.083 737.167 506.427 690.5 506.427 633.146C506.427 575.797 553.089 529.135 610.438 529.135C667.792 529.135 714.453 575.797 714.453 633.146C714.453 690.5 667.792 737.167 610.438 737.167ZM610.438 535.448C556.568 535.448 512.734 579.281 512.734 633.146C512.734 687.026 556.568 730.854 610.438 730.854C664.313 730.854 708.146 687.026 708.146 633.146C708.146 579.276 664.313 535.448 610.438 535.448Z" fill="#C6BAA8"/>
</g>
</g>
<mask id="mask68_1_5012" style="mask-type:luminance" maskUnits="userSpaceOnUse" x="516" y="539" width="189" height="66">
<path d="M516.562 539.427H704.562V604.76H516.562V539.427Z" fill="white"/>
</mask>
<g mask="url(#mask68_1_5012)">
<mask id="mask69_1_5012" style="mask-type:luminance" maskUnits="userSpaceOnUse" x="310" y="3" width="602" height="602">
<path d="M611.224 3.15625C777.318 3.15625 911.969 137.807 911.969 303.906C911.969 470 777.318 604.656 611.224 604.656C445.12 604.656 310.474 470 310.474 303.906C310.474 137.807 445.12 3.15625 611.224 3.15625Z" fill="white"/>
</mask>
<g mask="url(#mask69_1_5012)">
<path d="M610.437 726.844C558.776 726.844 516.75 684.812 516.75 633.146C516.75 581.49 558.776 539.458 610.437 539.458C662.104 539.458 704.13 581.49 704.13 633.146C704.135 684.812 662.104 726.844 610.437 726.844ZM610.437 545.771C562.255 545.771 523.057 584.969 523.057 633.146C523.057 681.328 562.255 720.531 610.437 720.531C658.62 720.531 697.823 681.328 697.823 633.146C697.823 584.969 658.62 545.771 610.437 545.771Z" fill="#C6BAA8"/>
</g>
</g>
<mask id="mask70_1_5012" style="mask-type:luminance" maskUnits="userSpaceOnUse" x="525" y="548" width="169" height="57">
<path d="M525.896 548.76H693.896V604.76H525.896V548.76Z" fill="white"/>
</mask>
<g mask="url(#mask70_1_5012)">
<mask id="mask71_1_5012" style="mask-type:luminance" maskUnits="userSpaceOnUse" x="310" y="3" width="602" height="602">
<path d="M611.224 3.15625C777.318 3.15625 911.969 137.807 911.969 303.906C911.969 470 777.318 604.656 611.224 604.656C445.12 604.656 310.474 470 310.474 303.906C310.474 137.807 445.12 3.15625 611.224 3.15625Z" fill="white"/>
</mask>
<g mask="url(#mask71_1_5012)">
<path d="M610.437 716.516C564.469 716.516 527.073 679.115 527.073 633.146C527.073 587.177 564.469 549.781 610.437 549.781C656.406 549.781 693.802 587.177 693.802 633.146C693.802 679.115 656.406 716.516 610.437 716.516ZM610.437 556.089C567.953 556.089 533.38 590.661 533.38 633.146C533.38 675.635 567.953 710.208 610.437 710.208C652.927 710.208 687.495 675.635 687.495 633.146C687.495 590.661 652.927 556.089 610.437 556.089Z" fill="#C6BAA8"/>
</g>
</g>
<mask id="mask72_1_5012" style="mask-type:luminance" maskUnits="userSpaceOnUse" x="536" y="559" width="149" height="46">
<path d="M536.562 559.427H684.562V604.76H536.562V559.427Z" fill="white"/>
</mask>
<g mask="url(#mask72_1_5012)">
<mask id="mask73_1_5012" style="mask-type:luminance" maskUnits="userSpaceOnUse" x="310" y="3" width="602" height="602">
<path d="M611.224 3.15625C777.318 3.15625 911.969 137.807 911.969 303.906C911.969 470 777.318 604.656 611.224 604.656C445.12 604.656 310.474 470 310.474 303.906C310.474 137.807 445.12 3.15625 611.224 3.15625Z" fill="white"/>
</mask>
<g mask="url(#mask73_1_5012)">
<path d="M610.437 706.188C570.161 706.188 537.396 673.422 537.396 633.146C537.396 592.875 570.161 560.109 610.437 560.109C650.713 560.109 683.484 592.875 683.484 633.146C683.484 673.422 650.713 706.188 610.437 706.188ZM610.437 566.417C573.641 566.417 543.708 596.354 543.708 633.146C543.708 669.943 573.646 699.88 610.437 699.88C647.24 699.88 677.172 669.943 677.172 633.146C677.172 596.354 647.24 566.417 610.437 566.417Z" fill="#C6BAA8"/>
</g>
</g>
<mask id="mask74_1_5012" style="mask-type:luminance" maskUnits="userSpaceOnUse" x="547" y="570" width="127" height="35">
<path d="M547.229 570.094H673.896V604.76H547.229V570.094Z" fill="white"/>
</mask>
<g mask="url(#mask74_1_5012)">
<mask id="mask75_1_5012" style="mask-type:luminance" maskUnits="userSpaceOnUse" x="310" y="3" width="602" height="602">
<path d="M611.224 3.15625C777.318 3.15625 911.969 137.807 911.969 303.906C911.969 470 777.318 604.656 611.224 604.656C445.12 604.656 310.474 470 310.474 303.906C310.474 137.807 445.12 3.15625 611.224 3.15625Z" fill="white"/>
</mask>
<g mask="url(#mask75_1_5012)">
<path d="M610.438 695.865C575.854 695.865 547.719 667.734 547.719 633.146C547.719 598.562 575.854 570.427 610.438 570.427C645.026 570.427 673.156 598.562 673.156 633.146C673.156 667.734 645.026 695.865 610.438 695.865ZM610.438 576.74C579.333 576.74 554.031 602.042 554.031 633.146C554.031 664.25 579.333 689.557 610.438 689.557C641.542 689.557 666.849 664.25 666.849 633.146C666.849 602.042 641.542 576.74 610.438 576.74Z" fill="#C6BAA8"/>
</g>
</g>
<mask id="mask76_1_5012" style="mask-type:luminance" maskUnits="userSpaceOnUse" x="557" y="579" width="107" height="26">
<path d="M557.896 579.427H663.229V604.76H557.896V579.427Z" fill="white"/>
</mask>
<g mask="url(#mask76_1_5012)">
<mask id="mask77_1_5012" style="mask-type:luminance" maskUnits="userSpaceOnUse" x="310" y="3" width="602" height="602">
<path d="M611.224 3.15625C777.318 3.15625 911.969 137.807 911.969 303.906C911.969 470 777.318 604.656 611.224 604.656C445.12 604.656 310.474 470 310.474 303.906C310.474 137.807 445.12 3.15625 611.224 3.15625Z" fill="white"/>
</mask>
<g mask="url(#mask77_1_5012)">
<path d="M610.438 685.547C581.547 685.547 558.047 662.036 558.047 633.146C558.047 604.26 581.547 580.755 610.438 580.755C639.328 580.755 662.833 604.26 662.833 633.146C662.833 662.036 639.328 685.547 610.438 685.547ZM610.438 587.068C585.031 587.068 564.354 607.74 564.354 633.146C564.354 658.562 585.031 679.234 610.438 679.234C635.849 679.234 656.526 658.562 656.526 633.146C656.526 607.74 635.849 587.068 610.438 587.068Z" fill="#C6BAA8"/>
</g>
</g>
<mask id="mask78_1_5012" style="mask-type:luminance" maskUnits="userSpaceOnUse" x="567" y="590" width="86" height="15">
<path d="M567.229 590.094H652.562V604.76H567.229V590.094Z" fill="white"/>
</mask>
<g mask="url(#mask78_1_5012)">
<mask id="mask79_1_5012" style="mask-type:luminance" maskUnits="userSpaceOnUse" x="310" y="3" width="602" height="602">
<path d="M611.224 3.15625C777.318 3.15625 911.969 137.807 911.969 303.906C911.969 470 777.318 604.656 611.224 604.656C445.12 604.656 310.474 470 310.474 303.906C310.474 137.807 445.12 3.15625 611.224 3.15625Z" fill="white"/>
</mask>
<g mask="url(#mask79_1_5012)">
<path d="M610.438 675.219C587.24 675.219 568.365 656.344 568.365 633.146C568.365 609.948 587.24 591.078 610.438 591.078C633.641 591.078 652.51 609.948 652.51 633.146C652.51 656.344 633.641 675.219 610.438 675.219ZM610.438 597.385C590.719 597.385 574.677 613.432 574.677 633.146C574.677 652.865 590.719 668.906 610.438 668.906C630.161 668.906 646.203 652.865 646.203 633.146C646.203 613.432 630.161 597.385 610.438 597.385Z" fill="#C6BAA8"/>
</g>
</g>
<mask id="mask80_1_5012" style="mask-type:luminance" maskUnits="userSpaceOnUse" x="577" y="600" width="67" height="5">
<path d="M577.896 600.76H643.229V604.76H577.896V600.76Z" fill="white"/>
</mask>
<g mask="url(#mask80_1_5012)">
<mask id="mask81_1_5012" style="mask-type:luminance" maskUnits="userSpaceOnUse" x="310" y="3" width="602" height="602">
<path d="M611.224 3.15625C777.318 3.15625 911.969 137.807 911.969 303.906C911.969 470 777.318 604.656 611.224 604.656C445.12 604.656 310.474 470 310.474 303.906C310.474 137.807 445.12 3.15625 611.224 3.15625Z" fill="white"/>
</mask>
<g mask="url(#mask81_1_5012)">
<path d="M610.438 664.896C592.932 664.896 578.693 650.656 578.693 633.146C578.693 615.641 592.932 601.401 610.438 601.401C627.943 601.401 642.188 615.641 642.188 633.146C642.188 650.656 627.948 664.896 610.438 664.896ZM610.438 607.708C596.417 607.708 585.005 619.125 585.005 633.146C585.005 647.172 596.417 658.589 610.438 658.589C624.464 658.589 635.875 647.172 635.875 633.146C635.875 619.125 624.464 607.708 610.438 607.708Z" fill="#C6BAA8"/>
</g>
</g>
<mask id="mask82_1_5012" style="mask-type:luminance" maskUnits="userSpaceOnUse" x="491" y="463" width="239" height="38">
<path d="M491.229 463.427H729.896V500.76H491.229V463.427Z" fill="white"/>
</mask>
<g mask="url(#mask82_1_5012)">
<mask id="mask83_1_5012" style="mask-type:luminance" maskUnits="userSpaceOnUse" x="310" y="3" width="602" height="602">
<path d="M611.224 3.15625C777.318 3.15625 911.969 137.807 911.969 303.906C911.969 470 777.318 604.656 611.224 604.656C445.12 604.656 310.474 470 310.474 303.906C310.474 137.807 445.12 3.15625 611.224 3.15625Z" fill="white"/>
</mask>
<g mask="url(#mask83_1_5012)">
<path d="M653.49 500.656L651.911 500.167C625.25 491.828 595.964 491.755 569.266 499.948L567.708 500.427L566.411 499.427C544.813 482.74 519.01 472.844 491.802 470.807L492.276 464.51C520.177 466.604 546.661 476.599 568.979 493.443C595.922 485.505 625.302 485.573 652.229 493.662C674.594 476.693 701.182 466.62 729.219 464.51L729.688 470.807C702.344 472.859 676.448 482.833 654.792 499.646L653.49 500.656Z" fill="#C6BAA8"/>
</g>
</g>
<mask id="mask84_1_5012" style="mask-type:luminance" maskUnits="userSpaceOnUse" x="563" y="231" width="91" height="62">
<path d="M563.229 231.427H653.896V292.76H563.229V231.427Z" fill="white"/>
</mask>
<g mask="url(#mask84_1_5012)">
<mask id="mask85_1_5012" style="mask-type:luminance" maskUnits="userSpaceOnUse" x="310" y="3" width="602" height="602">
<path d="M611.224 3.15625C777.318 3.15625 911.969 137.807 911.969 303.906C911.969 470 777.318 604.656 611.224 604.656C445.12 604.656 310.474 470 310.474 303.906C310.474 137.807 445.12 3.15625 611.224 3.15625Z" fill="white"/>
</mask>
<g mask="url(#mask85_1_5012)">
<path d="M649.844 232.234L653.224 237.557L567.667 291.875L564.286 286.552L649.844 232.234Z" fill="#C6BAA8"/>
</g>
</g>
<mask id="mask86_1_5012" style="mask-type:luminance" maskUnits="userSpaceOnUse" x="559" y="278" width="99" height="66">
<path d="M559.229 278.094H657.896V343.427H559.229V278.094Z" fill="white"/>
</mask>
<g mask="url(#mask86_1_5012)">
<mask id="mask87_1_5012" style="mask-type:luminance" maskUnits="userSpaceOnUse" x="310" y="3" width="602" height="602">
<path d="M611.224 3.15625C777.318 3.15625 911.969 137.807 911.969 303.906C911.969 470 777.318 604.656 611.224 604.656C445.12 604.656 310.474 470 310.474 303.906C310.474 137.807 445.12 3.15625 611.224 3.15625Z" fill="white"/>
</mask>
<g mask="url(#mask87_1_5012)">
<path d="M653.286 278.583L656.667 283.906L563.849 342.818L560.469 337.495L653.286 278.583Z" fill="#C6BAA8"/>
</g>
</g>
<mask id="mask88_1_5012" style="mask-type:luminance" maskUnits="userSpaceOnUse" x="556" y="324" width="105" height="71">
<path d="M556.562 324.76H660.562V394.094H556.562V324.76Z" fill="white"/>
</mask>
<g mask="url(#mask88_1_5012)">
<mask id="mask89_1_5012" style="mask-type:luminance" maskUnits="userSpaceOnUse" x="310" y="3" width="602" height="602">
<path d="M611.224 3.15625C777.318 3.15625 911.969 137.807 911.969 303.906C911.969 470 777.318 604.656 611.224 604.656C445.12 604.656 310.474 470 310.474 303.906C310.474 137.807 445.12 3.15625 611.224 3.15625Z" fill="white"/>
</mask>
<g mask="url(#mask89_1_5012)">
<path d="M656.729 324.896L660.109 330.219L560.052 393.745L556.672 388.422L656.729 324.896Z" fill="#C6BAA8"/>
</g>
</g>
<mask id="mask90_1_5012" style="mask-type:luminance" maskUnits="userSpaceOnUse" x="552" y="370" width="113" height="75">
<path d="M552.562 370.094H664.562V444.76H552.562V370.094Z" fill="white"/>
</mask>
<g mask="url(#mask90_1_5012)">
<mask id="mask91_1_5012" style="mask-type:luminance" maskUnits="userSpaceOnUse" x="310" y="3" width="602" height="602">
<path d="M611.224 3.15625C777.318 3.15625 911.969 137.807 911.969 303.906C911.969 470 777.318 604.656 611.224 604.656C445.12 604.656 310.474 470 310.474 303.906C310.474 137.807 445.12 3.15625 611.224 3.15625Z" fill="white"/>
</mask>
<g mask="url(#mask91_1_5012)">
<path d="M660.198 371.219L663.578 376.542L556.271 444.693L552.896 439.37L660.198 371.219Z" fill="#C6BAA8"/>
</g>
</g>
<mask id="mask92_1_5012" style="mask-type:luminance" maskUnits="userSpaceOnUse" x="571" y="416" width="97" height="67">
<path d="M571.229 416.76H667.229V482.094H571.229V416.76Z" fill="white"/>
</mask>
<g mask="url(#mask92_1_5012)">
<mask id="mask93_1_5012" style="mask-type:luminance" maskUnits="userSpaceOnUse" x="310" y="3" width="602" height="602">
<path d="M611.224 3.15625C777.318 3.15625 911.969 137.807 911.969 303.906C911.969 470 777.318 604.656 611.224 604.656C445.12 604.656 310.474 470 310.474 303.906C310.474 137.807 445.12 3.15625 611.224 3.15625Z" fill="white"/>
</mask>
<g mask="url(#mask93_1_5012)">
<path d="M663.667 417.573L667.047 422.896L574.766 481.552L571.385 476.229L663.667 417.573Z" fill="#C6BAA8"/>
</g>
</g>
<mask id="mask94_1_5012" style="mask-type:luminance" maskUnits="userSpaceOnUse" x="537" y="208" width="148" height="31">
<path d="M537.896 208.76H684.563V238.094H537.896V208.76Z" fill="white"/>
</mask>
<g mask="url(#mask94_1_5012)">
<mask id="mask95_1_5012" style="mask-type:luminance" maskUnits="userSpaceOnUse" x="310" y="3" width="602" height="602">
<path d="M611.224 3.15625C777.318 3.15625 911.969 137.807 911.969 303.906C911.969 470 777.318 604.656 611.224 604.656C445.12 604.656 310.474 470 310.474 303.906C310.474 137.807 445.12 3.15625 611.224 3.15625Z" fill="white"/>
</mask>
<g mask="url(#mask95_1_5012)">
<path d="M678.375 238.021H543.24L538.198 209.188H683.417L678.375 238.021ZM548.536 231.714H673.073L675.911 215.49H545.703L548.536 231.714Z" fill="#C6BAA8"/>
</g>
</g>
<mask id="mask96_1_5012" style="mask-type:luminance" maskUnits="userSpaceOnUse" x="536" y="116" width="149" height="21">
<path d="M536.562 116.76H684.562V136.76H536.562V116.76Z" fill="white"/>
</mask>
<g mask="url(#mask96_1_5012)">
<mask id="mask97_1_5012" style="mask-type:luminance" maskUnits="userSpaceOnUse" x="310" y="3" width="602" height="602">
<path d="M611.224 3.15625C777.318 3.15625 911.969 137.807 911.969 303.906C911.969 470 777.318 604.656 611.224 604.656C445.12 604.656 310.474 470 310.474 303.906C310.474 137.807 445.12 3.15625 611.224 3.15625Z" fill="white"/>
</mask>
<g mask="url(#mask97_1_5012)">
<path d="M683.854 136.464H537.62L543.479 117.177H677.995L683.854 136.464ZM546.141 130.151H675.333L673.318 123.495H548.161L546.141 130.151Z" fill="#C6BAA8"/>
</g>
</g>
<mask id="mask98_1_5012" style="mask-type:luminance" maskUnits="userSpaceOnUse" x="556" y="132" width="8" height="81">
<path d="M556.562 132.76H563.229V212.76H556.562V132.76Z" fill="white"/>
</mask>
<g mask="url(#mask98_1_5012)">
<mask id="mask99_1_5012" style="mask-type:luminance" maskUnits="userSpaceOnUse" x="310" y="3" width="602" height="602">
<path d="M611.224 3.15625C777.318 3.15625 911.969 137.807 911.969 303.906C911.969 470 777.318 604.656 611.224 604.656C445.12 604.656 310.474 470 310.474 303.906C310.474 137.807 445.12 3.15625 611.224 3.15625Z" fill="white"/>
</mask>
<g mask="url(#mask99_1_5012)">
<path d="M556.62 133.312H562.891V212.385H556.62V133.312Z" fill="#C6BAA8"/>
</g>
</g>
<mask id="mask100_1_5012" style="mask-type:luminance" maskUnits="userSpaceOnUse" x="657" y="132" width="9" height="81">
<path d="M657.896 132.76H665.896V212.76H657.896V132.76Z" fill="white"/>
</mask>
<g mask="url(#mask100_1_5012)">
<mask id="mask101_1_5012" style="mask-type:luminance" maskUnits="userSpaceOnUse" x="310" y="3" width="602" height="602">
<path d="M611.224 3.15625C777.318 3.15625 911.969 137.807 911.969 303.906C911.969 470 777.318 604.656 611.224 604.656C445.12 604.656 310.474 470 310.474 303.906C310.474 137.807 445.12 3.15625 611.224 3.15625Z" fill="white"/>
</mask>
<g mask="url(#mask101_1_5012)">
<path d="M658.74 133.312H665.005V212.385H658.74V133.312Z" fill="#C6BAA8"/>
</g>
</g>
<mask id="mask102_1_5012" style="mask-type:luminance" maskUnits="userSpaceOnUse" x="569" y="132" width="9" height="81">
<path d="M569.896 132.76H577.896V212.76H569.896V132.76Z" fill="white"/>
</mask>
<g mask="url(#mask102_1_5012)">
<mask id="mask103_1_5012" style="mask-type:luminance" maskUnits="userSpaceOnUse" x="310" y="3" width="602" height="602">
<path d="M611.224 3.15625C777.318 3.15625 911.969 137.807 911.969 303.906C911.969 470 777.318 604.656 611.224 604.656C445.12 604.656 310.474 470 310.474 303.906C310.474 137.807 445.12 3.15625 611.224 3.15625Z" fill="white"/>
</mask>
<g mask="url(#mask103_1_5012)">
<path d="M570.281 133.312H576.604V212.385H570.281V133.312Z" fill="#C6BAA8"/>
</g>
</g>
<mask id="mask104_1_5012" style="mask-type:luminance" maskUnits="userSpaceOnUse" x="644" y="132" width="9" height="81">
<path d="M644.562 132.76H652.562V212.76H644.562V132.76Z" fill="white"/>
</mask>
<g mask="url(#mask104_1_5012)">
<mask id="mask105_1_5012" style="mask-type:luminance" maskUnits="userSpaceOnUse" x="310" y="3" width="602" height="602">
<path d="M611.224 3.15625C777.318 3.15625 911.969 137.807 911.969 303.906C911.969 470 777.318 604.656 611.224 604.656C445.12 604.656 310.474 470 310.474 303.906C310.474 137.807 445.12 3.15625 611.224 3.15625Z" fill="white"/>
</mask>
<g mask="url(#mask105_1_5012)">
<path d="M645.094 133.312H651.417V212.385H645.094V133.312Z" fill="#C6BAA8"/>
</g>
</g>
<mask id="mask106_1_5012" style="mask-type:luminance" maskUnits="userSpaceOnUse" x="599" y="132" width="7" height="81">
<path d="M599.229 132.76H605.896V212.76H599.229V132.76Z" fill="white"/>
</mask>
<g mask="url(#mask106_1_5012)">
<mask id="mask107_1_5012" style="mask-type:luminance" maskUnits="userSpaceOnUse" x="310" y="3" width="602" height="602">
<path d="M611.224 3.15625C777.318 3.15625 911.969 137.807 911.969 303.906C911.969 470 777.318 604.656 611.224 604.656C445.12 604.656 310.474 470 310.474 303.906C310.474 137.807 445.12 3.15625 611.224 3.15625Z" fill="white"/>
</mask>
<g mask="url(#mask107_1_5012)">
<path d="M599.49 133.536H605.813V212.609H599.49V133.536Z" fill="#C6BAA8"/>
</g>
</g>
<mask id="mask108_1_5012" style="mask-type:luminance" maskUnits="userSpaceOnUse" x="615" y="132" width="9" height="81">
<path d="M615.229 132.76H623.229V212.76H615.229V132.76Z" fill="white"/>
</mask>
<g mask="url(#mask108_1_5012)">
<mask id="mask109_1_5012" style="mask-type:luminance" maskUnits="userSpaceOnUse" x="310" y="3" width="602" height="602">
<path d="M611.224 3.15625C777.318 3.15625 911.969 137.807 911.969 303.906C911.969 470 777.318 604.656 611.224 604.656C445.12 604.656 310.474 470 310.474 303.906C310.474 137.807 445.12 3.15625 611.224 3.15625Z" fill="white"/>
</mask>
<g mask="url(#mask109_1_5012)">
<path d="M616.24 133.536H622.563V212.609H616.24V133.536Z" fill="#C6BAA8"/>
</g>
</g>
<mask id="mask110_1_5012" style="mask-type:luminance" maskUnits="userSpaceOnUse" x="556" y="119" width="8" height="16">
<path d="M556.562 119.427H563.229V134.094H556.562V119.427Z" fill="white"/>
</mask>
<g mask="url(#mask110_1_5012)">
<mask id="mask111_1_5012" style="mask-type:luminance" maskUnits="userSpaceOnUse" x="310" y="3" width="602" height="602">
<path d="M611.224 3.15625C777.318 3.15625 911.969 137.807 911.969 303.906C911.969 470 777.318 604.656 611.224 604.656C445.12 604.656 310.474 470 310.474 303.906C310.474 137.807 445.12 3.15625 611.224 3.15625Z" fill="white"/>
</mask>
<g mask="url(#mask111_1_5012)">
<path d="M556.667 120.302H562.958V133.271H556.667V120.302Z" fill="#C6BAA8"/>
</g>
</g>
<mask id="mask112_1_5012" style="mask-type:luminance" maskUnits="userSpaceOnUse" x="568" y="119" width="9" height="16">
<path d="M568.562 119.427H576.562V134.094H568.562V119.427Z" fill="white"/>
</mask>
<g mask="url(#mask112_1_5012)">
<mask id="mask113_1_5012" style="mask-type:luminance" maskUnits="userSpaceOnUse" x="310" y="3" width="602" height="602">
<path d="M611.224 3.15625C777.318 3.15625 911.969 137.807 911.969 303.906C911.969 470 777.318 604.656 611.224 604.656C445.12 604.656 310.474 470 310.474 303.906C310.474 137.807 445.12 3.15625 611.224 3.15625Z" fill="white"/>
</mask>
<g mask="url(#mask113_1_5012)">
<path d="M569.427 120.302H575.724V133.271H569.427V120.302Z" fill="#C6BAA8"/>
</g>
</g>
<mask id="mask114_1_5012" style="mask-type:luminance" maskUnits="userSpaceOnUse" x="581" y="119" width="8" height="16">
<path d="M581.896 119.427H588.563V134.094H581.896V119.427Z" fill="white"/>
</mask>
<g mask="url(#mask114_1_5012)">
<mask id="mask115_1_5012" style="mask-type:luminance" maskUnits="userSpaceOnUse" x="310" y="3" width="602" height="602">
<path d="M611.224 3.15625C777.318 3.15625 911.969 137.807 911.969 303.906C911.969 470 777.318 604.656 611.224 604.656C445.12 604.656 310.474 470 310.474 303.906C310.474 137.807 445.12 3.15625 611.224 3.15625Z" fill="white"/>
</mask>
<g mask="url(#mask115_1_5012)">
<path d="M582.193 120.302H588.484V133.271H582.193V120.302Z" fill="#C6BAA8"/>
</g>
</g>
<mask id="mask116_1_5012" style="mask-type:luminance" maskUnits="userSpaceOnUse" x="593" y="119" width="9" height="16">
<path d="M593.896 119.427H601.896V134.094H593.896V119.427Z" fill="white"/>
</mask>
<g mask="url(#mask116_1_5012)">
<mask id="mask117_1_5012" style="mask-type:luminance" maskUnits="userSpaceOnUse" x="310" y="3" width="602" height="602">
<path d="M611.224 3.15625C777.318 3.15625 911.969 137.807 911.969 303.906C911.969 470 777.318 604.656 611.224 604.656C445.12 604.656 310.474 470 310.474 303.906C310.474 137.807 445.12 3.15625 611.224 3.15625Z" fill="white"/>
</mask>
<g mask="url(#mask117_1_5012)">
<path d="M594.958 120.302H601.25V133.271H594.958V120.302Z" fill="#C6BAA8"/>
</g>
</g>
<mask id="mask118_1_5012" style="mask-type:luminance" maskUnits="userSpaceOnUse" x="607" y="119" width="9" height="16">
<path d="M607.229 119.427H615.229V134.094H607.229V119.427Z" fill="white"/>
</mask>
<g mask="url(#mask118_1_5012)">
<mask id="mask119_1_5012" style="mask-type:luminance" maskUnits="userSpaceOnUse" x="310" y="3" width="602" height="602">
<path d="M611.224 3.15625C777.318 3.15625 911.969 137.807 911.969 303.906C911.969 470 777.318 604.656 611.224 604.656C445.12 604.656 310.474 470 310.474 303.906C310.474 137.807 445.12 3.15625 611.224 3.15625Z" fill="white"/>
</mask>
<g mask="url(#mask119_1_5012)">
<path d="M607.724 120.302H614.021V133.271H607.724V120.302Z" fill="#C6BAA8"/>
</g>
</g>
<mask id="mask120_1_5012" style="mask-type:luminance" maskUnits="userSpaceOnUse" x="619" y="119" width="9" height="16">
<path d="M619.229 119.427H627.229V134.094H619.229V119.427Z" fill="white"/>
</mask>
<g mask="url(#mask120_1_5012)">
<mask id="mask121_1_5012" style="mask-type:luminance" maskUnits="userSpaceOnUse" x="310" y="3" width="602" height="602">
<path d="M611.224 3.15625C777.318 3.15625 911.969 137.807 911.969 303.906C911.969 470 777.318 604.656 611.224 604.656C445.12 604.656 310.474 470 310.474 303.906C310.474 137.807 445.12 3.15625 611.224 3.15625Z" fill="white"/>
</mask>
<g mask="url(#mask121_1_5012)">
<path d="M620.49 120.302H626.786V133.271H620.49V120.302Z" fill="#C6BAA8"/>
</g>
</g>
<mask id="mask122_1_5012" style="mask-type:luminance" maskUnits="userSpaceOnUse" x="632" y="119" width="9" height="16">
<path d="M632.562 119.427H640.562V134.094H632.562V119.427Z" fill="white"/>
</mask>
<g mask="url(#mask122_1_5012)">
<mask id="mask123_1_5012" style="mask-type:luminance" maskUnits="userSpaceOnUse" x="310" y="3" width="602" height="602">
<path d="M611.224 3.15625C777.318 3.15625 911.969 137.807 911.969 303.906C911.969 470 777.318 604.656 611.224 604.656C445.12 604.656 310.474 470 310.474 303.906C310.474 137.807 445.12 3.15625 611.224 3.15625Z" fill="white"/>
</mask>
<g mask="url(#mask123_1_5012)">
<path d="M633.25 120.302H639.547V133.271H633.25V120.302Z" fill="#C6BAA8"/>
</g>
</g>
<mask id="mask124_1_5012" style="mask-type:luminance" maskUnits="userSpaceOnUse" x="645" y="119" width="8" height="16">
<path d="M645.896 119.427H652.562V134.094H645.896V119.427Z" fill="white"/>
</mask>
<g mask="url(#mask124_1_5012)">
<mask id="mask125_1_5012" style="mask-type:luminance" maskUnits="userSpaceOnUse" x="310" y="3" width="602" height="602">
<path d="M611.224 3.15625C777.318 3.15625 911.969 137.807 911.969 303.906C911.969 470 777.318 604.656 611.224 604.656C445.12 604.656 310.474 470 310.474 303.906C310.474 137.807 445.12 3.15625 611.224 3.15625Z" fill="white"/>
</mask>
<g mask="url(#mask125_1_5012)">
<path d="M646.016 120.302H652.313V133.271H646.016V120.302Z" fill="#C6BAA8"/>
</g>
</g>
<mask id="mask126_1_5012" style="mask-type:luminance" maskUnits="userSpaceOnUse" x="657" y="119" width="9" height="16">
<path d="M657.896 119.427H665.896V134.094H657.896V119.427Z" fill="white"/>
</mask>
<g mask="url(#mask126_1_5012)">
<mask id="mask127_1_5012" style="mask-type:luminance" maskUnits="userSpaceOnUse" x="310" y="3" width="602" height="602">
<path d="M611.224 3.15625C777.318 3.15625 911.969 137.807 911.969 303.906C911.969 470 777.318 604.656 611.224 604.656C445.12 604.656 310.474 470 310.474 303.906C310.474 137.807 445.12 3.15625 611.224 3.15625Z" fill="white"/>
</mask>
<g mask="url(#mask127_1_5012)">
<path d="M658.781 120.302H665.078V133.271H658.781V120.302Z" fill="#C6BAA8"/>
</g>
</g>
<mask id="mask128_1_5012" style="mask-type:luminance" maskUnits="userSpaceOnUse" x="556" y="211" width="8" height="25">
<path d="M556.562 211.427H563.229V235.427H556.562V211.427Z" fill="white"/>
</mask>
<g mask="url(#mask128_1_5012)">
<mask id="mask129_1_5012" style="mask-type:luminance" maskUnits="userSpaceOnUse" x="310" y="3" width="602" height="602">
<path d="M611.224 3.15625C777.318 3.15625 911.969 137.807 911.969 303.906C911.969 470 777.318 604.656 611.224 604.656C445.12 604.656 310.474 470 310.474 303.906C310.474 137.807 445.12 3.15625 611.224 3.15625Z" fill="white"/>
</mask>
<g mask="url(#mask129_1_5012)">
<path d="M556.651 212.292H562.974V234.828H556.651V212.292Z" fill="#C6BAA8"/>
</g>
</g>
<mask id="mask130_1_5012" style="mask-type:luminance" maskUnits="userSpaceOnUse" x="568" y="211" width="9" height="25">
<path d="M568.562 211.427H576.562V235.427H568.562V211.427Z" fill="white"/>
</mask>
<g mask="url(#mask130_1_5012)">
<mask id="mask131_1_5012" style="mask-type:luminance" maskUnits="userSpaceOnUse" x="310" y="3" width="602" height="602">
<path d="M611.224 3.15625C777.318 3.15625 911.969 137.807 911.969 303.906C911.969 470 777.318 604.656 611.224 604.656C445.12 604.656 310.474 470 310.474 303.906C310.474 137.807 445.12 3.15625 611.224 3.15625Z" fill="white"/>
</mask>
<g mask="url(#mask131_1_5012)">
<path d="M569.411 212.292H575.734V234.828H569.411V212.292Z" fill="#C6BAA8"/>
</g>
</g>
<mask id="mask132_1_5012" style="mask-type:luminance" maskUnits="userSpaceOnUse" x="581" y="211" width="8" height="25">
<path d="M581.896 211.427H588.563V235.427H581.896V211.427Z" fill="white"/>
</mask>
<g mask="url(#mask132_1_5012)">
<mask id="mask133_1_5012" style="mask-type:luminance" maskUnits="userSpaceOnUse" x="310" y="3" width="602" height="602">
<path d="M611.224 3.15625C777.318 3.15625 911.969 137.807 911.969 303.906C911.969 470 777.318 604.656 611.224 604.656C445.12 604.656 310.474 470 310.474 303.906C310.474 137.807 445.12 3.15625 611.224 3.15625Z" fill="white"/>
</mask>
<g mask="url(#mask133_1_5012)">
<path d="M582.177 212.292H588.5V234.828H582.177V212.292Z" fill="#C6BAA8"/>
</g>
</g>
<mask id="mask134_1_5012" style="mask-type:luminance" maskUnits="userSpaceOnUse" x="593" y="211" width="9" height="25">
<path d="M593.896 211.427H601.896V235.427H593.896V211.427Z" fill="white"/>
</mask>
<g mask="url(#mask134_1_5012)">
<mask id="mask135_1_5012" style="mask-type:luminance" maskUnits="userSpaceOnUse" x="310" y="3" width="602" height="602">
<path d="M611.224 3.15625C777.318 3.15625 911.969 137.807 911.969 303.906C911.969 470 777.318 604.656 611.224 604.656C445.12 604.656 310.474 470 310.474 303.906C310.474 137.807 445.12 3.15625 611.224 3.15625Z" fill="white"/>
</mask>
<g mask="url(#mask135_1_5012)">
<path d="M594.943 212.292H601.266V234.828H594.943V212.292Z" fill="#C6BAA8"/>
</g>
</g>
<mask id="mask136_1_5012" style="mask-type:luminance" maskUnits="userSpaceOnUse" x="607" y="211" width="9" height="25">
<path d="M607.229 211.427H615.229V235.427H607.229V211.427Z" fill="white"/>
</mask>
<g mask="url(#mask136_1_5012)">
<mask id="mask137_1_5012" style="mask-type:luminance" maskUnits="userSpaceOnUse" x="310" y="3" width="602" height="602">
<path d="M611.224 3.15625C777.318 3.15625 911.969 137.807 911.969 303.906C911.969 470 777.318 604.656 611.224 604.656C445.12 604.656 310.474 470 310.474 303.906C310.474 137.807 445.12 3.15625 611.224 3.15625Z" fill="white"/>
</mask>
<g mask="url(#mask137_1_5012)">
<path d="M607.708 212.292H614.031V234.828H607.708V212.292Z" fill="#C6BAA8"/>
</g>
</g>
<mask id="mask138_1_5012" style="mask-type:luminance" maskUnits="userSpaceOnUse" x="619" y="211" width="9" height="25">
<path d="M619.229 211.427H627.229V235.427H619.229V211.427Z" fill="white"/>
</mask>
<g mask="url(#mask138_1_5012)">
<mask id="mask139_1_5012" style="mask-type:luminance" maskUnits="userSpaceOnUse" x="310" y="3" width="602" height="602">
<path d="M611.224 3.15625C777.318 3.15625 911.969 137.807 911.969 303.906C911.969 470 777.318 604.656 611.224 604.656C445.12 604.656 310.474 470 310.474 303.906C310.474 137.807 445.12 3.15625 611.224 3.15625Z" fill="white"/>
</mask>
<g mask="url(#mask139_1_5012)">
<path d="M620.474 212.292H626.797V234.828H620.474V212.292Z" fill="#C6BAA8"/>
</g>
</g>
<mask id="mask140_1_5012" style="mask-type:luminance" maskUnits="userSpaceOnUse" x="632" y="211" width="9" height="25">
<path d="M632.562 211.427H640.562V235.427H632.562V211.427Z" fill="white"/>
</mask>
<g mask="url(#mask140_1_5012)">
<mask id="mask141_1_5012" style="mask-type:luminance" maskUnits="userSpaceOnUse" x="310" y="3" width="602" height="602">
<path d="M611.224 3.15625C777.318 3.15625 911.969 137.807 911.969 303.906C911.969 470 777.318 604.656 611.224 604.656C445.12 604.656 310.474 470 310.474 303.906C310.474 137.807 445.12 3.15625 611.224 3.15625Z" fill="white"/>
</mask>
<g mask="url(#mask141_1_5012)">
<path d="M633.24 212.292H639.563V234.828H633.24V212.292Z" fill="#C6BAA8"/>
</g>
</g>
<mask id="mask142_1_5012" style="mask-type:luminance" maskUnits="userSpaceOnUse" x="645" y="211" width="8" height="25">
<path d="M645.896 211.427H652.562V235.427H645.896V211.427Z" fill="white"/>
</mask>
<g mask="url(#mask142_1_5012)">
<mask id="mask143_1_5012" style="mask-type:luminance" maskUnits="userSpaceOnUse" x="310" y="3" width="602" height="602">
<path d="M611.224 3.15625C777.318 3.15625 911.969 137.807 911.969 303.906C911.969 470 777.318 604.656 611.224 604.656C445.12 604.656 310.474 470 310.474 303.906C310.474 137.807 445.12 3.15625 611.224 3.15625Z" fill="white"/>
</mask>
<g mask="url(#mask143_1_5012)">
<path d="M646 212.292H652.323V234.828H646V212.292Z" fill="#C6BAA8"/>
</g>
</g>
<mask id="mask144_1_5012" style="mask-type:luminance" maskUnits="userSpaceOnUse" x="657" y="211" width="9" height="25">
<path d="M657.896 211.427H665.896V235.427H657.896V211.427Z" fill="white"/>
</mask>
<g mask="url(#mask144_1_5012)">
<mask id="mask145_1_5012" style="mask-type:luminance" maskUnits="userSpaceOnUse" x="310" y="3" width="602" height="602">
<path d="M611.224 3.15625C777.318 3.15625 911.969 137.807 911.969 303.906C911.969 470 777.318 604.656 611.224 604.656C445.12 604.656 310.474 470 310.474 303.906C310.474 137.807 445.12 3.15625 611.224 3.15625Z" fill="white"/>
</mask>
<g mask="url(#mask145_1_5012)">
<path d="M658.766 212.292H665.089V234.828H658.766V212.292Z" fill="#C6BAA8"/>
</g>
</g>
<mask id="mask146_1_5012" style="mask-type:luminance" maskUnits="userSpaceOnUse" x="607" y="42" width="45" height="37">
<path d="M607.229 42.0938H651.229V78.0938H607.229V42.0938Z" fill="white"/>
</mask>
<g mask="url(#mask146_1_5012)">
<mask id="mask147_1_5012" style="mask-type:luminance" maskUnits="userSpaceOnUse" x="310" y="3" width="602" height="602">
<path d="M611.224 3.15625C777.318 3.15625 911.969 137.807 911.969 303.906C911.969 470 777.318 604.656 611.224 604.656C445.12 604.656 310.474 470 310.474 303.906C310.474 137.807 445.12 3.15625 611.224 3.15625Z" fill="white"/>
</mask>
<g mask="url(#mask147_1_5012)">
<path d="M613.896 76.8906H607.589V42.8438H650.005L640.005 52.8385L650.005 62.8281H619.745V56.5156H634.76L631.078 52.8385L634.76 49.1562H613.896V76.8906Z" fill="#C6BAA8"/>
</g>
</g>
<mask id="mask148_1_5012" style="mask-type:luminance" maskUnits="userSpaceOnUse" x="307" y="0" width="609" height="608">
<path d="M307.318 0H915.229V608H307.318V0Z" fill="white"/>
</mask>
<g mask="url(#mask148_1_5012)">
<path d="M821.651 93.474C767.802 39.6198 693.401 6.30729 611.224 6.30729C529.042 6.30729 454.641 39.6198 400.792 93.474C346.943 147.328 313.625 221.724 313.625 303.906C313.625 386.089 346.938 460.484 400.792 514.339C454.641 568.188 529.042 601.5 611.224 601.5C693.401 601.5 767.797 568.188 821.651 514.339C875.505 460.484 908.813 386.083 908.813 303.906C908.818 221.724 875.505 147.328 821.651 93.474ZM611.224 0C695.141 0 771.12 34.0156 826.115 89.0156C881.115 144.01 915.13 219.984 915.13 303.906C915.13 387.823 881.115 463.802 826.115 518.797C771.12 573.797 695.141 607.812 611.224 607.812C527.302 607.812 451.323 573.797 396.328 518.797C341.333 463.802 307.318 387.823 307.318 303.906C307.318 219.984 341.333 144.01 396.328 89.0156C451.323 34.0156 527.302 0 611.224 0Z" fill="#C6BAA8"/>
</g>
<path d="M394.042 488.516C372.474 463.172 355.266 434.026 343.573 402.24C332.307 371.578 326.146 338.453 326.146 303.906C326.146 225.188 358.057 153.917 409.646 102.328C461.234 50.7396 532.505 18.8334 611.224 18.8334C689.943 18.8334 761.214 50.7396 812.797 102.333C864.385 153.917 896.292 225.188 896.292 303.906C896.292 338.453 890.141 371.573 878.87 402.234C867.182 434.026 849.969 463.172 828.401 488.516L823.62 484.448C844.682 459.693 861.505 431.188 872.948 400.063C883.969 370.099 889.984 337.714 889.984 303.906C889.984 226.927 858.781 157.234 808.339 106.792C757.891 56.3438 688.198 25.1459 611.224 25.1459C534.245 25.1459 464.557 56.3438 414.109 106.792C363.661 157.234 332.464 226.927 332.464 303.906C332.464 337.714 338.479 370.104 349.495 400.068C360.938 431.193 377.76 459.698 398.823 484.448L394.042 488.516Z" fill="#C6BAA8"/>
<path d="M427.359 330.406C424.385 333.849 420.672 336.662 416.474 338.583C412.422 340.438 407.927 341.479 403.213 341.479C394.417 341.479 386.448 337.906 380.677 332.135C374.896 326.365 371.328 318.391 371.328 309.589C371.328 300.787 374.896 292.807 380.667 287.037C386.453 281.271 394.417 277.698 403.213 277.698C405.437 277.698 407.641 277.938 409.781 278.385C411.979 278.849 414.078 279.526 416.062 280.401L413.526 286.172C411.917 285.464 410.229 284.917 408.5 284.552C406.818 284.198 405.052 284.016 403.213 284.016C396.146 284.016 389.755 286.875 385.12 291.495C380.505 296.13 377.641 302.526 377.641 309.589C377.641 316.651 380.505 323.047 385.13 327.672C389.755 332.302 396.146 335.167 403.213 335.167C407.031 335.167 410.635 334.339 413.864 332.859C417.224 331.318 420.203 329.063 422.599 326.287L427.359 330.406Z" fill="#C6BAA8"/>
<path d="M413.531 295.203C412.854 293.667 412.323 292.026 411.964 290.312C411.615 288.635 411.427 286.927 411.427 285.198C411.427 278.333 414.214 272.12 418.708 267.625C423.203 263.125 429.422 260.344 436.286 260.344C441.052 260.344 445.505 261.687 449.292 264.016C453.193 266.417 456.391 269.88 458.474 274.005L452.849 276.839C451.302 273.776 448.912 271.193 445.99 269.391C443.172 267.656 439.844 266.656 436.286 266.656C431.167 266.656 426.526 268.729 423.172 272.083C419.823 275.437 417.745 280.078 417.745 285.198C417.745 286.536 417.88 287.818 418.13 289.031C418.391 290.276 418.792 291.495 419.302 292.667L413.531 295.203Z" fill="#C6BAA8"/>
<path d="M446.229 276.557C447.677 275.224 449.385 274.146 451.255 273.411C453.078 272.703 455.042 272.312 457.083 272.312C461.5 272.312 465.505 274.109 468.406 277.005L468.422 277.021C471.318 279.922 473.115 283.927 473.115 288.339L473.078 289.271C473.057 289.516 472.984 290.656 472.891 290.948C472.26 294.786 470.271 298.161 467.437 300.562C464.646 302.938 461.026 304.37 457.089 304.37V298.052C459.49 298.052 461.682 297.188 463.37 295.755C465.078 294.307 466.281 292.276 466.672 289.979L466.745 289.479L466.792 288.906L466.797 288.339C466.797 285.656 465.714 283.219 463.964 281.464C462.208 279.714 459.771 278.63 457.089 278.63C455.828 278.63 454.641 278.859 453.557 279.281C452.417 279.729 451.385 280.38 450.5 281.198L446.229 276.557Z" fill="#C6BAA8"/>
<path d="M472.812 322.609C472.812 332.104 468.953 340.714 462.729 346.943L462.713 346.953C456.484 353.182 447.88 357.042 438.38 357.042C431.828 357.042 425.693 355.198 420.463 352.005C415.068 348.714 410.651 343.974 407.75 338.328L413.349 335.448C415.719 340.062 419.333 343.938 423.739 346.63C427.995 349.229 433.01 350.724 438.38 350.724C446.146 350.724 453.182 347.578 458.271 342.495C463.349 337.406 466.495 330.375 466.495 322.609H472.812Z" fill="#C6BAA8"/>
<path d="M469.333 287.24C470.167 287.057 471.042 286.917 471.948 286.823C472.875 286.729 473.755 286.677 474.594 286.677C481.531 286.677 487.813 289.495 492.37 294.047L492.38 294.057C496.927 298.609 499.745 304.896 499.745 311.833C499.745 318.781 496.932 325.068 492.38 329.62C487.813 334.167 481.531 336.99 474.594 336.99C473.344 336.99 472.094 336.891 470.859 336.708C469.646 336.526 468.422 336.24 467.208 335.87L469.036 329.854C469.885 330.115 470.802 330.323 471.771 330.469C472.672 330.599 473.62 330.672 474.594 330.672C479.797 330.672 484.516 328.563 487.922 325.161C491.323 321.75 493.432 317.036 493.432 311.833C493.432 306.63 491.328 301.917 487.922 298.505C484.516 295.099 479.797 292.99 474.594 292.99C473.859 292.99 473.193 293.021 472.594 293.089C471.958 293.156 471.302 293.26 470.635 293.401L469.333 287.24Z" fill="#C6BAA8"/>
<path d="M799.844 326.287C802.24 329.063 805.219 331.318 808.578 332.859C811.807 334.339 815.411 335.167 819.229 335.167C826.292 335.167 832.687 332.302 837.312 327.672C841.937 323.047 844.802 316.651 844.802 309.589C844.802 302.526 841.937 296.13 837.312 291.505C832.687 286.88 826.292 284.016 819.229 284.016C817.391 284.016 815.62 284.198 813.943 284.552C812.208 284.917 810.526 285.464 808.922 286.172L806.38 280.401C808.359 279.526 810.464 278.849 812.661 278.385C814.802 277.938 817 277.698 819.229 277.698C828.031 277.698 836.01 281.271 841.776 287.037C847.547 292.807 851.115 300.787 851.115 309.589C851.115 318.391 847.547 326.365 841.776 332.135C836.01 337.906 828.031 341.479 819.229 341.479C814.516 341.479 810.021 340.438 805.969 338.583C801.771 336.662 798.057 333.849 795.089 330.406L799.844 326.287Z" fill="#C6BAA8"/>
<path d="M803.141 292.667C803.651 291.495 804.047 290.281 804.312 289.031C804.562 287.823 804.698 286.536 804.698 285.198C804.698 280.078 802.62 275.437 799.266 272.083C795.911 268.729 791.276 266.656 786.156 266.656C782.599 266.656 779.271 267.656 776.453 269.391C773.531 271.193 771.141 273.776 769.589 276.839L763.969 274.005C766.052 269.88 769.245 266.417 773.151 264.016C776.938 261.687 781.396 260.344 786.156 260.344C793.021 260.344 799.234 263.125 803.729 267.625C808.229 272.12 811.016 278.333 811.016 285.198C811.016 286.927 810.828 288.635 810.479 290.312C810.12 292.026 809.589 293.667 808.911 295.203L803.141 292.667Z" fill="#C6BAA8"/>
<path d="M771.948 281.198C771.062 280.38 770.026 279.724 768.891 279.281C767.807 278.859 766.615 278.63 765.354 278.63C762.677 278.63 760.245 279.714 758.49 281.469C756.734 283.219 755.646 285.651 755.646 288.339C755.651 288.911 755.672 289.406 755.776 289.974C756.161 292.276 757.365 294.307 759.073 295.755C760.76 297.188 762.953 298.052 765.354 298.052V304.365C761.417 304.365 757.802 302.938 755.005 300.563C752.172 298.156 750.182 294.781 749.552 290.948C749.458 290.656 749.391 289.526 749.37 289.276L749.333 288.339C749.333 283.922 751.13 279.922 754.026 277.016C756.927 274.109 760.932 272.312 765.354 272.312C767.396 272.312 769.365 272.698 771.182 273.411C773.062 274.141 774.766 275.224 776.213 276.557L771.948 281.198Z" fill="#C6BAA8"/>
<path d="M755.948 322.609C755.948 330.37 759.094 337.401 764.177 342.49C769.26 347.578 776.292 350.724 784.062 350.724C789.432 350.724 794.448 349.229 798.698 346.63C803.109 343.938 806.719 340.057 809.094 335.443L814.693 338.328C811.792 343.974 807.37 348.708 801.979 352.005C796.745 355.193 790.615 357.042 784.062 357.042C774.562 357.042 765.958 353.182 759.724 346.953C753.484 340.724 749.63 332.109 749.63 322.609H755.948Z" fill="#C6BAA8"/>
<path d="M751.802 293.401C751.141 293.26 750.49 293.151 749.849 293.089C749.25 293.021 748.583 292.99 747.849 292.99C742.641 292.99 737.932 295.099 734.521 298.5C731.12 301.911 729.01 306.625 729.01 311.833C729.01 317.036 731.12 321.745 734.526 325.156C737.932 328.563 742.641 330.672 747.849 330.672C748.828 330.672 749.771 330.599 750.672 330.464C751.62 330.328 752.531 330.115 753.396 329.854L755.245 335.87C754.042 336.234 752.812 336.521 751.583 336.703C750.344 336.885 749.099 336.984 747.849 336.984C740.911 336.984 734.625 334.167 730.078 329.615C725.51 325.068 722.698 318.776 722.698 311.833C722.698 304.896 725.51 298.609 730.062 294.057L730.078 294.047C734.625 289.495 740.911 286.677 747.849 286.677C748.682 286.677 749.568 286.729 750.49 286.823C751.401 286.917 752.276 287.057 753.109 287.234L751.802 293.401Z" fill="#C6BAA8"/>
<path d="M0 647.375H26.9583C40.5104 647.375 50.4583 650.161 56.7917 655.729C63.125 661.286 66.2917 670.349 66.2917 682.917C66.2917 700.115 60.7813 710.531 49.7708 714.167L68.7708 781.292H50.75L33.2292 718.458H18.6875V781.292H0V647.375ZM25.7917 705.083C33.8333 705.083 39.5885 703.49 43.0625 700.292C46.5313 697.083 48.2708 691.292 48.2708 682.917C48.2708 677.406 47.6667 673.078 46.4583 669.938C45.25 666.802 43.0938 664.49 40 663C36.9167 661.516 32.5677 660.771 26.9583 660.771H18.6875V705.083H25.7917Z" fill="#C6BAA8"/>
<path d="M115.239 647.375H133.26L161.864 781.292H144.177L138.052 747.562H110.781L104.322 781.292H86.8015L115.239 647.375ZM135.572 734.167L124.322 673.833L113.26 734.167H135.572Z" fill="#C6BAA8"/>
<path d="M184.681 647.375H203.014V781.292H184.681V647.375Z" fill="#C6BAA8"/>
<path d="M264.533 782.771C253.283 782.771 244.704 779.302 238.803 772.354C232.913 765.412 229.642 755.886 228.991 743.771L245.512 739.292C246.064 747.891 247.746 754.833 250.553 760.125C253.371 765.417 258.033 768.063 264.533 768.063C269.376 768.063 273.038 766.719 275.512 764.021C277.996 761.313 279.241 757.427 279.241 752.354C279.241 746.844 278.079 742.271 275.762 738.646C273.454 735.011 269.767 730.979 264.699 726.563L242.199 706.729C237.684 702.761 234.408 698.49 232.366 693.917C230.324 689.333 229.303 683.74 229.303 677.125C229.303 667.323 232.116 659.719 237.741 654.313C243.366 648.912 251.022 646.208 260.72 646.208C271.303 646.208 279.293 649.021 284.699 654.646C290.1 660.271 293.35 668.979 294.449 680.771L278.574 685.063C278.033 677.245 276.517 671.219 274.033 666.979C271.559 662.729 267.121 660.604 260.72 660.604C255.98 660.604 252.345 661.849 249.803 664.333C247.272 666.807 246.012 670.469 246.012 675.313C246.012 679.287 246.668 682.625 247.991 685.333C249.309 688.031 251.574 690.75 254.783 693.5L277.428 713.333C283.262 718.516 287.913 724.141 291.387 730.208C294.855 736.266 296.595 743.156 296.595 750.875C296.595 760.682 293.616 768.453 287.658 774.188C281.71 779.912 274.001 782.771 264.533 782.771Z" fill="#C6BAA8"/>
<path d="M320.416 647.375H338.75V781.292H320.416V647.375Z" fill="#C6BAA8"/>
<path d="M368.685 647.375H381.414L419.435 736.312V647.375H434.977V781.292H423.081L384.56 689.854V781.292H368.685V647.375Z" fill="#C6BAA8"/>
<path d="M496.162 782.938C484.037 782.938 475.271 779.115 469.87 771.458C464.464 763.792 461.766 752.412 461.766 737.313V692.5C461.766 682.141 462.834 673.625 464.974 666.958C467.125 660.292 470.818 655.167 476.058 651.583C481.292 648 488.485 646.208 497.641 646.208C509.985 646.208 518.891 649.354 524.349 655.646C529.808 661.927 532.537 671.787 532.537 685.229V690.188H514.995V686.063C514.995 679.677 514.605 674.745 513.828 671.271C513.063 667.802 511.438 665.182 508.953 663.417C506.48 661.656 502.818 660.771 497.974 660.771C492.792 660.771 488.933 661.958 486.391 664.333C483.86 666.698 482.235 669.865 481.516 673.833C480.808 677.792 480.453 683.078 480.453 689.688V739.292C480.453 749.542 481.688 756.906 484.162 761.375C486.646 765.833 491.417 768.063 498.474 768.063C505.417 768.063 510.183 765.641 512.766 760.792C515.36 755.948 516.662 748.177 516.662 737.479V728.229H499.62V715H533.516V781.292H521.787L519.953 765.917C515.771 777.266 507.839 782.938 496.162 782.938Z" fill="#C6BAA8"/>
<path d="M628.257 647.375H646.278L674.882 781.292H657.194L651.069 747.562H623.798L617.34 781.292H599.819L628.257 647.375ZM648.59 734.167L637.34 673.833L626.278 734.167H648.59Z" fill="#C6BAA8"/>
<path d="M711.407 661.25H688.761V647.375H752.094V661.25H730.094V781.292H711.407V661.25Z" fill="#C6BAA8"/>
<path d="M773.246 647.375H791.934V767.896H826.142V781.292H773.246V647.375Z" fill="#C6BAA8"/>
<path d="M868.315 647.375H886.336L914.94 781.292H897.253L891.128 747.562H863.857L857.398 781.292H839.878L868.315 647.375ZM888.648 734.167L877.398 673.833L866.336 734.167H888.648Z" fill="#C6BAA8"/>
<path d="M936.757 647.375H949.486L987.507 736.312V647.375H1003.05V781.292H991.153L952.632 689.854V781.292H936.757V647.375Z" fill="#C6BAA8"/>
<path d="M1047.03 661.25H1024.38V647.375H1087.71V661.25H1065.71V781.292H1047.03V661.25Z" fill="#C6BAA8"/>
<path d="M1109.86 647.375H1128.2V781.292H1109.86V647.375Z" fill="#C6BAA8"/>
<path d="M1191.7 782.771C1178.47 782.771 1169.16 778.833 1163.76 770.958C1158.35 763.083 1155.65 752.203 1155.65 738.313V691.021C1155.65 676.354 1158.3 665.224 1163.59 657.625C1168.88 650.016 1178.25 646.208 1191.7 646.208C1203.71 646.208 1212.33 649.469 1217.57 655.979C1222.81 662.479 1225.42 672.063 1225.42 684.729V695.313H1207.74V685.896C1207.74 679.729 1207.46 674.995 1206.9 671.688C1206.35 668.37 1204.94 665.724 1202.67 663.75C1200.42 661.766 1196.82 660.771 1191.86 660.771C1186.79 660.771 1183.01 661.849 1180.53 664C1178.06 666.141 1176.43 669.115 1175.65 672.917C1174.89 676.724 1174.51 681.823 1174.51 688.208V741.271C1174.51 748.12 1175.06 753.474 1176.15 757.333C1177.25 761.182 1179.03 763.932 1181.51 765.583C1183.99 767.24 1187.45 768.063 1191.86 768.063C1196.6 768.063 1200.12 767.021 1202.42 764.938C1204.74 762.844 1206.21 759.974 1206.82 756.333C1207.43 752.698 1207.74 747.729 1207.74 741.438V731.521H1225.42V741.438C1225.42 754.787 1222.91 765.016 1217.9 772.125C1212.89 779.224 1204.15 782.771 1191.7 782.771Z" fill="#C6BAA8"/>
<path d="M48.6034 847.923L56.1659 833.381H60.4992L50.52 851.548V862.34H46.7075V851.548L36.7075 833.381H41.0825L48.6034 847.923Z" fill="#C6BAA8"/>
<path d="M118.798 848.798C118.798 851.631 118.319 854.111 117.361 856.236C116.413 858.35 115.069 859.96 113.319 861.069C111.569 862.184 109.527 862.736 107.194 862.736C104.913 862.736 102.892 862.184 101.131 861.069C99.3658 859.944 97.996 858.35 97.0272 856.277C96.0533 854.194 95.5533 851.788 95.5272 849.048V846.965C95.5272 844.189 96.0064 841.73 96.9647 839.59C97.9335 837.454 99.3033 835.819 101.069 834.694C102.845 833.559 104.871 832.986 107.152 832.986C109.47 832.986 111.512 833.548 113.277 834.673C115.053 835.788 116.413 837.413 117.361 839.548C118.319 841.673 118.798 844.147 118.798 846.965V848.798ZM115.006 846.923C115.006 843.496 114.319 840.861 112.944 839.027C111.569 837.194 109.637 836.277 107.152 836.277C104.736 836.277 102.829 837.194 101.444 839.027C100.069 840.861 99.3606 843.413 99.3189 846.673V848.798C99.3189 852.131 100.012 854.751 101.402 856.652C102.803 858.543 104.736 859.486 107.194 859.486C109.663 859.486 111.574 858.59 112.923 856.798C114.267 855.006 114.965 852.434 115.006 849.069V846.923Z" fill="#C6BAA8"/>
<path d="M177.219 833.381V853.069C177.204 855.808 176.344 858.043 174.636 859.777C172.928 861.517 170.615 862.486 167.698 862.694L166.698 862.736C163.532 862.736 161 861.881 159.115 860.173C157.24 858.465 156.287 856.111 156.261 853.111V833.381H160.032V852.986C160.032 855.084 160.605 856.715 161.761 857.881C162.912 859.038 164.558 859.611 166.698 859.611C168.849 859.611 170.5 859.038 171.657 857.881C172.808 856.73 173.386 855.105 173.386 853.006V833.381H177.219Z" fill="#C6BAA8"/>
<path d="M226.154 850.631H219.362V862.34H215.508V833.381H225.092C228.352 833.381 230.862 834.126 232.612 835.611C234.373 837.1 235.258 839.256 235.258 842.09C235.258 843.897 234.769 845.475 233.8 846.819C232.826 848.152 231.472 849.152 229.737 849.819L236.529 862.111V862.34H232.446L226.154 850.631ZM219.362 847.506H225.217C227.118 847.506 228.623 847.022 229.737 846.048C230.862 845.064 231.425 843.746 231.425 842.09C231.425 840.298 230.888 838.933 229.821 837.986C228.748 837.027 227.206 836.543 225.196 836.527H219.362V847.506Z" fill="#C6BAA8"/>
<path d="M319.139 859.215H332.847V862.34H315.285V833.381H319.139V859.215Z" fill="#C6BAA8"/>
<path d="M391.768 848.798C391.768 851.631 391.289 854.111 390.331 856.236C389.383 858.35 388.039 859.96 386.289 861.069C384.539 862.184 382.497 862.736 380.164 862.736C377.883 862.736 375.862 862.184 374.101 861.069C372.336 859.944 370.966 858.35 369.997 856.277C369.023 854.194 368.523 851.788 368.497 849.048V846.965C368.497 844.189 368.976 841.73 369.935 839.59C370.903 837.454 372.273 835.819 374.039 834.694C375.815 833.559 377.841 832.986 380.122 832.986C382.44 832.986 384.482 833.548 386.247 834.673C388.023 835.788 389.383 837.413 390.331 839.548C391.289 841.673 391.768 844.147 391.768 846.965V848.798ZM387.976 846.923C387.976 843.496 387.289 840.861 385.914 839.027C384.539 837.194 382.607 836.277 380.122 836.277C377.706 836.277 375.799 837.194 374.414 839.027C373.039 840.861 372.331 843.413 372.289 846.673V848.798C372.289 852.131 372.982 854.751 374.372 856.652C375.773 858.543 377.706 859.486 380.164 859.486C382.633 859.486 384.544 858.59 385.893 856.798C387.237 855.006 387.935 852.434 387.976 849.069V846.923Z" fill="#C6BAA8"/>
<path d="M451.106 853.152C450.741 856.21 449.611 858.569 447.71 860.236C445.804 861.902 443.278 862.736 440.127 862.736C436.694 862.736 433.95 861.517 431.897 859.069C429.84 856.611 428.814 853.329 428.814 849.215V846.423C428.814 843.746 429.293 841.381 430.252 839.34C431.21 837.298 432.569 835.73 434.335 834.631C436.095 833.538 438.137 832.986 440.46 832.986C443.528 832.986 445.991 833.85 447.856 835.569C449.715 837.277 450.798 839.652 451.106 842.694H447.252C446.929 840.392 446.215 838.725 445.106 837.694C443.991 836.652 442.444 836.131 440.46 836.131C438.012 836.131 436.095 837.038 434.71 838.84C433.335 840.631 432.647 843.194 432.647 846.527V849.34C432.647 852.48 433.298 854.98 434.606 856.84C435.923 858.689 437.762 859.611 440.127 859.611C442.236 859.611 443.861 859.131 445.002 858.173C446.137 857.215 446.887 855.543 447.252 853.152H451.106Z" fill="#C6BAA8"/>
<path d="M504.598 854.777H492.473L489.744 862.34H485.807L496.848 833.381H500.203L511.286 862.34H507.369L504.598 854.777ZM493.619 851.631H503.453L498.536 838.09L493.619 851.631Z" fill="#C6BAA8"/>
<path d="M551.317 859.215H565.026V862.34H547.463V833.381H551.317V859.215Z" fill="#C6BAA8"/>
<path d="M665.37 853.152C665.006 856.21 663.875 858.569 661.974 860.236C660.068 861.902 657.542 862.736 654.391 862.736C650.959 862.736 648.214 861.517 646.162 859.069C644.104 856.611 643.078 853.329 643.078 849.215V846.423C643.078 843.746 643.558 841.381 644.516 839.34C645.474 837.298 646.834 835.73 648.599 834.631C650.36 833.538 652.401 832.986 654.724 832.986C657.792 832.986 660.256 833.85 662.12 835.569C663.979 837.277 665.063 839.652 665.37 842.694H661.516C661.193 840.392 660.479 838.725 659.37 837.694C658.256 836.652 656.709 836.131 654.724 836.131C652.276 836.131 650.36 837.038 648.974 838.84C647.599 840.631 646.912 843.194 646.912 846.527V849.34C646.912 852.48 647.563 854.98 648.87 856.84C650.188 858.689 652.026 859.611 654.391 859.611C656.5 859.611 658.125 859.131 659.266 858.173C660.401 857.215 661.151 855.543 661.516 853.152H665.37Z" fill="#C6BAA8"/>
<path d="M725.134 848.798C725.134 851.631 724.654 854.111 723.696 856.236C722.748 858.35 721.404 859.96 719.654 861.069C717.904 862.184 715.863 862.736 713.529 862.736C711.248 862.736 709.227 862.184 707.467 861.069C705.701 859.944 704.331 858.35 703.363 856.277C702.389 854.194 701.889 851.788 701.863 849.048V846.965C701.863 844.189 702.342 841.73 703.3 839.59C704.269 837.454 705.639 835.819 707.404 834.694C709.18 833.559 711.206 832.986 713.488 832.986C715.805 832.986 717.847 833.548 719.613 834.673C721.389 835.788 722.748 837.413 723.696 839.548C724.654 841.673 725.134 844.147 725.134 846.965V848.798ZM721.342 846.923C721.342 843.496 720.654 840.861 719.279 839.027C717.904 837.194 715.972 836.277 713.488 836.277C711.071 836.277 709.165 837.194 707.779 839.027C706.404 840.861 705.696 843.413 705.654 846.673V848.798C705.654 852.131 706.347 854.751 707.738 856.652C709.139 858.543 711.071 859.486 713.529 859.486C715.998 859.486 717.91 858.59 719.259 856.798C720.602 855.006 721.3 852.434 721.342 849.069V846.923Z" fill="#C6BAA8"/>
<path d="M785.43 862.34H781.575L767.013 840.027V862.34H763.159V833.381H767.013L781.617 855.798V833.381H785.43V862.34Z" fill="#C6BAA8"/>
<path d="M846.76 862.34H842.906L828.343 840.027V862.34H824.489V833.381H828.343L842.947 855.798V833.381H846.76V862.34Z" fill="#C6BAA8"/>
<path d="M902.194 848.965H889.652V859.215H904.215V862.34H885.819V833.381H904.027V836.527H889.652V845.84H902.194V848.965Z" fill="#C6BAA8"/>
<path d="M962.576 853.152C962.212 856.21 961.082 858.569 959.181 860.236C957.274 861.902 954.748 862.736 951.597 862.736C948.165 862.736 945.42 861.517 943.368 859.069C941.311 856.611 940.285 853.329 940.285 849.215V846.423C940.285 843.746 940.764 841.381 941.722 839.34C942.681 837.298 944.04 835.73 945.806 834.631C947.566 833.538 949.608 832.986 951.931 832.986C954.998 832.986 957.462 833.85 959.326 835.569C961.186 837.277 962.269 839.652 962.576 842.694H958.722C958.399 840.392 957.686 838.725 956.576 837.694C955.462 836.652 953.915 836.131 951.931 836.131C949.483 836.131 947.566 837.038 946.181 838.84C944.806 840.631 944.118 843.194 944.118 846.527V849.34C944.118 852.48 944.769 854.98 946.076 856.84C947.394 858.689 949.233 859.611 951.597 859.611C953.707 859.611 955.332 859.131 956.472 858.173C957.608 857.215 958.358 855.543 958.722 853.152H962.576Z" fill="#C6BAA8"/>
<path d="M1020.09 836.527H1010.78V862.34H1006.99V836.527H997.694V833.381H1020.09V836.527Z" fill="#C6BAA8"/>
<path d="M1060.77 862.34H1056.96V833.381H1060.77V862.34Z" fill="#C6BAA8"/>
<path d="M1122.31 848.798C1122.31 851.631 1121.84 854.111 1120.88 856.236C1119.93 858.35 1118.59 859.96 1116.84 861.069C1115.09 862.184 1113.04 862.736 1110.71 862.736C1108.43 862.736 1106.41 862.184 1104.65 861.069C1102.88 859.944 1101.51 858.35 1100.54 856.277C1099.57 854.194 1099.07 851.788 1099.04 849.048V846.965C1099.04 844.189 1099.52 841.73 1100.48 839.59C1101.45 837.454 1102.82 835.819 1104.59 834.694C1106.36 833.559 1108.39 832.986 1110.67 832.986C1112.99 832.986 1115.03 833.548 1116.79 834.673C1118.57 835.788 1119.93 837.413 1120.88 839.548C1121.84 841.673 1122.31 844.147 1122.31 846.965V848.798ZM1118.52 846.923C1118.52 843.496 1117.84 840.861 1116.46 839.027C1115.09 837.194 1113.15 836.277 1110.67 836.277C1108.25 836.277 1106.35 837.194 1104.96 839.027C1103.59 840.861 1102.88 843.413 1102.84 846.673V848.798C1102.84 852.131 1103.53 854.751 1104.92 856.652C1106.32 858.543 1108.25 859.486 1110.71 859.486C1113.18 859.486 1115.09 858.59 1116.44 856.798C1117.78 855.006 1118.48 852.434 1118.52 849.069V846.923Z" fill="#C6BAA8"/>
<path d="M1182.61 862.34H1178.76L1164.19 840.027V862.34H1160.34V833.381H1164.19L1178.8 855.798V833.381H1182.61V862.34Z" fill="#C6BAA8"/>
</svg>
