<svg xmlns="http://www.w3.org/2000/svg" width="500" height="500" viewBox="0 0 500 500" fill="none"><path d="M250 486C380.339 486 486 380.339 486 250C486 119.661 380.339 14 250 14C119.661 14 14 119.661 14 250C14 380.339 119.661 486 250 486Z" stroke="url(#paint0_linear_18_43)" stroke-width="28"></path><mask id="mask0_18_43" style="mask-type:luminance" maskUnits="userSpaceOnUse" x="190" y="194" width="120" height="240">
<path d="M210 194H290L310 434H190L210 194Z" fill="white"></path>
</mask><g mask="url(#mask0_18_43)">
<path d="M151 253L331 203" stroke="url(#paint1_linear_18_43)" stroke-width="24"></path>
<path d="M151 268L331 218" stroke="url(#paint2_linear_18_43)" stroke-width="24"></path>
<path d="M154 312L334 262" stroke="url(#paint3_linear_18_43)" stroke-width="24"></path>
<path d="M154 329L334 279" stroke="url(#paint4_linear_18_43)" stroke-width="24"></path>
<path d="M154 434L334 384" stroke="url(#paint5_linear_18_43)" stroke-width="24"></path>
<path d="M154 494L334 444" stroke="url(#paint6_linear_18_43)" stroke-width="24"></path>
</g><path d="M188.689 369.753L309.083 331.525" stroke="url(#paint7_linear_18_43)" stroke-width="24"></path><path d="M187 386.668L307.394 348.441" stroke="url(#paint8_linear_18_43)" stroke-width="24"></path><path d="M210 194H290L310 434H190L210 194Z" stroke="url(#paint9_linear_18_43)" stroke-width="24" stroke-linejoin="round"></path><path d="M280 134H220V194H280V134Z" stroke="url(#paint10_linear_18_43)" stroke-width="24" stroke-linejoin="round"></path><path d="M280 152H220V175H280V152Z" stroke="url(#paint11_linear_18_43)" stroke-width="24" stroke-linejoin="round"></path><path d="M200 134L250 84L300 134H200Z" stroke="url(#paint12_linear_18_43)" stroke-width="24" stroke-linejoin="round"></path><path d="M250 50L276 58L250 66V50Z" stroke="url(#paint13_linear_18_43)" stroke-width="12" stroke-linejoin="round"></path><path d="M179 158L99 129" stroke="url(#paint14_linear_18_43)" stroke-width="16" stroke-linecap="round"></path><path d="M179 188L99 217" stroke="url(#paint15_linear_18_43)" stroke-width="16" stroke-linecap="round"></path><path d="M325 158L405 129" stroke="url(#paint16_linear_18_43)" stroke-width="16" stroke-linecap="round"></path><path d="M321 188L382 210" stroke="url(#paint17_linear_18_43)" stroke-width="16" stroke-linecap="round"></path><path d="M49.2132 271.864C47.587 268.345 46.8377 264.484 47.0293 260.612C47.221 256.739 48.3478 252.971 50.3136 249.629C52.2793 246.288 55.0254 243.472 58.3168 241.423C61.6082 239.374 65.347 238.153 69.2132 237.864C71.4864 231.74 75.5793 226.459 80.9422 222.729C86.305 218.999 92.6809 217 99.2132 217C105.746 217 112.121 218.999 117.484 222.729C122.847 226.459 126.94 231.74 129.213 237.864C133.079 238.153 136.818 239.374 140.11 241.423C143.401 243.472 146.147 246.288 148.113 249.629C150.079 252.971 151.205 256.739 151.397 260.612C151.589 264.484 150.839 268.345 149.213 271.864H49.2132Z" stroke="url(#paint18_linear_18_43)" stroke-width="20" stroke-linejoin="round"></path><path d="M358.213 253.864C356.587 250.345 355.838 246.484 356.029 242.612C356.221 238.739 357.348 234.971 359.314 231.629C361.279 228.288 364.025 225.472 367.317 223.423C370.608 221.374 374.347 220.153 378.213 219.864C380.486 213.74 384.579 208.459 389.942 204.729C395.305 200.999 401.681 199 408.213 199C414.746 199 421.121 200.999 426.484 204.729C431.847 208.459 435.94 213.74 438.213 219.864C442.079 220.153 445.818 221.374 449.11 223.423C452.401 225.472 455.147 228.288 457.113 231.629C459.079 234.971 460.206 238.739 460.397 242.612C460.589 246.484 459.839 250.345 458.213 253.864H358.213Z" stroke="url(#paint19_linear_18_43)" stroke-width="20" stroke-linejoin="round"></path><path d="M112 425C142 367.857 172 367.857 202 425C232.667 345 263.333 345 294 425C324 367.857 354 367.857 384 425" stroke="url(#paint20_linear_18_43)" stroke-width="24" stroke-linecap="round" stroke-linejoin="round"></path><path d="M84 418C124 388.476 164 388.476 204 418C234.667 376.667 265.333 376.667 296 418C336 388.476 376 388.476 416 418" stroke="url(#paint21_linear_18_43)" stroke-width="24" stroke-linecap="round" stroke-linejoin="round"></path><ellipse cx="248" cy="433.5" rx="141" ry="42.5" fill="#D9D9D9"></ellipse><ellipse cx="248" cy="433.5" rx="141" ry="42.5" fill="url(#paint22_linear_18_43)"></ellipse><defs>
<linearGradient id="paint0_linear_18_43" x1="-6" y1="-6" x2="506" y2="506" gradientUnits="userSpaceOnUse">
<stop stop-color="#605BFF"></stop>
<stop offset="1" stop-color="#FF00AA"></stop>
</linearGradient>
<linearGradient id="paint1_linear_18_43" x1="-9" y1="-7" x2="503" y2="505" gradientUnits="userSpaceOnUse">
<stop stop-color="#605BFF"></stop>
<stop offset="1" stop-color="#FF00AA"></stop>
</linearGradient>
<linearGradient id="paint2_linear_18_43" x1="-9" y1="8" x2="503" y2="520" gradientUnits="userSpaceOnUse">
<stop stop-color="#605BFF"></stop>
<stop offset="1" stop-color="#FF00AA"></stop>
</linearGradient>
<linearGradient id="paint3_linear_18_43" x1="-6" y1="-8" x2="506" y2="504" gradientUnits="userSpaceOnUse">
<stop stop-color="#605BFF"></stop>
<stop offset="1" stop-color="#FF00AA"></stop>
</linearGradient>
<linearGradient id="paint4_linear_18_43" x1="-6" y1="-51" x2="506" y2="461" gradientUnits="userSpaceOnUse">
<stop stop-color="#605BFF"></stop>
<stop offset="1" stop-color="#FF00AA"></stop>
</linearGradient>
<linearGradient id="paint5_linear_18_43" x1="-6" y1="-6" x2="506" y2="506" gradientUnits="userSpaceOnUse">
<stop stop-color="#605BFF"></stop>
<stop offset="1" stop-color="#FF00AA"></stop>
</linearGradient>
<linearGradient id="paint6_linear_18_43" x1="-6" y1="-6" x2="506" y2="506" gradientUnits="userSpaceOnUse">
<stop stop-color="#605BFF"></stop>
<stop offset="1" stop-color="#FF00AA"></stop>
</linearGradient>
<linearGradient id="paint7_linear_18_43" x1="117.881" y1="41.0914" x2="551.987" y2="386.413" gradientUnits="userSpaceOnUse">
<stop stop-color="#605BFF"></stop>
<stop offset="1" stop-color="#FF00AA"></stop>
</linearGradient>
<linearGradient id="paint8_linear_18_43" x1="122.154" y1="-1.69583" x2="556.259" y2="343.626" gradientUnits="userSpaceOnUse">
<stop stop-color="#605BFF"></stop>
<stop offset="1" stop-color="#FF00AA"></stop>
</linearGradient>
<linearGradient id="paint9_linear_18_43" x1="-6" y1="-6" x2="506" y2="506" gradientUnits="userSpaceOnUse">
<stop stop-color="#605BFF"></stop>
<stop offset="1" stop-color="#FF00AA"></stop>
</linearGradient>
<linearGradient id="paint10_linear_18_43" x1="-6" y1="-6" x2="506" y2="506" gradientUnits="userSpaceOnUse">
<stop stop-color="#605BFF"></stop>
<stop offset="1" stop-color="#FF00AA"></stop>
</linearGradient>
<linearGradient id="paint11_linear_18_43" x1="-6" y1="98.3333" x2="125.193" y2="440.576" gradientUnits="userSpaceOnUse">
<stop stop-color="#605BFF"></stop>
<stop offset="1" stop-color="#FF00AA"></stop>
</linearGradient>
<linearGradient id="paint12_linear_18_43" x1="-6" y1="-6" x2="506" y2="506" gradientUnits="userSpaceOnUse">
<stop stop-color="#605BFF"></stop>
<stop offset="1" stop-color="#FF00AA"></stop>
</linearGradient>
<linearGradient id="paint13_linear_18_43" x1="-12" y1="-10" x2="500" y2="502" gradientUnits="userSpaceOnUse">
<stop stop-color="#605BFF"></stop>
<stop offset="1" stop-color="#FF00AA"></stop>
</linearGradient>
<linearGradient id="paint14_linear_18_43" x1="-11" y1="3" x2="501" y2="515" gradientUnits="userSpaceOnUse">
<stop stop-color="#605BFF"></stop>
<stop offset="1" stop-color="#FF00AA"></stop>
</linearGradient>
<linearGradient id="paint15_linear_18_43" x1="-11" y1="3" x2="501" y2="515" gradientUnits="userSpaceOnUse">
<stop stop-color="#605BFF"></stop>
<stop offset="1" stop-color="#FF00AA"></stop>
</linearGradient>
<linearGradient id="paint16_linear_18_43" x1="3" y1="3" x2="515" y2="515" gradientUnits="userSpaceOnUse">
<stop stop-color="#605BFF"></stop>
<stop offset="1" stop-color="#FF00AA"></stop>
</linearGradient>
<linearGradient id="paint17_linear_18_43" x1="75.475" y1="47.6552" x2="463.884" y2="438.05" gradientUnits="userSpaceOnUse">
<stop stop-color="#605BFF"></stop>
<stop offset="1" stop-color="#FF00AA"></stop>
</linearGradient>
<linearGradient id="paint18_linear_18_43" x1="-40.7868" y1="-28.1355" x2="471.213" y2="483.865" gradientUnits="userSpaceOnUse">
<stop stop-color="#605BFF"></stop>
<stop offset="1" stop-color="#FF00AA"></stop>
</linearGradient>
<linearGradient id="paint19_linear_18_43" x1="36.2132" y1="-46.1355" x2="548.213" y2="465.865" gradientUnits="userSpaceOnUse">
<stop stop-color="#605BFF"></stop>
<stop offset="1" stop-color="#FF00AA"></stop>
</linearGradient>
<linearGradient id="paint20_linear_18_43" x1="-8" y1="-346.429" x2="756.021" y2="99.2502" gradientUnits="userSpaceOnUse">
<stop stop-color="#605BFF"></stop>
<stop offset="1" stop-color="#FF00AA"></stop>
</linearGradient>
<linearGradient id="paint21_linear_18_43" x1="-6" y1="-7.14286" x2="444.167" y2="501.11" gradientUnits="userSpaceOnUse">
<stop stop-color="#605BFF"></stop>
<stop offset="1" stop-color="#FF00AA"></stop>
</linearGradient>
<linearGradient id="paint22_linear_18_43" x1="-194.5" y1="409.5" x2="458.5" y2="434" gradientUnits="userSpaceOnUse">
<stop stop-color="#605BFF"></stop>
<stop offset="1" stop-color="#FF00AA"></stop>
</linearGradient>
</defs></svg>