<svg width="571" height="586" viewBox="0 0 571 586" fill="none" xmlns="http://www.w3.org/2000/svg">
<ellipse cx="285.5" cy="290" rx="278.5" ry="286" fill="#D9D9D9"/>
<mask id="mask0_700_2895" style="mask-type:luminance" maskUnits="userSpaceOnUse" x="222" y="212" width="125" height="240">
<path d="M222.417 212.594H346.417V451.26H222.417V212.594Z" fill="white"/>
</mask>
<g mask="url(#mask0_700_2895)">
<mask id="mask1_700_2895" style="mask-type:luminance" maskUnits="userSpaceOnUse" x="-16" y="-16" width="602" height="602">
<path d="M285.079 -15.6772C451.172 -15.6772 585.823 118.974 585.823 285.073C585.823 451.172 451.172 585.823 285.079 585.823C118.974 585.823 -15.6714 451.172 -15.6714 285.073C-15.6714 118.974 118.974 -15.6772 285.079 -15.6772Z" fill="white"/>
</mask>
<g mask="url(#mask1_700_2895)">
<path d="M339.646 450.516L322.396 219.245H246.735L229.49 450.516L223.204 450.047L240.886 212.938H328.245L345.933 450.047L339.646 450.516Z" fill="#181D22"/>
</g>
</g>
<mask id="mask2_700_2895" style="mask-type:luminance" maskUnits="userSpaceOnUse" x="195" y="53" width="179" height="53">
<path d="M195.75 53.9272H373.083V105.927H195.75V53.9272Z" fill="white"/>
</mask>
<g mask="url(#mask2_700_2895)">
<mask id="mask3_700_2895" style="mask-type:luminance" maskUnits="userSpaceOnUse" x="-16" y="-16" width="602" height="602">
<path d="M285.078 -15.6768C451.172 -15.6768 585.823 118.974 585.823 285.073C585.823 451.172 451.172 585.823 285.078 585.823C118.974 585.823 -15.6719 451.172 -15.6719 285.073C-15.6719 118.974 118.974 -15.6768 285.078 -15.6768Z" fill="white"/>
</mask>
<g mask="url(#mask3_700_2895)">
<path d="M372.87 104.63H196.698L284.781 54.4116L372.87 104.63ZM220.458 98.3283H349.109L284.781 61.6616L220.458 98.3283Z" fill="#181D22"/>
</g>
</g>
<mask id="mask4_700_2895" style="mask-type:luminance" maskUnits="userSpaceOnUse" x="359" y="149" width="68" height="9">
<path d="M359.75 149.927H426.417V157.927H359.75V149.927Z" fill="white"/>
</mask>
<g mask="url(#mask4_700_2895)">
<mask id="mask5_700_2895" style="mask-type:luminance" maskUnits="userSpaceOnUse" x="-16" y="-16" width="602" height="602">
<path d="M285.078 -15.6772C451.172 -15.6772 585.823 118.974 585.823 285.073C585.823 451.172 451.172 585.823 285.078 585.823C118.974 585.823 -15.6719 451.172 -15.6719 285.073C-15.6719 118.974 118.974 -15.6772 285.078 -15.6772Z" fill="white"/>
</mask>
<g mask="url(#mask5_700_2895)">
<path d="M359.818 150.745H425.792V157.068H359.818V150.745Z" fill="#181D22"/>
</g>
</g>
<mask id="mask6_700_2895" style="mask-type:luminance" maskUnits="userSpaceOnUse" x="357" y="108" width="67" height="34">
<path d="M357.083 108.594H423.75V141.927H357.083V108.594Z" fill="white"/>
</mask>
<g mask="url(#mask6_700_2895)">
<mask id="mask7_700_2895" style="mask-type:luminance" maskUnits="userSpaceOnUse" x="-16" y="-16" width="602" height="602">
<path d="M285.078 -15.6768C451.172 -15.6768 585.823 118.974 585.823 285.073C585.823 451.172 451.172 585.823 285.078 585.823C118.974 585.823 -15.6716 451.172 -15.6716 285.073C-15.6716 118.974 118.974 -15.6768 285.078 -15.6768Z" fill="white"/>
</mask>
<g mask="url(#mask7_700_2895)">
<path d="M420.86 109.406L423.219 115.276L359.5 140.87L357.141 135L420.86 109.406Z" fill="#181D22"/>
</g>
</g>
<mask id="mask8_700_2895" style="mask-type:luminance" maskUnits="userSpaceOnUse" x="357" y="165" width="67" height="35">
<path d="M357.083 165.927H423.75V199.261H357.083V165.927Z" fill="white"/>
</mask>
<g mask="url(#mask8_700_2895)">
<mask id="mask9_700_2895" style="mask-type:luminance" maskUnits="userSpaceOnUse" x="-16" y="-16" width="602" height="602">
<path d="M285.078 -15.6772C451.172 -15.6772 585.823 118.974 585.823 285.073C585.823 451.172 451.172 585.823 285.078 585.823C118.974 585.823 -15.6716 451.172 -15.6716 285.073C-15.6716 118.974 118.974 -15.6772 285.078 -15.6772Z" fill="white"/>
</mask>
<g mask="url(#mask9_700_2895)">
<path d="M359.714 166.979L423.438 192.552L421.084 198.417L357.36 172.849L359.714 166.979Z" fill="#181D22"/>
</g>
</g>
<mask id="mask10_700_2895" style="mask-type:luminance" maskUnits="userSpaceOnUse" x="142" y="149" width="69" height="9">
<path d="M142.417 149.927H210.417V157.927H142.417V149.927Z" fill="white"/>
</mask>
<g mask="url(#mask10_700_2895)">
<mask id="mask11_700_2895" style="mask-type:luminance" maskUnits="userSpaceOnUse" x="-16" y="-16" width="602" height="602">
<path d="M285.079 -15.6772C451.172 -15.6772 585.823 118.974 585.823 285.073C585.823 451.172 451.172 585.823 285.079 585.823C118.974 585.823 -15.6714 451.172 -15.6714 285.073C-15.6714 118.974 118.974 -15.6772 285.079 -15.6772Z" fill="white"/>
</mask>
<g mask="url(#mask11_700_2895)">
<path d="M143.526 150.745H209.5V157.068H143.526V150.745Z" fill="#181D22"/>
</g>
</g>
<mask id="mask12_700_2895" style="mask-type:luminance" maskUnits="userSpaceOnUse" x="145" y="108" width="69" height="34">
<path d="M145.083 108.594H213.083V141.927H145.083V108.594Z" fill="white"/>
</mask>
<g mask="url(#mask12_700_2895)">
<mask id="mask13_700_2895" style="mask-type:luminance" maskUnits="userSpaceOnUse" x="-16" y="-16" width="602" height="602">
<path d="M285.078 -15.6768C451.172 -15.6768 585.823 118.974 585.823 285.073C585.823 451.172 451.172 585.823 285.078 585.823C118.974 585.823 -15.6716 451.172 -15.6716 285.073C-15.6716 118.974 118.974 -15.6768 285.078 -15.6768Z" fill="white"/>
</mask>
<g mask="url(#mask13_700_2895)">
<path d="M148.474 109.427L212.203 135L209.849 140.864L146.12 115.297L148.474 109.427Z" fill="#181D22"/>
</g>
</g>
<mask id="mask14_700_2895" style="mask-type:luminance" maskUnits="userSpaceOnUse" x="145" y="165" width="69" height="35">
<path d="M145.083 165.927H213.083V199.261H145.083V165.927Z" fill="white"/>
</mask>
<g mask="url(#mask14_700_2895)">
<mask id="mask15_700_2895" style="mask-type:luminance" maskUnits="userSpaceOnUse" x="-16" y="-16" width="602" height="602">
<path d="M285.078 -15.6772C451.172 -15.6772 585.823 118.974 585.823 285.073C585.823 451.172 451.172 585.823 285.078 585.823C118.974 585.823 -15.6716 451.172 -15.6716 285.073C-15.6716 118.974 118.974 -15.6772 285.078 -15.6772Z" fill="white"/>
</mask>
<g mask="url(#mask15_700_2895)">
<path d="M209.641 166.995L211.995 172.86L148.271 198.438L145.917 192.573L209.641 166.995Z" fill="#181D22"/>
</g>
</g>
<mask id="mask16_700_2895" style="mask-type:luminance" maskUnits="userSpaceOnUse" x="19" y="455" width="229" height="131">
<path d="M19.75 455.261H247.75V585.927H19.75V455.261Z" fill="white"/>
</mask>
<g mask="url(#mask16_700_2895)">
<mask id="mask17_700_2895" style="mask-type:luminance" maskUnits="userSpaceOnUse" x="-16" y="-16" width="602" height="602">
<path d="M285.078 -15.6772C451.172 -15.6772 585.823 118.974 585.823 285.073C585.823 451.172 451.172 585.823 285.078 585.823C118.974 585.823 -15.6719 451.172 -15.6719 285.073C-15.6719 118.974 118.974 -15.6772 285.078 -15.6772Z" fill="white"/>
</mask>
<g mask="url(#mask17_700_2895)">
<path d="M155.313 725.886C80.8854 725.886 20.3281 665.334 20.3281 590.901C20.3281 516.469 80.8802 455.912 155.313 455.912C187.094 455.912 217.969 467.177 242.24 487.63L246.448 491.177L241.26 493.021C190.036 511.198 155.62 559.943 155.62 614.313C155.62 652.344 172.318 688.224 201.438 712.755L205.646 716.302L200.458 718.141C185.979 723.281 170.792 725.886 155.313 725.886ZM155.313 462.224C84.3646 462.224 26.6354 519.948 26.6354 590.901C26.6354 661.854 84.3646 719.578 155.313 719.578C168.24 719.578 180.953 717.672 193.182 713.906C165.229 688.334 149.307 652.349 149.307 614.318C149.307 559.141 183.089 509.495 233.938 489.047C211.5 471.714 183.792 462.224 155.313 462.224Z" fill="#181D22"/>
</g>
</g>
<mask id="mask18_700_2895" style="mask-type:luminance" maskUnits="userSpaceOnUse" x="30" y="465" width="206" height="121">
<path d="M30.417 465.927H235.75V585.927H30.417V465.927Z" fill="white"/>
</mask>
<g mask="url(#mask18_700_2895)">
<mask id="mask19_700_2895" style="mask-type:luminance" maskUnits="userSpaceOnUse" x="-16" y="-16" width="602" height="602">
<path d="M285.079 -15.6772C451.172 -15.6772 585.823 118.974 585.823 285.073C585.823 451.172 451.172 585.823 285.079 585.823C118.974 585.823 -15.6714 451.172 -15.6714 285.073C-15.6714 118.974 118.974 -15.6772 285.079 -15.6772Z" fill="white"/>
</mask>
<g mask="url(#mask19_700_2895)">
<path d="M155.313 715.557C86.5785 715.557 30.6514 659.641 30.6514 590.901C30.6514 522.162 86.5785 466.24 155.313 466.24C183.026 466.24 209.261 475.146 231.188 491.99L235.334 495.172L230.584 497.36C185.047 518.307 155.62 564.219 155.62 614.313C155.62 648.495 168.881 680.677 192.953 704.938L196.641 708.656L191.636 710.177C179.907 713.75 167.688 715.557 155.313 715.557ZM155.313 472.552C90.0576 472.552 36.9639 525.646 36.9639 590.901C36.9639 656.156 90.0576 709.25 155.313 709.25C165.318 709.25 175.214 708.005 184.808 705.542C161.875 680.584 149.308 648.391 149.308 614.313C149.308 563.526 178.131 516.849 223.183 493.932C203.245 479.927 179.891 472.552 155.313 472.552Z" fill="#181D22"/>
</g>
</g>
<mask id="mask20_700_2895" style="mask-type:luminance" maskUnits="userSpaceOnUse" x="39" y="475" width="187" height="111">
<path d="M39.75 475.261H225.083V585.927H39.75V475.261Z" fill="white"/>
</mask>
<g mask="url(#mask20_700_2895)">
<mask id="mask21_700_2895" style="mask-type:luminance" maskUnits="userSpaceOnUse" x="-16" y="-16" width="602" height="602">
<path d="M285.078 -15.6772C451.172 -15.6772 585.823 118.974 585.823 285.073C585.823 451.172 451.172 585.823 285.078 585.823C118.974 585.823 -15.6719 451.172 -15.6719 285.073C-15.6719 118.974 118.974 -15.6772 285.078 -15.6772Z" fill="white"/>
</mask>
<g mask="url(#mask21_700_2895)">
<path d="M155.312 705.24C92.2707 705.24 40.979 653.947 40.979 590.901C40.979 527.854 92.2655 476.562 155.312 476.562C178.906 476.562 201.557 483.693 220.818 497.183L224.896 500.036L220.573 502.506C180.505 525.391 155.614 568.235 155.614 614.312C155.614 644.344 166.182 673.567 185.375 696.604L188.568 700.443L183.729 701.677C174.5 704.041 164.937 705.24 155.312 705.24ZM155.312 482.875C95.7498 482.875 47.2863 531.333 47.2863 590.901C47.2863 650.468 95.7498 698.927 155.312 698.927C162.745 698.927 170.135 698.171 177.349 696.677C159.229 673.166 149.307 644.115 149.307 614.312C149.307 567.661 173.625 524.178 213.099 499.615C195.828 488.646 175.948 482.875 155.312 482.875Z" fill="#181D22"/>
</g>
</g>
<mask id="mask22_700_2895" style="mask-type:luminance" maskUnits="userSpaceOnUse" x="50" y="485" width="166" height="101">
<path d="M50.417 485.927H215.75V585.927H50.417V485.927Z" fill="white"/>
</mask>
<g mask="url(#mask22_700_2895)">
<mask id="mask23_700_2895" style="mask-type:luminance" maskUnits="userSpaceOnUse" x="-16" y="-16" width="602" height="602">
<path d="M285.079 -15.6772C451.172 -15.6772 585.823 118.974 585.823 285.073C585.823 451.172 451.172 585.823 285.079 585.823C118.974 585.823 -15.6714 451.172 -15.6714 285.073C-15.6714 118.974 118.974 -15.6772 285.079 -15.6772Z" fill="white"/>
</mask>
<g mask="url(#mask23_700_2895)">
<path d="M155.313 694.917C97.9587 694.917 51.3025 648.256 51.3025 590.901C51.3025 533.547 97.9639 486.886 155.313 486.886C175.167 486.886 194.474 492.5 211.146 503.131L215.157 505.683L211.245 508.386C176.417 532.453 155.62 572.052 155.62 614.318C155.62 640.766 163.594 666.183 178.672 687.813L181.401 691.729L176.73 692.709C169.724 694.172 162.521 694.917 155.313 694.917ZM155.313 493.193C101.443 493.193 57.615 537.026 57.615 590.901C57.615 644.776 101.443 688.604 155.313 688.604C160.5 688.604 165.683 688.193 170.787 687.386C156.719 665.589 149.308 640.433 149.308 614.313C149.308 571.594 169.563 531.469 203.724 506.016C189.021 497.615 172.386 493.193 155.313 493.193Z" fill="#181D22"/>
</g>
</g>
<mask id="mask24_700_2895" style="mask-type:luminance" maskUnits="userSpaceOnUse" x="61" y="496" width="146" height="90">
<path d="M61.0835 496.594H206.417V585.927H61.0835V496.594Z" fill="white"/>
</mask>
<g mask="url(#mask24_700_2895)">
<mask id="mask25_700_2895" style="mask-type:luminance" maskUnits="userSpaceOnUse" x="-16" y="-16" width="602" height="602">
<path d="M285.078 -15.6772C451.172 -15.6772 585.823 118.974 585.823 285.073C585.823 451.172 451.172 585.823 285.078 585.823C118.974 585.823 -15.6716 451.172 -15.6716 285.073C-15.6716 118.974 118.974 -15.6772 285.078 -15.6772Z" fill="white"/>
</mask>
<g mask="url(#mask25_700_2895)">
<path d="M155.313 684.589C103.656 684.589 61.6252 642.563 61.6252 590.901C61.6252 539.24 103.656 497.214 155.313 497.214C171.787 497.214 187.985 501.547 202.162 509.745L206.099 512.026L202.584 514.912C172.735 539.479 155.615 575.709 155.615 614.318C155.615 636.933 161.568 659.177 172.834 678.646L175.115 682.599L170.615 683.344C165.578 684.172 160.433 684.589 155.313 684.589ZM155.313 503.521C107.136 503.521 67.9377 542.719 67.9377 590.901C67.9377 639.078 107.136 678.282 155.313 678.282C158.584 678.282 161.86 678.094 165.11 677.735C154.755 658.302 149.308 636.479 149.308 614.313C149.308 575.365 165.917 538.724 195.037 513.052C182.802 506.808 169.162 503.521 155.313 503.521Z" fill="#181D22"/>
</g>
</g>
<mask id="mask26_700_2895" style="mask-type:luminance" maskUnits="userSpaceOnUse" x="71" y="507" width="128" height="79">
<path d="M71.75 507.261H198.417V585.927H71.75V507.261Z" fill="white"/>
</mask>
<g mask="url(#mask26_700_2895)">
<mask id="mask27_700_2895" style="mask-type:luminance" maskUnits="userSpaceOnUse" x="-16" y="-16" width="602" height="602">
<path d="M285.078 -15.6772C451.172 -15.6772 585.823 118.974 585.823 285.073C585.823 451.172 451.172 585.823 285.078 585.823C118.974 585.823 -15.6719 451.172 -15.6719 285.073C-15.6719 118.974 118.974 -15.6772 285.078 -15.6772Z" fill="white"/>
</mask>
<g mask="url(#mask27_700_2895)">
<path d="M155.312 674.266C109.344 674.266 71.9478 636.87 71.9478 590.902C71.9478 544.933 109.344 507.532 155.312 507.532C168.724 507.532 182.062 510.797 193.885 516.98L197.75 519L194.625 522.037C169.474 546.49 155.62 579.266 155.62 614.313C155.62 633.49 159.745 651.948 167.875 669.178L169.745 673.136L165.401 673.657C162.036 674.063 158.64 674.266 155.312 674.266ZM155.312 513.844C112.828 513.844 78.255 548.412 78.255 590.902C78.255 635.047 115.583 670.782 160.323 667.792C153.01 650.891 149.307 632.928 149.307 614.313C149.307 579.037 162.682 545.959 187.073 520.683C177.151 516.198 166.26 513.844 155.312 513.844Z" fill="#181D22"/>
</g>
</g>
<mask id="mask28_700_2895" style="mask-type:luminance" maskUnits="userSpaceOnUse" x="81" y="516" width="110" height="70">
<path d="M81.0835 516.594H190.417V585.927H81.0835V516.594Z" fill="white"/>
</mask>
<g mask="url(#mask28_700_2895)">
<mask id="mask29_700_2895" style="mask-type:luminance" maskUnits="userSpaceOnUse" x="-16" y="-16" width="602" height="602">
<path d="M285.078 -15.6772C451.172 -15.6772 585.823 118.974 585.823 285.073C585.823 451.172 451.172 585.823 285.078 585.823C118.974 585.823 -15.6716 451.172 -15.6716 285.073C-15.6716 118.974 118.974 -15.6772 285.078 -15.6772Z" fill="white"/>
</mask>
<g mask="url(#mask29_700_2895)">
<path d="M155.313 663.943C115.037 663.943 82.271 631.177 82.271 590.901C82.271 550.625 115.037 517.859 155.313 517.859C166.162 517.859 176.599 520.182 186.333 524.76L190.12 526.536L187.37 529.688C166.896 553.115 155.62 583.172 155.62 614.313C155.62 629.844 158.36 645.036 163.771 659.469L165.245 663.396L161.063 663.724C159.172 663.87 157.24 663.943 155.313 663.943ZM155.313 524.172C118.516 524.172 88.5835 554.104 88.5835 590.901C88.5835 627.698 118.521 657.63 155.313 657.63C155.682 657.63 156.047 657.63 156.412 657.625C151.698 643.703 149.307 629.156 149.307 614.318C149.307 583.083 160.12 552.891 179.839 528.823C172.052 525.734 163.823 524.172 155.313 524.172Z" fill="#181D22"/>
</g>
</g>
<mask id="mask30_700_2895" style="mask-type:luminance" maskUnits="userSpaceOnUse" x="91" y="527" width="93" height="59">
<path d="M91.75 527.261H183.75V585.927H91.75V527.261Z" fill="white"/>
</mask>
<g mask="url(#mask30_700_2895)">
<mask id="mask31_700_2895" style="mask-type:luminance" maskUnits="userSpaceOnUse" x="-16" y="-16" width="602" height="602">
<path d="M285.078 -15.6772C451.172 -15.6772 585.823 118.974 585.823 285.073C585.823 451.172 451.172 585.823 285.078 585.823C118.974 585.823 -15.6719 451.172 -15.6719 285.073C-15.6719 118.974 118.974 -15.6772 285.078 -15.6772Z" fill="white"/>
</mask>
<g mask="url(#mask31_700_2895)">
<path d="M155.313 653.62C120.729 653.62 92.5938 625.485 92.5938 590.901C92.5938 556.318 120.729 528.183 155.313 528.183C163.688 528.183 171.823 529.808 179.51 533.021L183.229 534.578L180.833 537.813C164.339 560.073 155.62 586.532 155.62 614.313C155.62 626.287 157.266 638.146 160.505 649.558L161.604 653.427L157.578 653.573C156.828 653.599 156.073 653.62 155.313 653.62ZM155.313 534.49C124.208 534.49 98.9062 559.797 98.9062 590.901C98.9062 621.349 123.161 646.24 153.359 647.276C150.672 636.542 149.307 625.474 149.307 614.313C149.307 586.563 157.604 560.073 173.339 537.438C167.542 535.479 161.5 534.49 155.313 534.49Z" fill="#181D22"/>
</g>
</g>
<mask id="mask32_700_2895" style="mask-type:luminance" maskUnits="userSpaceOnUse" x="102" y="537" width="76" height="49">
<path d="M102.417 537.927H177.084V585.927H102.417V537.927Z" fill="white"/>
</mask>
<g mask="url(#mask32_700_2895)">
<mask id="mask33_700_2895" style="mask-type:luminance" maskUnits="userSpaceOnUse" x="-16" y="-16" width="602" height="602">
<path d="M285.079 -15.6772C451.172 -15.6772 585.823 118.974 585.823 285.073C585.823 451.172 451.172 585.823 285.079 585.823C118.974 585.823 -15.6714 451.172 -15.6714 285.073C-15.6714 118.974 118.974 -15.6772 285.079 -15.6772Z" fill="white"/>
</mask>
<g mask="url(#mask33_700_2895)">
<path d="M158.849 643.318L154.98 643.292C126.277 643.109 102.922 619.604 102.922 590.901C102.922 562.005 126.422 538.5 155.313 538.5C161.532 538.5 167.625 539.583 173.433 541.724L177.073 543.063L175.021 546.354C162.329 566.719 155.615 590.219 155.615 614.313C155.615 622.76 156.454 631.24 158.094 639.521L158.849 643.318ZM155.313 544.813C129.907 544.813 109.23 565.49 109.23 590.901C109.23 614.854 127.724 634.693 151.178 636.797C149.938 629.375 149.308 621.833 149.308 614.313C149.308 590.391 155.615 567.021 167.584 546.469C163.605 545.37 159.49 544.813 155.313 544.813Z" fill="#181D22"/>
</g>
</g>
<mask id="mask34_700_2895" style="mask-type:luminance" maskUnits="userSpaceOnUse" x="113" y="548" width="59" height="38">
<path d="M113.083 548.594H171.75V585.927H113.083V548.594Z" fill="white"/>
</mask>
<g mask="url(#mask34_700_2895)">
<mask id="mask35_700_2895" style="mask-type:luminance" maskUnits="userSpaceOnUse" x="-16" y="-16" width="602" height="602">
<path d="M285.078 -15.6772C451.172 -15.6772 585.823 118.974 585.823 285.073C585.823 451.172 451.172 585.823 285.078 585.823C118.974 585.823 -15.6716 451.172 -15.6716 285.073C-15.6716 118.974 118.974 -15.6772 285.078 -15.6772Z" fill="white"/>
</mask>
<g mask="url(#mask35_700_2895)">
<path d="M156.938 633.104L153.214 632.922C130.802 631.818 113.245 613.36 113.245 590.901C113.245 567.703 132.115 548.833 155.313 548.833C159.672 548.833 163.974 549.5 168.099 550.813L171.662 551.948L169.943 555.271C160.438 573.641 155.62 593.505 155.62 614.318C155.62 619.287 155.917 624.365 156.506 629.406L156.938 633.104ZM155.313 555.141C135.599 555.141 119.558 571.182 119.558 590.901C119.558 608.74 132.589 623.61 149.839 626.25C149.485 622.25 149.308 618.25 149.308 614.313C149.308 593.802 153.771 574.167 162.584 555.88C160.203 555.391 157.766 555.141 155.313 555.141Z" fill="#181D22"/>
</g>
</g>
<mask id="mask36_700_2895" style="mask-type:luminance" maskUnits="userSpaceOnUse" x="122" y="557" width="46" height="29">
<path d="M122.417 557.927H167.75V585.927H122.417V557.927Z" fill="white"/>
</mask>
<g mask="url(#mask36_700_2895)">
<mask id="mask37_700_2895" style="mask-type:luminance" maskUnits="userSpaceOnUse" x="-16" y="-16" width="602" height="602">
<path d="M285.079 -15.6772C451.172 -15.6772 585.823 118.974 585.823 285.073C585.823 451.172 451.172 585.823 285.079 585.823C118.974 585.823 -15.6714 451.172 -15.6714 285.073C-15.6714 118.974 118.974 -15.6772 285.079 -15.6772Z" fill="white"/>
</mask>
<g mask="url(#mask37_700_2895)">
<path d="M155.86 622.844L152.271 622.506C135.907 620.943 123.568 607.36 123.568 590.901C123.568 573.396 137.808 559.151 155.313 559.151C158.094 559.151 160.86 559.511 163.526 560.229L167.021 561.167L165.62 564.5C158.985 580.292 155.62 597.052 155.62 614.313C155.62 615.964 155.662 617.61 155.724 619.24L155.86 622.844ZM155.313 565.464C141.287 565.464 129.875 576.875 129.875 590.901C129.875 602.865 138.016 612.938 149.318 615.631C149.308 615.193 149.308 614.756 149.308 614.313C149.308 597.511 152.349 581.157 158.355 565.646C157.349 565.521 156.334 565.464 155.313 565.464Z" fill="#181D22"/>
</g>
</g>
<mask id="mask38_700_2895" style="mask-type:luminance" maskUnits="userSpaceOnUse" x="322" y="455" width="229" height="131">
<path d="M322.417 455.261H550.417V585.927H322.417V455.261Z" fill="white"/>
</mask>
<g mask="url(#mask38_700_2895)">
<mask id="mask39_700_2895" style="mask-type:luminance" maskUnits="userSpaceOnUse" x="-16" y="-16" width="602" height="602">
<path d="M285.078 -15.6772C451.172 -15.6772 585.823 118.974 585.823 285.073C585.823 451.172 451.172 585.823 285.078 585.823C118.974 585.823 -15.6716 451.172 -15.6716 285.073C-15.6716 118.974 118.974 -15.6772 285.078 -15.6772Z" fill="white"/>
</mask>
<g mask="url(#mask39_700_2895)">
<path d="M414.266 725.885C398.521 725.885 383.094 723.192 368.401 717.885L363.276 716.036L367.432 712.516C396.375 687.99 412.969 652.198 412.969 614.318C412.969 560.266 378.823 511.619 328.011 493.26L322.88 491.411L327.042 487.891C351.37 467.271 382.344 455.917 414.261 455.917C488.693 455.917 549.25 516.469 549.25 590.901C549.25 665.334 488.698 725.885 414.266 725.885ZM375.651 713.677C388.11 717.594 401.073 719.578 414.266 719.578C485.219 719.578 542.943 661.854 542.943 590.901C542.943 519.948 485.219 462.224 414.266 462.224C385.641 462.224 357.807 471.802 335.302 489.308C385.761 509.912 419.281 559.458 419.281 614.312C419.281 652.214 403.448 688.12 375.651 713.677Z" fill="#181D22"/>
</g>
</g>
<mask id="mask40_700_2895" style="mask-type:luminance" maskUnits="userSpaceOnUse" x="333" y="465" width="207" height="121">
<path d="M333.083 465.927H539.75V585.927H333.083V465.927Z" fill="white"/>
</mask>
<g mask="url(#mask40_700_2895)">
<mask id="mask41_700_2895" style="mask-type:luminance" maskUnits="userSpaceOnUse" x="-16" y="-16" width="602" height="602">
<path d="M285.078 -15.6772C451.172 -15.6772 585.823 118.974 585.823 285.073C585.823 451.172 451.172 585.823 285.078 585.823C118.974 585.823 -15.6716 451.172 -15.6716 285.073C-15.6716 118.974 118.974 -15.6772 285.078 -15.6772Z" fill="white"/>
</mask>
<g mask="url(#mask41_700_2895)">
<path d="M414.266 715.557C401.61 715.557 389.125 713.667 377.162 709.948L372.209 708.401L375.854 704.714C399.787 680.479 412.969 648.375 412.969 614.313C412.969 564.5 383.782 518.703 338.604 497.641L333.917 495.453L338.006 492.287C360.011 475.25 386.381 466.24 414.266 466.24C483.006 466.24 538.927 522.162 538.927 590.901C538.927 659.641 483.006 715.557 414.266 715.557ZM383.969 705.339C393.813 707.938 403.979 709.25 414.266 709.25C479.526 709.25 532.62 656.162 532.62 590.901C532.62 525.646 479.526 472.552 414.266 472.552C389.506 472.552 366.011 480.026 345.985 494.229C390.683 517.245 419.282 563.813 419.282 614.318C419.282 648.287 406.782 680.406 383.969 705.339Z" fill="#181D22"/>
</g>
</g>
<mask id="mask42_700_2895" style="mask-type:luminance" maskUnits="userSpaceOnUse" x="343" y="475" width="187" height="111">
<path d="M343.75 475.261H529.083V585.927H343.75V475.261Z" fill="white"/>
</mask>
<g mask="url(#mask42_700_2895)">
<mask id="mask43_700_2895" style="mask-type:luminance" maskUnits="userSpaceOnUse" x="-16" y="-16" width="602" height="602">
<path d="M285.078 -15.6772C451.172 -15.6772 585.823 118.974 585.823 285.073C585.823 451.172 451.172 585.823 285.078 585.823C118.974 585.823 -15.6719 451.172 -15.6719 285.073C-15.6719 118.974 118.974 -15.6772 285.078 -15.6772Z" fill="white"/>
</mask>
<g mask="url(#mask43_700_2895)">
<path d="M414.266 705.24C404.37 705.24 394.536 703.968 385.016 701.453L380.234 700.198L383.391 696.391C402.469 673.391 412.969 644.244 412.969 614.312C412.969 568.489 388.281 525.761 348.547 502.808L344.281 500.344L348.302 497.495C367.661 483.803 390.474 476.562 414.266 476.562C477.307 476.562 528.604 527.854 528.604 590.901C528.604 653.947 477.307 705.24 414.266 705.24ZM391.385 696.49C398.88 698.11 406.557 698.927 414.266 698.927C473.828 698.927 522.292 650.468 522.292 590.901C522.292 531.333 473.828 482.875 414.266 482.875C393.422 482.875 373.375 488.756 355.99 499.922C395.151 524.537 419.281 567.911 419.281 614.312C419.281 644.031 409.411 673.016 391.385 696.49Z" fill="#181D22"/>
</g>
</g>
<mask id="mask44_700_2895" style="mask-type:luminance" maskUnits="userSpaceOnUse" x="353" y="485" width="166" height="101">
<path d="M353.083 485.927H518.417V585.927H353.083V485.927Z" fill="white"/>
</mask>
<g mask="url(#mask44_700_2895)">
<mask id="mask45_700_2895" style="mask-type:luminance" maskUnits="userSpaceOnUse" x="-16" y="-16" width="602" height="602">
<path d="M285.078 -15.6772C451.172 -15.6772 585.823 118.974 585.823 285.073C585.823 451.172 451.172 585.823 285.078 585.823C118.974 585.823 -15.6716 451.172 -15.6716 285.073C-15.6716 118.974 118.974 -15.6772 285.078 -15.6772Z" fill="white"/>
</mask>
<g mask="url(#mask45_700_2895)">
<path d="M414.266 694.917C406.771 694.917 399.261 694.104 391.964 692.505L387.354 691.495L390.042 687.625C405.047 666.031 412.969 640.677 412.969 614.313C412.969 572.276 392.349 532.797 357.813 508.708L353.958 506.021L357.906 503.469C374.698 492.62 394.188 486.88 414.261 486.88C471.615 486.88 518.281 533.547 518.281 590.896C518.281 648.25 471.615 694.917 414.266 694.917ZM397.901 687.229C403.297 688.146 408.781 688.604 414.266 688.604C468.141 688.604 511.969 644.776 511.969 590.901C511.969 537.026 468.141 493.193 414.266 493.193C396.969 493.193 380.136 497.729 365.302 506.339C399.193 531.807 419.281 571.813 419.281 614.313C419.281 640.365 411.906 665.469 397.901 687.229Z" fill="#181D22"/>
</g>
</g>
<mask id="mask46_700_2895" style="mask-type:luminance" maskUnits="userSpaceOnUse" x="362" y="496" width="148" height="90">
<path d="M362.417 496.594H509.084V585.927H362.417V496.594Z" fill="white"/>
</mask>
<g mask="url(#mask46_700_2895)">
<mask id="mask47_700_2895" style="mask-type:luminance" maskUnits="userSpaceOnUse" x="-16" y="-16" width="602" height="602">
<path d="M285.078 -15.6772C451.172 -15.6772 585.823 118.974 585.823 285.073C585.823 451.172 451.172 585.823 285.078 585.823C118.974 585.823 -15.6716 451.172 -15.6716 285.073C-15.6716 118.974 118.974 -15.6772 285.078 -15.6772Z" fill="white"/>
</mask>
<g mask="url(#mask47_700_2895)">
<path d="M414.266 684.589C408.828 684.589 403.365 684.12 398.032 683.193L393.589 682.417L395.839 678.5C407.047 659.068 412.969 636.87 412.969 614.313C412.969 575.912 396 539.802 366.412 515.25L362.948 512.38L366.823 510.099C381.151 501.667 397.558 497.208 414.261 497.208C465.927 497.208 507.953 539.24 507.953 590.901C507.953 642.557 465.927 684.589 414.266 684.589ZM403.542 677.625C407.094 678.057 410.683 678.281 414.266 678.281C462.448 678.281 501.646 639.084 501.646 590.901C501.646 542.719 462.448 503.521 414.266 503.521C400.172 503.521 386.323 506.917 373.922 513.38C402.808 539.031 419.282 575.557 419.282 614.313C419.282 636.427 413.854 658.219 403.542 677.625Z" fill="#181D22"/>
</g>
</g>
<mask id="mask48_700_2895" style="mask-type:luminance" maskUnits="userSpaceOnUse" x="370" y="507" width="129" height="79">
<path d="M370.417 507.261H498.417V585.927H370.417V507.261Z" fill="white"/>
</mask>
<g mask="url(#mask48_700_2895)">
<mask id="mask49_700_2895" style="mask-type:luminance" maskUnits="userSpaceOnUse" x="-16" y="-16" width="602" height="602">
<path d="M285.078 -15.6772C451.172 -15.6772 585.823 118.974 585.823 285.073C585.823 451.172 451.172 585.823 285.078 585.823C118.974 585.823 -15.6716 451.172 -15.6716 285.073C-15.6716 118.974 118.974 -15.6772 285.078 -15.6772Z" fill="white"/>
</mask>
<g mask="url(#mask49_700_2895)">
<path d="M414.266 674.266C410.578 674.266 406.854 674.021 403.203 673.532L398.933 672.959L400.766 669.058C408.865 651.86 412.969 633.443 412.969 614.313C412.969 579.433 399.24 546.782 374.302 522.375L371.229 519.365L375.021 517.339C387.021 510.922 400.594 507.532 414.261 507.532C460.229 507.532 497.631 544.933 497.631 590.902C497.631 636.87 460.235 674.266 414.266 674.266ZM408.297 667.724C410.282 667.875 412.276 667.959 414.266 667.959C456.75 667.959 491.323 633.386 491.323 590.902C491.323 548.412 456.75 513.839 414.266 513.839C403.058 513.839 391.927 516.308 381.818 520.995C406.011 546.23 419.282 579.193 419.282 614.313C419.282 632.896 415.584 650.844 408.297 667.724Z" fill="#181D22"/>
</g>
</g>
<mask id="mask50_700_2895" style="mask-type:luminance" maskUnits="userSpaceOnUse" x="378" y="516" width="110" height="70">
<path d="M378.417 516.594H487.75V585.927H378.417V516.594Z" fill="white"/>
</mask>
<g mask="url(#mask50_700_2895)">
<mask id="mask51_700_2895" style="mask-type:luminance" maskUnits="userSpaceOnUse" x="-16" y="-16" width="602" height="602">
<path d="M285.078 -15.6772C451.172 -15.6772 585.823 118.974 585.823 285.073C585.823 451.172 451.172 585.823 285.078 585.823C118.974 585.823 -15.6716 451.172 -15.6716 285.073C-15.6716 118.974 118.974 -15.6772 285.078 -15.6772Z" fill="white"/>
</mask>
<g mask="url(#mask51_700_2895)">
<path d="M414.266 663.943C412.021 663.943 409.75 663.833 407.511 663.63L403.401 663.245L404.844 659.38C410.235 644.969 412.969 629.807 412.969 614.313C412.969 583.328 401.797 553.391 381.505 530.016L378.802 526.901L382.516 525.104C392.448 520.297 403.13 517.859 414.266 517.859C454.537 517.859 487.307 550.625 487.307 590.901C487.307 631.177 454.537 663.943 414.266 663.943ZM412.182 657.599C449.839 658.62 480.995 628.391 480.995 590.901C480.995 554.104 451.063 524.172 414.266 524.172C405.474 524.172 396.995 525.833 388.995 529.115C408.557 553.135 419.281 583.224 419.281 614.313C419.281 629.141 416.896 643.677 412.182 657.599Z" fill="#181D22"/>
</g>
</g>
<mask id="mask52_700_2895" style="mask-type:luminance" maskUnits="userSpaceOnUse" x="385" y="527" width="93" height="59">
<path d="M385.083 527.261H477.083V585.927H385.083V527.261Z" fill="white"/>
</mask>
<g mask="url(#mask52_700_2895)">
<mask id="mask53_700_2895" style="mask-type:luminance" maskUnits="userSpaceOnUse" x="-16" y="-16" width="602" height="602">
<path d="M285.078 -15.6772C451.172 -15.6772 585.823 118.974 585.823 285.073C585.823 451.172 451.172 585.823 285.078 585.823C118.974 585.823 -15.6716 451.172 -15.6716 285.073C-15.6716 118.974 118.974 -15.6772 285.078 -15.6772Z" fill="white"/>
</mask>
<g mask="url(#mask53_700_2895)">
<path d="M414.266 653.62C413.156 653.62 412.052 653.594 410.953 653.537L407.016 653.313L408.094 649.521C411.328 638.125 412.969 626.282 412.969 614.313C412.969 586.683 404.333 560.334 387.99 538.125L385.646 534.938L389.276 533.36C397.177 529.927 405.589 528.183 414.266 528.183C448.849 528.183 476.985 556.318 476.985 590.901C476.985 625.485 448.849 653.62 414.266 653.62ZM395.443 537.709C411.052 560.292 419.281 586.688 419.281 614.313C419.281 625.49 417.917 636.568 415.224 647.302C445.886 646.787 470.672 621.688 470.672 590.901C470.672 559.797 445.365 534.49 414.266 534.49C407.781 534.49 401.474 535.568 395.443 537.709Z" fill="#181D22"/>
</g>
</g>
<mask id="mask54_700_2895" style="mask-type:luminance" maskUnits="userSpaceOnUse" x="391" y="537" width="77" height="49">
<path d="M391.75 537.927H467.75V585.927H391.75V537.927Z" fill="white"/>
</mask>
<g mask="url(#mask54_700_2895)">
<mask id="mask55_700_2895" style="mask-type:luminance" maskUnits="userSpaceOnUse" x="-16" y="-16" width="602" height="602">
<path d="M285.078 -15.6772C451.172 -15.6772 585.823 118.974 585.823 285.073C585.823 451.172 451.172 585.823 285.078 585.823C118.974 585.823 -15.6719 451.172 -15.6719 285.073C-15.6719 118.974 118.974 -15.6772 285.078 -15.6772Z" fill="white"/>
</mask>
<g mask="url(#mask55_700_2895)">
<path d="M414.266 643.297L409.776 643.182L410.495 639.516C412.135 631.245 412.969 622.766 412.969 614.313C412.969 590.339 406.323 566.943 393.75 546.656L391.755 543.427L395.292 542.052C401.338 539.698 407.724 538.505 414.26 538.505C443.156 538.505 466.661 562.005 466.661 590.901C466.661 619.797 443.156 643.297 414.266 643.297ZM401.146 546.708C413.021 567.198 419.281 590.485 419.281 614.313C419.281 621.87 418.646 629.438 417.391 636.886C441.354 635.266 460.349 615.261 460.349 590.901C460.349 565.49 439.677 544.813 414.266 544.813C409.786 544.813 405.385 545.453 401.146 546.708Z" fill="#181D22"/>
</g>
</g>
<mask id="mask56_700_2895" style="mask-type:luminance" maskUnits="userSpaceOnUse" x="397" y="548" width="61" height="38">
<path d="M397.083 548.594H457.083V585.927H397.083V548.594Z" fill="white"/>
</mask>
<g mask="url(#mask56_700_2895)">
<mask id="mask57_700_2895" style="mask-type:luminance" maskUnits="userSpaceOnUse" x="-16" y="-16" width="602" height="602">
<path d="M285.078 -15.6772C451.172 -15.6772 585.823 118.974 585.823 285.073C585.823 451.172 451.172 585.823 285.078 585.823C118.974 585.823 -15.6716 451.172 -15.6716 285.073C-15.6716 118.974 118.974 -15.6772 285.078 -15.6772Z" fill="white"/>
</mask>
<g mask="url(#mask57_700_2895)">
<path d="M411.657 633.042L412.084 629.438C412.672 624.396 412.969 619.307 412.969 614.313C412.969 593.609 408.198 573.828 398.787 555.536L397.12 552.297L400.568 551.109C404.964 549.594 409.568 548.828 414.266 548.828C437.464 548.828 456.339 567.703 456.339 590.901C456.339 613.547 437.927 632.411 415.292 632.958L411.657 633.042ZM406.104 556.073C414.849 574.302 419.282 593.88 419.282 614.313C419.282 618.302 419.099 622.344 418.74 626.375C436.292 624.146 450.026 608.932 450.026 590.901C450.026 571.182 433.985 555.141 414.266 555.141C411.495 555.141 408.761 555.453 406.104 556.073Z" fill="#181D22"/>
</g>
</g>
<mask id="mask58_700_2895" style="mask-type:luminance" maskUnits="userSpaceOnUse" x="401" y="557" width="46" height="29">
<path d="M401.083 557.927H446.417V585.927H401.083V557.927Z" fill="white"/>
</mask>
<g mask="url(#mask58_700_2895)">
<mask id="mask59_700_2895" style="mask-type:luminance" maskUnits="userSpaceOnUse" x="-16" y="-16" width="602" height="602">
<path d="M285.078 -15.6772C451.172 -15.6772 585.823 118.974 585.823 285.073C585.823 451.172 451.172 585.823 285.078 585.823C118.974 585.823 -15.6716 451.172 -15.6716 285.073C-15.6716 118.974 118.974 -15.6772 285.078 -15.6772Z" fill="white"/>
</mask>
<g mask="url(#mask59_700_2895)">
<path d="M412.729 622.797L412.865 619.313C412.927 617.657 412.969 615.995 412.969 614.313C412.969 597.151 409.641 580.474 403.068 564.745L401.719 561.516L405.068 560.506C408.047 559.61 411.141 559.151 414.266 559.151C431.771 559.151 446.011 573.396 446.011 590.901C446.011 607.662 432.917 621.584 416.203 622.589L412.729 622.797ZM410.281 565.776C416.255 581.256 419.281 597.563 419.281 614.313C419.281 614.823 419.276 615.334 419.271 615.844C430.969 613.516 439.703 603.157 439.703 590.901C439.703 576.875 428.287 565.464 414.266 565.464C412.927 565.464 411.599 565.568 410.281 565.776Z" fill="#181D22"/>
</g>
</g>
<mask id="mask60_700_2895" style="mask-type:luminance" maskUnits="userSpaceOnUse" x="149" y="479" width="271" height="107">
<path d="M149.083 479.261H419.75V585.927H149.083V479.261Z" fill="white"/>
</mask>
<g mask="url(#mask60_700_2895)">
<mask id="mask61_700_2895" style="mask-type:luminance" maskUnits="userSpaceOnUse" x="-16" y="-16" width="602" height="602">
<path d="M285.078 -15.6772C451.172 -15.6772 585.823 118.974 585.823 285.073C585.823 451.172 451.172 585.823 285.078 585.823C118.974 585.823 -15.6716 451.172 -15.6716 285.073C-15.6716 118.974 118.974 -15.6772 285.078 -15.6772Z" fill="white"/>
</mask>
<g mask="url(#mask61_700_2895)">
<path d="M284.292 749.303C209.865 749.303 149.308 688.75 149.308 614.313C149.308 539.881 209.86 479.329 284.292 479.329C358.729 479.329 419.282 539.881 419.282 614.313C419.282 688.745 358.729 749.303 284.292 749.303ZM284.292 485.641C213.344 485.641 155.615 543.365 155.615 614.313C155.615 685.266 213.339 742.995 284.292 742.995C355.245 742.995 412.969 685.271 412.969 614.313C412.969 543.365 355.245 485.641 284.292 485.641Z" fill="#181D22"/>
</g>
</g>
<mask id="mask62_700_2895" style="mask-type:luminance" maskUnits="userSpaceOnUse" x="158" y="488" width="252" height="98">
<path d="M158.417 488.594H409.084V585.927H158.417V488.594Z" fill="white"/>
</mask>
<g mask="url(#mask62_700_2895)">
<mask id="mask63_700_2895" style="mask-type:luminance" maskUnits="userSpaceOnUse" x="-16" y="-16" width="602" height="602">
<path d="M285.079 -15.6772C451.172 -15.6772 585.823 118.974 585.823 285.073C585.823 451.172 451.172 585.823 285.079 585.823C118.974 585.823 -15.6714 451.172 -15.6714 285.073C-15.6714 118.974 118.974 -15.6772 285.079 -15.6772Z" fill="white"/>
</mask>
<g mask="url(#mask63_700_2895)">
<path d="M284.292 738.979C215.558 738.979 159.631 683.058 159.631 614.313C159.631 545.573 215.558 489.651 284.292 489.651C353.032 489.651 408.959 545.573 408.959 614.313C408.959 683.058 353.032 738.979 284.292 738.979ZM284.292 495.959C219.037 495.959 165.943 549.052 165.943 614.313C165.943 679.578 219.037 732.667 284.292 732.667C349.552 732.667 402.646 679.573 402.646 614.313C402.646 549.052 349.552 495.959 284.292 495.959Z" fill="#181D22"/>
</g>
</g>
<mask id="mask64_700_2895" style="mask-type:luminance" maskUnits="userSpaceOnUse" x="169" y="499" width="231" height="87">
<path d="M169.083 499.261H399.75V585.927H169.083V499.261Z" fill="white"/>
</mask>
<g mask="url(#mask64_700_2895)">
<mask id="mask65_700_2895" style="mask-type:luminance" maskUnits="userSpaceOnUse" x="-16" y="-16" width="602" height="602">
<path d="M285.078 -15.6772C451.172 -15.6772 585.823 118.974 585.823 285.073C585.823 451.172 451.172 585.823 285.078 585.823C118.974 585.823 -15.6716 451.172 -15.6716 285.073C-15.6716 118.974 118.974 -15.6772 285.078 -15.6772Z" fill="white"/>
</mask>
<g mask="url(#mask65_700_2895)">
<path d="M284.292 728.651C221.245 728.651 169.953 677.36 169.953 614.313C169.953 551.266 221.245 499.974 284.292 499.974C347.339 499.974 398.63 551.266 398.63 614.313C398.63 677.36 347.339 728.651 284.292 728.651ZM284.292 506.287C224.724 506.287 176.266 554.75 176.266 614.313C176.266 673.886 224.724 722.344 284.292 722.344C343.86 722.344 392.323 673.886 392.323 614.313C392.323 554.75 343.86 506.287 284.292 506.287Z" fill="#181D22"/>
</g>
</g>
<mask id="mask66_700_2895" style="mask-type:luminance" maskUnits="userSpaceOnUse" x="179" y="509" width="211" height="77">
<path d="M179.75 509.927H389.083V585.927H179.75V509.927Z" fill="white"/>
</mask>
<g mask="url(#mask66_700_2895)">
<mask id="mask67_700_2895" style="mask-type:luminance" maskUnits="userSpaceOnUse" x="-16" y="-16" width="602" height="602">
<path d="M285.078 -15.6772C451.172 -15.6772 585.823 118.974 585.823 285.073C585.823 451.172 451.172 585.823 285.078 585.823C118.974 585.823 -15.6719 451.172 -15.6719 285.073C-15.6719 118.974 118.974 -15.6772 285.078 -15.6772Z" fill="white"/>
</mask>
<g mask="url(#mask67_700_2895)">
<path d="M284.292 718.334C226.938 718.334 180.281 671.667 180.281 614.313C180.281 556.964 226.943 510.302 284.292 510.302C341.646 510.302 388.307 556.964 388.307 614.313C388.307 671.667 341.646 718.334 284.292 718.334ZM284.292 516.615C230.422 516.615 186.589 560.448 186.589 614.313C186.589 668.193 230.422 712.021 284.292 712.021C338.167 712.021 382 668.193 382 614.313C382 560.443 338.167 516.615 284.292 516.615Z" fill="#181D22"/>
</g>
</g>
<mask id="mask68_700_2895" style="mask-type:luminance" maskUnits="userSpaceOnUse" x="190" y="520" width="189" height="66">
<path d="M190.417 520.594H378.417V585.927H190.417V520.594Z" fill="white"/>
</mask>
<g mask="url(#mask68_700_2895)">
<mask id="mask69_700_2895" style="mask-type:luminance" maskUnits="userSpaceOnUse" x="-16" y="-16" width="602" height="602">
<path d="M285.079 -15.6772C451.172 -15.6772 585.823 118.974 585.823 285.073C585.823 451.172 451.172 585.823 285.079 585.823C118.974 585.823 -15.6714 451.172 -15.6714 285.073C-15.6714 118.974 118.974 -15.6772 285.079 -15.6772Z" fill="white"/>
</mask>
<g mask="url(#mask69_700_2895)">
<path d="M284.292 708.01C232.631 708.01 190.604 665.979 190.604 614.313C190.604 562.656 232.631 520.625 284.292 520.625C335.959 520.625 377.985 562.656 377.985 614.313C377.99 665.979 335.959 708.01 284.292 708.01ZM284.292 526.938C236.11 526.938 196.912 566.135 196.912 614.313C196.912 662.495 236.11 701.698 284.292 701.698C332.474 701.698 371.677 662.495 371.677 614.313C371.677 566.135 332.474 526.938 284.292 526.938Z" fill="#181D22"/>
</g>
</g>
<mask id="mask70_700_2895" style="mask-type:luminance" maskUnits="userSpaceOnUse" x="199" y="529" width="169" height="57">
<path d="M199.75 529.927H367.75V585.927H199.75V529.927Z" fill="white"/>
</mask>
<g mask="url(#mask70_700_2895)">
<mask id="mask71_700_2895" style="mask-type:luminance" maskUnits="userSpaceOnUse" x="-16" y="-16" width="602" height="602">
<path d="M285.078 -15.6772C451.172 -15.6772 585.823 118.974 585.823 285.073C585.823 451.172 451.172 585.823 285.078 585.823C118.974 585.823 -15.6719 451.172 -15.6719 285.073C-15.6719 118.974 118.974 -15.6772 285.078 -15.6772Z" fill="white"/>
</mask>
<g mask="url(#mask71_700_2895)">
<path d="M284.292 697.683C238.323 697.683 200.927 660.282 200.927 614.313C200.927 568.344 238.323 530.948 284.292 530.948C330.26 530.948 367.656 568.344 367.656 614.313C367.656 660.282 330.26 697.683 284.292 697.683ZM284.292 537.256C241.807 537.256 207.234 571.828 207.234 614.313C207.234 656.802 241.807 691.375 284.292 691.375C326.781 691.375 361.349 656.802 361.349 614.313C361.349 571.828 326.781 537.256 284.292 537.256Z" fill="#181D22"/>
</g>
</g>
<mask id="mask72_700_2895" style="mask-type:luminance" maskUnits="userSpaceOnUse" x="210" y="540" width="149" height="46">
<path d="M210.417 540.594H358.417V585.927H210.417V540.594Z" fill="white"/>
</mask>
<g mask="url(#mask72_700_2895)">
<mask id="mask73_700_2895" style="mask-type:luminance" maskUnits="userSpaceOnUse" x="-16" y="-16" width="602" height="602">
<path d="M285.079 -15.6772C451.172 -15.6772 585.823 118.974 585.823 285.073C585.823 451.172 451.172 585.823 285.079 585.823C118.974 585.823 -15.6714 451.172 -15.6714 285.073C-15.6714 118.974 118.974 -15.6772 285.079 -15.6772Z" fill="white"/>
</mask>
<g mask="url(#mask73_700_2895)">
<path d="M284.292 687.354C244.016 687.354 211.25 654.589 211.25 614.313C211.25 574.042 244.016 541.276 284.292 541.276C324.568 541.276 357.339 574.042 357.339 614.313C357.339 654.589 324.568 687.354 284.292 687.354ZM284.292 547.584C247.495 547.584 217.563 577.521 217.563 614.313C217.563 651.11 247.5 681.047 284.292 681.047C321.094 681.047 351.027 651.11 351.027 614.313C351.027 577.521 321.094 547.584 284.292 547.584Z" fill="#181D22"/>
</g>
</g>
<mask id="mask74_700_2895" style="mask-type:luminance" maskUnits="userSpaceOnUse" x="221" y="551" width="127" height="35">
<path d="M221.083 551.261H347.75V585.927H221.083V551.261Z" fill="white"/>
</mask>
<g mask="url(#mask74_700_2895)">
<mask id="mask75_700_2895" style="mask-type:luminance" maskUnits="userSpaceOnUse" x="-16" y="-16" width="602" height="602">
<path d="M285.078 -15.6772C451.172 -15.6772 585.823 118.974 585.823 285.073C585.823 451.172 451.172 585.823 285.078 585.823C118.974 585.823 -15.6716 451.172 -15.6716 285.073C-15.6716 118.974 118.974 -15.6772 285.078 -15.6772Z" fill="white"/>
</mask>
<g mask="url(#mask75_700_2895)">
<path d="M284.292 677.032C249.709 677.032 221.573 648.902 221.573 614.313C221.573 579.73 249.709 551.594 284.292 551.594C318.881 551.594 347.011 579.73 347.011 614.313C347.011 648.902 318.881 677.032 284.292 677.032ZM284.292 557.907C253.188 557.907 227.886 583.209 227.886 614.313C227.886 645.417 253.188 670.724 284.292 670.724C315.396 670.724 340.703 645.417 340.703 614.313C340.703 583.209 315.396 557.907 284.292 557.907Z" fill="#181D22"/>
</g>
</g>
<mask id="mask76_700_2895" style="mask-type:luminance" maskUnits="userSpaceOnUse" x="231" y="560" width="107" height="26">
<path d="M231.75 560.594H337.083V585.927H231.75V560.594Z" fill="white"/>
</mask>
<g mask="url(#mask76_700_2895)">
<mask id="mask77_700_2895" style="mask-type:luminance" maskUnits="userSpaceOnUse" x="-16" y="-16" width="602" height="602">
<path d="M285.078 -15.6772C451.172 -15.6772 585.823 118.974 585.823 285.073C585.823 451.172 451.172 585.823 285.078 585.823C118.974 585.823 -15.6719 451.172 -15.6719 285.073C-15.6719 118.974 118.974 -15.6772 285.078 -15.6772Z" fill="white"/>
</mask>
<g mask="url(#mask77_700_2895)">
<path d="M284.292 666.714C255.401 666.714 231.901 643.203 231.901 614.313C231.901 585.427 255.401 561.922 284.292 561.922C313.182 561.922 336.687 585.427 336.687 614.313C336.687 643.203 313.182 666.714 284.292 666.714ZM284.292 568.234C258.885 568.234 238.208 588.906 238.208 614.313C238.208 639.729 258.885 660.401 284.292 660.401C309.703 660.401 330.38 639.729 330.38 614.313C330.38 588.906 309.703 568.234 284.292 568.234Z" fill="#181D22"/>
</g>
</g>
<mask id="mask78_700_2895" style="mask-type:luminance" maskUnits="userSpaceOnUse" x="241" y="571" width="86" height="15">
<path d="M241.083 571.261H326.417V585.927H241.083V571.261Z" fill="white"/>
</mask>
<g mask="url(#mask78_700_2895)">
<mask id="mask79_700_2895" style="mask-type:luminance" maskUnits="userSpaceOnUse" x="-16" y="-16" width="602" height="602">
<path d="M285.078 -15.6772C451.172 -15.6772 585.823 118.974 585.823 285.073C585.823 451.172 451.172 585.823 285.078 585.823C118.974 585.823 -15.6716 451.172 -15.6716 285.073C-15.6716 118.974 118.974 -15.6772 285.078 -15.6772Z" fill="white"/>
</mask>
<g mask="url(#mask79_700_2895)">
<path d="M284.292 656.386C261.094 656.386 242.219 637.511 242.219 614.313C242.219 591.115 261.094 572.245 284.292 572.245C307.495 572.245 326.365 591.115 326.365 614.313C326.365 637.511 307.495 656.386 284.292 656.386ZM284.292 578.558C264.573 578.558 248.531 594.599 248.531 614.313C248.531 634.032 264.573 650.073 284.292 650.073C304.016 650.073 320.058 634.032 320.058 614.313C320.058 594.599 304.016 578.558 284.292 578.558Z" fill="#181D22"/>
</g>
</g>
<mask id="mask80_700_2895" style="mask-type:luminance" maskUnits="userSpaceOnUse" x="251" y="581" width="67" height="5">
<path d="M251.75 581.927H317.083V585.927H251.75V581.927Z" fill="white"/>
</mask>
<g mask="url(#mask80_700_2895)">
<mask id="mask81_700_2895" style="mask-type:luminance" maskUnits="userSpaceOnUse" x="-16" y="-16" width="602" height="602">
<path d="M285.078 -15.6772C451.172 -15.6772 585.823 118.974 585.823 285.073C585.823 451.172 451.172 585.823 285.078 585.823C118.974 585.823 -15.6719 451.172 -15.6719 285.073C-15.6719 118.974 118.974 -15.6772 285.078 -15.6772Z" fill="white"/>
</mask>
<g mask="url(#mask81_700_2895)">
<path d="M284.292 646.063C266.786 646.063 252.547 631.823 252.547 614.313C252.547 596.807 266.786 582.568 284.292 582.568C301.797 582.568 316.042 596.807 316.042 614.313C316.042 631.823 301.802 646.063 284.292 646.063ZM284.292 588.875C270.271 588.875 258.859 600.292 258.859 614.313C258.859 628.339 270.271 639.755 284.292 639.755C298.318 639.755 309.729 628.339 309.729 614.313C309.729 600.292 298.318 588.875 284.292 588.875Z" fill="#181D22"/>
</g>
</g>
<mask id="mask82_700_2895" style="mask-type:luminance" maskUnits="userSpaceOnUse" x="165" y="444" width="239" height="38">
<path d="M165.083 444.594H403.75V481.927H165.083V444.594Z" fill="white"/>
</mask>
<g mask="url(#mask82_700_2895)">
<mask id="mask83_700_2895" style="mask-type:luminance" maskUnits="userSpaceOnUse" x="-16" y="-16" width="602" height="602">
<path d="M285.078 -15.6772C451.172 -15.6772 585.823 118.974 585.823 285.073C585.823 451.172 451.172 585.823 285.078 585.823C118.974 585.823 -15.6716 451.172 -15.6716 285.073C-15.6716 118.974 118.974 -15.6772 285.078 -15.6772Z" fill="white"/>
</mask>
<g mask="url(#mask83_700_2895)">
<path d="M327.344 481.823L325.766 481.333C299.104 472.995 269.818 472.922 243.12 481.115L241.563 481.594L240.266 480.594C218.667 463.906 192.865 454.011 165.656 451.974L166.13 445.677C194.031 447.771 220.516 457.766 242.834 474.61C269.776 466.672 299.156 466.74 326.084 474.828C348.448 457.86 375.037 447.787 403.073 445.682L403.542 451.974C376.198 454.026 350.302 464 328.646 480.813L327.344 481.823Z" fill="#181D22"/>
</g>
</g>
<mask id="mask84_700_2895" style="mask-type:luminance" maskUnits="userSpaceOnUse" x="237" y="212" width="91" height="62">
<path d="M237.083 212.594H327.75V273.927H237.083V212.594Z" fill="white"/>
</mask>
<g mask="url(#mask84_700_2895)">
<mask id="mask85_700_2895" style="mask-type:luminance" maskUnits="userSpaceOnUse" x="-16" y="-16" width="602" height="602">
<path d="M285.078 -15.6772C451.172 -15.6772 585.823 118.974 585.823 285.073C585.823 451.172 451.172 585.823 285.078 585.823C118.974 585.823 -15.6716 451.172 -15.6716 285.073C-15.6716 118.974 118.974 -15.6772 285.078 -15.6772Z" fill="white"/>
</mask>
<g mask="url(#mask85_700_2895)">
<path d="M323.698 213.401L327.078 218.724L241.521 273.042L238.141 267.719L323.698 213.401Z" fill="#181D22"/>
</g>
</g>
<mask id="mask86_700_2895" style="mask-type:luminance" maskUnits="userSpaceOnUse" x="233" y="259" width="99" height="66">
<path d="M233.083 259.26H331.75V324.594H233.083V259.26Z" fill="white"/>
</mask>
<g mask="url(#mask86_700_2895)">
<mask id="mask87_700_2895" style="mask-type:luminance" maskUnits="userSpaceOnUse" x="-16" y="-16" width="602" height="602">
<path d="M285.078 -15.6772C451.172 -15.6772 585.823 118.974 585.823 285.073C585.823 451.172 451.172 585.823 285.078 585.823C118.974 585.823 -15.6716 451.172 -15.6716 285.073C-15.6716 118.974 118.974 -15.6772 285.078 -15.6772Z" fill="white"/>
</mask>
<g mask="url(#mask87_700_2895)">
<path d="M327.141 259.75L330.521 265.073L237.703 323.984L234.323 318.661L327.141 259.75Z" fill="#181D22"/>
</g>
</g>
<mask id="mask88_700_2895" style="mask-type:luminance" maskUnits="userSpaceOnUse" x="230" y="305" width="105" height="71">
<path d="M230.417 305.927H334.417V375.261H230.417V305.927Z" fill="white"/>
</mask>
<g mask="url(#mask88_700_2895)">
<mask id="mask89_700_2895" style="mask-type:luminance" maskUnits="userSpaceOnUse" x="-16" y="-16" width="602" height="602">
<path d="M285.079 -15.6772C451.172 -15.6772 585.823 118.974 585.823 285.073C585.823 451.172 451.172 585.823 285.079 585.823C118.974 585.823 -15.6714 451.172 -15.6714 285.073C-15.6714 118.974 118.974 -15.6772 285.079 -15.6772Z" fill="white"/>
</mask>
<g mask="url(#mask89_700_2895)">
<path d="M330.584 306.062L333.964 311.385L233.907 374.911L230.526 369.589L330.584 306.062Z" fill="#181D22"/>
</g>
</g>
<mask id="mask90_700_2895" style="mask-type:luminance" maskUnits="userSpaceOnUse" x="226" y="351" width="113" height="75">
<path d="M226.417 351.26H338.417V425.927H226.417V351.26Z" fill="white"/>
</mask>
<g mask="url(#mask90_700_2895)">
<mask id="mask91_700_2895" style="mask-type:luminance" maskUnits="userSpaceOnUse" x="-16" y="-16" width="602" height="602">
<path d="M285.079 -15.6772C451.172 -15.6772 585.823 118.974 585.823 285.073C585.823 451.172 451.172 585.823 285.079 585.823C118.974 585.823 -15.6714 451.172 -15.6714 285.073C-15.6714 118.974 118.974 -15.6772 285.079 -15.6772Z" fill="white"/>
</mask>
<g mask="url(#mask91_700_2895)">
<path d="M334.053 352.385L337.433 357.708L230.125 425.859L226.75 420.536L334.053 352.385Z" fill="#181D22"/>
</g>
</g>
<mask id="mask92_700_2895" style="mask-type:luminance" maskUnits="userSpaceOnUse" x="245" y="397" width="97" height="67">
<path d="M245.083 397.927H341.083V463.261H245.083V397.927Z" fill="white"/>
</mask>
<g mask="url(#mask92_700_2895)">
<mask id="mask93_700_2895" style="mask-type:luminance" maskUnits="userSpaceOnUse" x="-16" y="-16" width="602" height="602">
<path d="M285.078 -15.6772C451.172 -15.6772 585.823 118.974 585.823 285.073C585.823 451.172 451.172 585.823 285.078 585.823C118.974 585.823 -15.6716 451.172 -15.6716 285.073C-15.6716 118.974 118.974 -15.6772 285.078 -15.6772Z" fill="white"/>
</mask>
<g mask="url(#mask93_700_2895)">
<path d="M337.521 398.74L340.901 404.063L248.62 462.719L245.24 457.396L337.521 398.74Z" fill="#181D22"/>
</g>
</g>
<mask id="mask94_700_2895" style="mask-type:luminance" maskUnits="userSpaceOnUse" x="211" y="189" width="148" height="31">
<path d="M211.75 189.927H358.417V219.261H211.75V189.927Z" fill="white"/>
</mask>
<g mask="url(#mask94_700_2895)">
<mask id="mask95_700_2895" style="mask-type:luminance" maskUnits="userSpaceOnUse" x="-16" y="-16" width="602" height="602">
<path d="M285.078 -15.6772C451.172 -15.6772 585.823 118.974 585.823 285.073C585.823 451.172 451.172 585.823 285.078 585.823C118.974 585.823 -15.6719 451.172 -15.6719 285.073C-15.6719 118.974 118.974 -15.6772 285.078 -15.6772Z" fill="white"/>
</mask>
<g mask="url(#mask95_700_2895)">
<path d="M352.229 219.188H217.094L212.052 190.354H357.271L352.229 219.188ZM222.391 212.881H346.927L349.766 196.657H219.557L222.391 212.881Z" fill="#181D22"/>
</g>
</g>
<mask id="mask96_700_2895" style="mask-type:luminance" maskUnits="userSpaceOnUse" x="210" y="97" width="149" height="21">
<path d="M210.417 97.9272H358.417V117.927H210.417V97.9272Z" fill="white"/>
</mask>
<g mask="url(#mask96_700_2895)">
<mask id="mask97_700_2895" style="mask-type:luminance" maskUnits="userSpaceOnUse" x="-16" y="-16" width="602" height="602">
<path d="M285.079 -15.6768C451.172 -15.6768 585.823 118.974 585.823 285.073C585.823 451.172 451.172 585.823 285.079 585.823C118.974 585.823 -15.6714 451.172 -15.6714 285.073C-15.6714 118.974 118.974 -15.6768 285.079 -15.6768Z" fill="white"/>
</mask>
<g mask="url(#mask97_700_2895)">
<path d="M357.709 117.63H211.474L217.334 98.3442H351.849L357.709 117.63ZM219.995 111.318H349.188L347.172 104.661H222.016L219.995 111.318Z" fill="#181D22"/>
</g>
</g>
<mask id="mask98_700_2895" style="mask-type:luminance" maskUnits="userSpaceOnUse" x="230" y="113" width="8" height="81">
<path d="M230.417 113.927H237.084V193.927H230.417V113.927Z" fill="white"/>
</mask>
<g mask="url(#mask98_700_2895)">
<mask id="mask99_700_2895" style="mask-type:luminance" maskUnits="userSpaceOnUse" x="-16" y="-16" width="602" height="602">
<path d="M285.079 -15.6772C451.172 -15.6772 585.823 118.974 585.823 285.073C585.823 451.172 451.172 585.823 285.079 585.823C118.974 585.823 -15.6714 451.172 -15.6714 285.073C-15.6714 118.974 118.974 -15.6772 285.079 -15.6772Z" fill="white"/>
</mask>
<g mask="url(#mask99_700_2895)">
<path d="M230.474 114.479H236.745V193.552H230.474V114.479Z" fill="#181D22"/>
</g>
</g>
<mask id="mask100_700_2895" style="mask-type:luminance" maskUnits="userSpaceOnUse" x="331" y="113" width="9" height="81">
<path d="M331.75 113.927H339.75V193.927H331.75V113.927Z" fill="white"/>
</mask>
<g mask="url(#mask100_700_2895)">
<mask id="mask101_700_2895" style="mask-type:luminance" maskUnits="userSpaceOnUse" x="-16" y="-16" width="602" height="602">
<path d="M285.078 -15.6772C451.172 -15.6772 585.823 118.974 585.823 285.073C585.823 451.172 451.172 585.823 285.078 585.823C118.974 585.823 -15.6719 451.172 -15.6719 285.073C-15.6719 118.974 118.974 -15.6772 285.078 -15.6772Z" fill="white"/>
</mask>
<g mask="url(#mask101_700_2895)">
<path d="M332.594 114.479H338.859V193.552H332.594V114.479Z" fill="#181D22"/>
</g>
</g>
<mask id="mask102_700_2895" style="mask-type:luminance" maskUnits="userSpaceOnUse" x="243" y="113" width="9" height="81">
<path d="M243.75 113.927H251.75V193.927H243.75V113.927Z" fill="white"/>
</mask>
<g mask="url(#mask102_700_2895)">
<mask id="mask103_700_2895" style="mask-type:luminance" maskUnits="userSpaceOnUse" x="-16" y="-16" width="602" height="602">
<path d="M285.078 -15.6772C451.172 -15.6772 585.823 118.974 585.823 285.073C585.823 451.172 451.172 585.823 285.078 585.823C118.974 585.823 -15.6719 451.172 -15.6719 285.073C-15.6719 118.974 118.974 -15.6772 285.078 -15.6772Z" fill="white"/>
</mask>
<g mask="url(#mask103_700_2895)">
<path d="M244.135 114.479H250.458V193.552H244.135V114.479Z" fill="#181D22"/>
</g>
</g>
<mask id="mask104_700_2895" style="mask-type:luminance" maskUnits="userSpaceOnUse" x="318" y="113" width="9" height="81">
<path d="M318.417 113.927H326.417V193.927H318.417V113.927Z" fill="white"/>
</mask>
<g mask="url(#mask104_700_2895)">
<mask id="mask105_700_2895" style="mask-type:luminance" maskUnits="userSpaceOnUse" x="-16" y="-16" width="602" height="602">
<path d="M285.078 -15.6772C451.172 -15.6772 585.823 118.974 585.823 285.073C585.823 451.172 451.172 585.823 285.078 585.823C118.974 585.823 -15.6716 451.172 -15.6716 285.073C-15.6716 118.974 118.974 -15.6772 285.078 -15.6772Z" fill="white"/>
</mask>
<g mask="url(#mask105_700_2895)">
<path d="M318.948 114.479H325.271V193.552H318.948V114.479Z" fill="#181D22"/>
</g>
</g>
<mask id="mask106_700_2895" style="mask-type:luminance" maskUnits="userSpaceOnUse" x="273" y="113" width="7" height="81">
<path d="M273.083 113.927H279.75V193.927H273.083V113.927Z" fill="white"/>
</mask>
<g mask="url(#mask106_700_2895)">
<mask id="mask107_700_2895" style="mask-type:luminance" maskUnits="userSpaceOnUse" x="-16" y="-16" width="602" height="602">
<path d="M285.078 -15.6772C451.172 -15.6772 585.823 118.974 585.823 285.073C585.823 451.172 451.172 585.823 285.078 585.823C118.974 585.823 -15.6716 451.172 -15.6716 285.073C-15.6716 118.974 118.974 -15.6772 285.078 -15.6772Z" fill="white"/>
</mask>
<g mask="url(#mask107_700_2895)">
<path d="M273.344 114.703H279.667V193.776H273.344V114.703Z" fill="#181D22"/>
</g>
</g>
<mask id="mask108_700_2895" style="mask-type:luminance" maskUnits="userSpaceOnUse" x="289" y="113" width="9" height="81">
<path d="M289.083 113.927H297.083V193.927H289.083V113.927Z" fill="white"/>
</mask>
<g mask="url(#mask108_700_2895)">
<mask id="mask109_700_2895" style="mask-type:luminance" maskUnits="userSpaceOnUse" x="-16" y="-16" width="602" height="602">
<path d="M285.078 -15.6772C451.172 -15.6772 585.823 118.974 585.823 285.073C585.823 451.172 451.172 585.823 285.078 585.823C118.974 585.823 -15.6716 451.172 -15.6716 285.073C-15.6716 118.974 118.974 -15.6772 285.078 -15.6772Z" fill="white"/>
</mask>
<g mask="url(#mask109_700_2895)">
<path d="M290.094 114.703H296.417V193.776H290.094V114.703Z" fill="#181D22"/>
</g>
</g>
<mask id="mask110_700_2895" style="mask-type:luminance" maskUnits="userSpaceOnUse" x="230" y="100" width="8" height="16">
<path d="M230.417 100.594H237.084V115.26H230.417V100.594Z" fill="white"/>
</mask>
<g mask="url(#mask110_700_2895)">
<mask id="mask111_700_2895" style="mask-type:luminance" maskUnits="userSpaceOnUse" x="-16" y="-16" width="602" height="602">
<path d="M285.079 -15.6768C451.172 -15.6768 585.823 118.974 585.823 285.073C585.823 451.172 451.172 585.823 285.079 585.823C118.974 585.823 -15.6714 451.172 -15.6714 285.073C-15.6714 118.974 118.974 -15.6768 285.079 -15.6768Z" fill="white"/>
</mask>
<g mask="url(#mask111_700_2895)">
<path d="M230.521 101.469H236.813V114.438H230.521V101.469Z" fill="#181D22"/>
</g>
</g>
<mask id="mask112_700_2895" style="mask-type:luminance" maskUnits="userSpaceOnUse" x="242" y="100" width="9" height="16">
<path d="M242.417 100.594H250.417V115.26H242.417V100.594Z" fill="white"/>
</mask>
<g mask="url(#mask112_700_2895)">
<mask id="mask113_700_2895" style="mask-type:luminance" maskUnits="userSpaceOnUse" x="-16" y="-16" width="602" height="602">
<path d="M285.079 -15.6768C451.172 -15.6768 585.823 118.974 585.823 285.073C585.823 451.172 451.172 585.823 285.079 585.823C118.974 585.823 -15.6714 451.172 -15.6714 285.073C-15.6714 118.974 118.974 -15.6768 285.079 -15.6768Z" fill="white"/>
</mask>
<g mask="url(#mask113_700_2895)">
<path d="M243.282 101.469H249.579V114.438H243.282V101.469Z" fill="#181D22"/>
</g>
</g>
<mask id="mask114_700_2895" style="mask-type:luminance" maskUnits="userSpaceOnUse" x="255" y="100" width="8" height="16">
<path d="M255.75 100.594H262.417V115.26H255.75V100.594Z" fill="white"/>
</mask>
<g mask="url(#mask114_700_2895)">
<mask id="mask115_700_2895" style="mask-type:luminance" maskUnits="userSpaceOnUse" x="-16" y="-16" width="602" height="602">
<path d="M285.078 -15.6768C451.172 -15.6768 585.823 118.974 585.823 285.073C585.823 451.172 451.172 585.823 285.078 585.823C118.974 585.823 -15.6719 451.172 -15.6719 285.073C-15.6719 118.974 118.974 -15.6768 285.078 -15.6768Z" fill="white"/>
</mask>
<g mask="url(#mask115_700_2895)">
<path d="M256.047 101.469H262.339V114.438H256.047V101.469Z" fill="#181D22"/>
</g>
</g>
<mask id="mask116_700_2895" style="mask-type:luminance" maskUnits="userSpaceOnUse" x="267" y="100" width="9" height="16">
<path d="M267.75 100.594H275.75V115.26H267.75V100.594Z" fill="white"/>
</mask>
<g mask="url(#mask116_700_2895)">
<mask id="mask117_700_2895" style="mask-type:luminance" maskUnits="userSpaceOnUse" x="-16" y="-16" width="602" height="602">
<path d="M285.078 -15.6768C451.172 -15.6768 585.823 118.974 585.823 285.073C585.823 451.172 451.172 585.823 285.078 585.823C118.974 585.823 -15.6719 451.172 -15.6719 285.073C-15.6719 118.974 118.974 -15.6768 285.078 -15.6768Z" fill="white"/>
</mask>
<g mask="url(#mask117_700_2895)">
<path d="M268.812 101.469H275.104V114.438H268.812V101.469Z" fill="#181D22"/>
</g>
</g>
<mask id="mask118_700_2895" style="mask-type:luminance" maskUnits="userSpaceOnUse" x="281" y="100" width="9" height="16">
<path d="M281.083 100.594H289.083V115.26H281.083V100.594Z" fill="white"/>
</mask>
<g mask="url(#mask118_700_2895)">
<mask id="mask119_700_2895" style="mask-type:luminance" maskUnits="userSpaceOnUse" x="-16" y="-16" width="602" height="602">
<path d="M285.078 -15.6768C451.172 -15.6768 585.823 118.974 585.823 285.073C585.823 451.172 451.172 585.823 285.078 585.823C118.974 585.823 -15.6716 451.172 -15.6716 285.073C-15.6716 118.974 118.974 -15.6768 285.078 -15.6768Z" fill="white"/>
</mask>
<g mask="url(#mask119_700_2895)">
<path d="M281.578 101.469H287.875V114.438H281.578V101.469Z" fill="#181D22"/>
</g>
</g>
<mask id="mask120_700_2895" style="mask-type:luminance" maskUnits="userSpaceOnUse" x="293" y="100" width="9" height="16">
<path d="M293.083 100.594H301.083V115.26H293.083V100.594Z" fill="white"/>
</mask>
<g mask="url(#mask120_700_2895)">
<mask id="mask121_700_2895" style="mask-type:luminance" maskUnits="userSpaceOnUse" x="-16" y="-16" width="602" height="602">
<path d="M285.078 -15.6768C451.172 -15.6768 585.823 118.974 585.823 285.073C585.823 451.172 451.172 585.823 285.078 585.823C118.974 585.823 -15.6716 451.172 -15.6716 285.073C-15.6716 118.974 118.974 -15.6768 285.078 -15.6768Z" fill="white"/>
</mask>
<g mask="url(#mask121_700_2895)">
<path d="M294.344 101.469H300.641V114.438H294.344V101.469Z" fill="#181D22"/>
</g>
</g>
<mask id="mask122_700_2895" style="mask-type:luminance" maskUnits="userSpaceOnUse" x="306" y="100" width="9" height="16">
<path d="M306.417 100.594H314.417V115.26H306.417V100.594Z" fill="white"/>
</mask>
<g mask="url(#mask122_700_2895)">
<mask id="mask123_700_2895" style="mask-type:luminance" maskUnits="userSpaceOnUse" x="-16" y="-16" width="602" height="602">
<path d="M285.079 -15.6768C451.172 -15.6768 585.823 118.974 585.823 285.073C585.823 451.172 451.172 585.823 285.079 585.823C118.974 585.823 -15.6714 451.172 -15.6714 285.073C-15.6714 118.974 118.974 -15.6768 285.079 -15.6768Z" fill="white"/>
</mask>
<g mask="url(#mask123_700_2895)">
<path d="M307.104 101.469H313.401V114.438H307.104V101.469Z" fill="#181D22"/>
</g>
</g>
<mask id="mask124_700_2895" style="mask-type:luminance" maskUnits="userSpaceOnUse" x="319" y="100" width="8" height="16">
<path d="M319.75 100.594H326.417V115.26H319.75V100.594Z" fill="white"/>
</mask>
<g mask="url(#mask124_700_2895)">
<mask id="mask125_700_2895" style="mask-type:luminance" maskUnits="userSpaceOnUse" x="-16" y="-16" width="602" height="602">
<path d="M285.078 -15.6768C451.172 -15.6768 585.823 118.974 585.823 285.073C585.823 451.172 451.172 585.823 285.078 585.823C118.974 585.823 -15.6719 451.172 -15.6719 285.073C-15.6719 118.974 118.974 -15.6768 285.078 -15.6768Z" fill="white"/>
</mask>
<g mask="url(#mask125_700_2895)">
<path d="M319.87 101.469H326.167V114.438H319.87V101.469Z" fill="#181D22"/>
</g>
</g>
<mask id="mask126_700_2895" style="mask-type:luminance" maskUnits="userSpaceOnUse" x="331" y="100" width="9" height="16">
<path d="M331.75 100.594H339.75V115.26H331.75V100.594Z" fill="white"/>
</mask>
<g mask="url(#mask126_700_2895)">
<mask id="mask127_700_2895" style="mask-type:luminance" maskUnits="userSpaceOnUse" x="-16" y="-16" width="602" height="602">
<path d="M285.078 -15.6768C451.172 -15.6768 585.823 118.974 585.823 285.073C585.823 451.172 451.172 585.823 285.078 585.823C118.974 585.823 -15.6719 451.172 -15.6719 285.073C-15.6719 118.974 118.974 -15.6768 285.078 -15.6768Z" fill="white"/>
</mask>
<g mask="url(#mask127_700_2895)">
<path d="M332.635 101.469H338.932V114.438H332.635V101.469Z" fill="#181D22"/>
</g>
</g>
<mask id="mask128_700_2895" style="mask-type:luminance" maskUnits="userSpaceOnUse" x="230" y="192" width="8" height="25">
<path d="M230.417 192.594H237.084V216.594H230.417V192.594Z" fill="white"/>
</mask>
<g mask="url(#mask128_700_2895)">
<mask id="mask129_700_2895" style="mask-type:luminance" maskUnits="userSpaceOnUse" x="-16" y="-16" width="602" height="602">
<path d="M285.079 -15.6772C451.172 -15.6772 585.823 118.974 585.823 285.073C585.823 451.172 451.172 585.823 285.079 585.823C118.974 585.823 -15.6714 451.172 -15.6714 285.073C-15.6714 118.974 118.974 -15.6772 285.079 -15.6772Z" fill="white"/>
</mask>
<g mask="url(#mask129_700_2895)">
<path d="M230.506 193.458H236.829V215.994H230.506V193.458Z" fill="#181D22"/>
</g>
</g>
<mask id="mask130_700_2895" style="mask-type:luminance" maskUnits="userSpaceOnUse" x="242" y="192" width="9" height="25">
<path d="M242.417 192.594H250.417V216.594H242.417V192.594Z" fill="white"/>
</mask>
<g mask="url(#mask130_700_2895)">
<mask id="mask131_700_2895" style="mask-type:luminance" maskUnits="userSpaceOnUse" x="-16" y="-16" width="602" height="602">
<path d="M285.079 -15.6772C451.172 -15.6772 585.823 118.974 585.823 285.073C585.823 451.172 451.172 585.823 285.079 585.823C118.974 585.823 -15.6714 451.172 -15.6714 285.073C-15.6714 118.974 118.974 -15.6772 285.079 -15.6772Z" fill="white"/>
</mask>
<g mask="url(#mask131_700_2895)">
<path d="M243.266 193.458H249.589V215.994H243.266V193.458Z" fill="#181D22"/>
</g>
</g>
<mask id="mask132_700_2895" style="mask-type:luminance" maskUnits="userSpaceOnUse" x="255" y="192" width="8" height="25">
<path d="M255.75 192.594H262.417V216.594H255.75V192.594Z" fill="white"/>
</mask>
<g mask="url(#mask132_700_2895)">
<mask id="mask133_700_2895" style="mask-type:luminance" maskUnits="userSpaceOnUse" x="-16" y="-16" width="602" height="602">
<path d="M285.078 -15.6772C451.172 -15.6772 585.823 118.974 585.823 285.073C585.823 451.172 451.172 585.823 285.078 585.823C118.974 585.823 -15.6719 451.172 -15.6719 285.073C-15.6719 118.974 118.974 -15.6772 285.078 -15.6772Z" fill="white"/>
</mask>
<g mask="url(#mask133_700_2895)">
<path d="M256.031 193.458H262.354V215.994H256.031V193.458Z" fill="#181D22"/>
</g>
</g>
<mask id="mask134_700_2895" style="mask-type:luminance" maskUnits="userSpaceOnUse" x="267" y="192" width="9" height="25">
<path d="M267.75 192.594H275.75V216.594H267.75V192.594Z" fill="white"/>
</mask>
<g mask="url(#mask134_700_2895)">
<mask id="mask135_700_2895" style="mask-type:luminance" maskUnits="userSpaceOnUse" x="-16" y="-16" width="602" height="602">
<path d="M285.078 -15.6772C451.172 -15.6772 585.823 118.974 585.823 285.073C585.823 451.172 451.172 585.823 285.078 585.823C118.974 585.823 -15.6719 451.172 -15.6719 285.073C-15.6719 118.974 118.974 -15.6772 285.078 -15.6772Z" fill="white"/>
</mask>
<g mask="url(#mask135_700_2895)">
<path d="M268.797 193.458H275.12V215.994H268.797V193.458Z" fill="#181D22"/>
</g>
</g>
<mask id="mask136_700_2895" style="mask-type:luminance" maskUnits="userSpaceOnUse" x="281" y="192" width="9" height="25">
<path d="M281.083 192.594H289.083V216.594H281.083V192.594Z" fill="white"/>
</mask>
<g mask="url(#mask136_700_2895)">
<mask id="mask137_700_2895" style="mask-type:luminance" maskUnits="userSpaceOnUse" x="-16" y="-16" width="602" height="602">
<path d="M285.078 -15.6772C451.172 -15.6772 585.823 118.974 585.823 285.073C585.823 451.172 451.172 585.823 285.078 585.823C118.974 585.823 -15.6716 451.172 -15.6716 285.073C-15.6716 118.974 118.974 -15.6772 285.078 -15.6772Z" fill="white"/>
</mask>
<g mask="url(#mask137_700_2895)">
<path d="M281.563 193.458H287.886V215.994H281.563V193.458Z" fill="#181D22"/>
</g>
</g>
<mask id="mask138_700_2895" style="mask-type:luminance" maskUnits="userSpaceOnUse" x="293" y="192" width="9" height="25">
<path d="M293.083 192.594H301.083V216.594H293.083V192.594Z" fill="white"/>
</mask>
<g mask="url(#mask138_700_2895)">
<mask id="mask139_700_2895" style="mask-type:luminance" maskUnits="userSpaceOnUse" x="-16" y="-16" width="602" height="602">
<path d="M285.078 -15.6772C451.172 -15.6772 585.823 118.974 585.823 285.073C585.823 451.172 451.172 585.823 285.078 585.823C118.974 585.823 -15.6716 451.172 -15.6716 285.073C-15.6716 118.974 118.974 -15.6772 285.078 -15.6772Z" fill="white"/>
</mask>
<g mask="url(#mask139_700_2895)">
<path d="M294.328 193.458H300.651V215.994H294.328V193.458Z" fill="#181D22"/>
</g>
</g>
<mask id="mask140_700_2895" style="mask-type:luminance" maskUnits="userSpaceOnUse" x="306" y="192" width="9" height="25">
<path d="M306.417 192.594H314.417V216.594H306.417V192.594Z" fill="white"/>
</mask>
<g mask="url(#mask140_700_2895)">
<mask id="mask141_700_2895" style="mask-type:luminance" maskUnits="userSpaceOnUse" x="-16" y="-16" width="602" height="602">
<path d="M285.079 -15.6772C451.172 -15.6772 585.823 118.974 585.823 285.073C585.823 451.172 451.172 585.823 285.079 585.823C118.974 585.823 -15.6714 451.172 -15.6714 285.073C-15.6714 118.974 118.974 -15.6772 285.079 -15.6772Z" fill="white"/>
</mask>
<g mask="url(#mask141_700_2895)">
<path d="M307.094 193.458H313.417V215.994H307.094V193.458Z" fill="#181D22"/>
</g>
</g>
<mask id="mask142_700_2895" style="mask-type:luminance" maskUnits="userSpaceOnUse" x="319" y="192" width="8" height="25">
<path d="M319.75 192.594H326.417V216.594H319.75V192.594Z" fill="white"/>
</mask>
<g mask="url(#mask142_700_2895)">
<mask id="mask143_700_2895" style="mask-type:luminance" maskUnits="userSpaceOnUse" x="-16" y="-16" width="602" height="602">
<path d="M285.078 -15.6772C451.172 -15.6772 585.823 118.974 585.823 285.073C585.823 451.172 451.172 585.823 285.078 585.823C118.974 585.823 -15.6719 451.172 -15.6719 285.073C-15.6719 118.974 118.974 -15.6772 285.078 -15.6772Z" fill="white"/>
</mask>
<g mask="url(#mask143_700_2895)">
<path d="M319.854 193.458H326.177V215.994H319.854V193.458Z" fill="#181D22"/>
</g>
</g>
<mask id="mask144_700_2895" style="mask-type:luminance" maskUnits="userSpaceOnUse" x="331" y="192" width="9" height="25">
<path d="M331.75 192.594H339.75V216.594H331.75V192.594Z" fill="white"/>
</mask>
<g mask="url(#mask144_700_2895)">
<mask id="mask145_700_2895" style="mask-type:luminance" maskUnits="userSpaceOnUse" x="-16" y="-16" width="602" height="602">
<path d="M285.078 -15.6772C451.172 -15.6772 585.823 118.974 585.823 285.073C585.823 451.172 451.172 585.823 285.078 585.823C118.974 585.823 -15.6719 451.172 -15.6719 285.073C-15.6719 118.974 118.974 -15.6772 285.078 -15.6772Z" fill="white"/>
</mask>
<g mask="url(#mask145_700_2895)">
<path d="M332.62 193.458H338.943V215.994H332.62V193.458Z" fill="#181D22"/>
</g>
</g>
<mask id="mask146_700_2895" style="mask-type:luminance" maskUnits="userSpaceOnUse" x="281" y="23" width="45" height="37">
<path d="M281.083 23.2603H325.083V59.2603H281.083V23.2603Z" fill="white"/>
</mask>
<g mask="url(#mask146_700_2895)">
<mask id="mask147_700_2895" style="mask-type:luminance" maskUnits="userSpaceOnUse" x="-16" y="-16" width="602" height="602">
<path d="M285.078 -15.6772C451.172 -15.6772 585.823 118.974 585.823 285.073C585.823 451.172 451.172 585.823 285.078 585.823C118.974 585.823 -15.6716 451.172 -15.6716 285.073C-15.6716 118.974 118.974 -15.6772 285.078 -15.6772Z" fill="white"/>
</mask>
<g mask="url(#mask147_700_2895)">
<path d="M287.75 58.0571H281.443V24.0103H323.86L313.86 34.005L323.86 43.9946H293.599V37.6821H308.615L304.932 34.005L308.615 30.3228H287.75V58.0571Z" fill="#181D22"/>
</g>
</g>
<path d="M67.8958 469.682C46.3281 444.339 29.1198 415.193 17.4271 383.406C6.16146 352.745 0 319.62 0 285.073C0 206.354 31.9115 135.083 83.5 83.5C135.089 31.9063 206.359 0 285.078 0C363.797 0 435.068 31.9063 486.651 83.5C538.24 135.083 570.146 206.354 570.146 285.073C570.146 319.62 563.995 352.74 552.724 383.401C541.036 415.193 523.823 444.344 502.255 469.682L497.474 465.615C518.536 440.859 535.359 412.354 546.802 381.229C557.823 351.266 563.839 318.88 563.839 285.073C563.839 208.094 532.635 138.401 482.193 87.9583C431.745 37.5104 362.052 6.3125 285.078 6.3125C208.099 6.3125 138.411 37.5104 87.9635 87.9583C37.5156 138.401 6.31771 208.094 6.31771 285.073C6.31771 318.88 12.3333 351.271 23.349 381.234C34.7917 412.359 51.6146 440.865 72.6771 465.615L67.8958 469.682Z" fill="#181D22"/>
<path d="M101.214 311.573C98.2399 315.015 94.5264 317.828 90.3285 319.75C86.2764 321.609 81.7816 322.646 77.068 322.646C68.2712 322.646 60.3024 319.073 54.5316 313.302C48.7503 307.531 45.1826 299.557 45.1826 290.755C45.1826 281.953 48.7503 273.974 54.5212 268.203C60.3076 262.437 68.2712 258.87 77.068 258.87C79.292 258.87 81.4951 259.104 83.6357 259.552C85.8337 260.015 87.9326 260.693 89.917 261.568L87.3805 267.338C85.7712 266.63 84.0837 266.083 82.3545 265.719C80.6722 265.37 78.9066 265.182 77.068 265.182C70.0003 265.182 63.6097 268.042 58.9743 272.661C54.3597 277.297 51.4951 283.693 51.4951 290.755C51.4951 297.818 54.3597 304.213 58.9847 308.838C63.6097 313.469 70.0003 316.333 77.068 316.333C80.8857 316.333 84.4899 315.505 87.7191 314.026C91.0785 312.484 94.0576 310.229 96.4535 307.458L101.214 311.573Z" fill="#181D22"/>
<path d="M87.3855 276.37C86.7084 274.833 86.1772 273.193 85.8178 271.479C85.4688 269.802 85.2812 268.094 85.2812 266.364C85.2812 259.5 88.0678 253.286 92.5626 248.792C97.0574 244.292 103.276 241.51 110.141 241.51C114.906 241.51 119.359 242.854 123.146 245.182C127.047 247.583 130.245 251.047 132.328 255.172L126.703 258.005C125.156 254.943 122.766 252.359 119.844 250.557C117.026 248.823 113.698 247.823 110.141 247.823C105.021 247.823 100.38 249.896 97.0261 253.25C93.6772 256.604 91.5991 261.245 91.5991 266.364C91.5991 267.703 91.7345 268.984 91.9845 270.198C92.2449 271.443 92.6459 272.661 93.1564 273.833L87.3855 276.37Z" fill="#181D22"/>
<path d="M120.083 257.724C121.531 256.39 123.24 255.312 125.11 254.578C126.932 253.87 128.896 253.479 130.938 253.479C135.354 253.479 139.36 255.276 142.261 258.172L142.276 258.187C145.172 261.088 146.969 265.094 146.969 269.505L146.932 270.437C146.912 270.682 146.839 271.823 146.745 272.114C146.115 275.953 144.125 279.328 141.292 281.734C138.5 284.104 134.88 285.536 130.943 285.536V279.219C133.344 279.219 135.537 278.354 137.224 276.922C138.932 275.474 140.136 273.443 140.526 271.146L140.599 270.646L140.646 270.073L140.651 269.505C140.651 266.823 139.568 264.385 137.818 262.63C136.063 260.88 133.625 259.797 130.943 259.797C129.682 259.797 128.495 260.026 127.412 260.448C126.271 260.896 125.24 261.547 124.354 262.364L120.083 257.724Z" fill="#181D22"/>
<path d="M146.667 303.776C146.667 313.271 142.808 321.88 136.584 328.109L136.568 328.12C130.339 334.349 121.735 338.208 112.235 338.208C105.683 338.208 99.5472 336.364 94.318 333.172C88.9222 329.88 84.5055 325.14 81.6045 319.495L87.2035 316.614C89.5732 321.229 93.1878 325.104 97.5941 327.797C101.849 330.396 106.865 331.89 112.235 331.89C120 331.89 127.037 328.75 132.125 323.661C137.203 318.573 140.349 311.542 140.349 303.776H146.667Z" fill="#181D22"/>
<path d="M143.188 268.406C144.021 268.224 144.896 268.083 145.802 267.99C146.729 267.896 147.609 267.844 148.448 267.844C155.385 267.844 161.667 270.661 166.224 275.214L166.234 275.224C170.781 279.776 173.599 286.062 173.599 293C173.599 299.948 170.786 306.234 166.234 310.786C161.667 315.333 155.385 318.156 148.448 318.156C147.198 318.156 145.948 318.057 144.714 317.875C143.5 317.693 142.276 317.406 141.062 317.036L142.891 311.021C143.74 311.281 144.656 311.49 145.625 311.635C146.526 311.766 147.474 311.839 148.448 311.839C153.651 311.839 158.37 309.729 161.776 306.328C165.177 302.917 167.286 298.203 167.286 293C167.286 287.797 165.182 283.083 161.776 279.672C158.37 276.266 153.651 274.156 148.448 274.156C147.714 274.156 147.047 274.193 146.448 274.255C145.812 274.323 145.156 274.427 144.49 274.568L143.188 268.406Z" fill="#181D22"/>
<path d="M473.698 307.458C476.094 310.229 479.073 312.484 482.432 314.026C485.662 315.505 489.266 316.333 493.083 316.333C500.146 316.333 506.542 313.469 511.167 308.838C515.792 304.213 518.656 297.818 518.656 290.755C518.656 283.693 515.792 277.297 511.167 272.672C506.542 268.047 500.146 265.182 493.083 265.182C491.245 265.182 489.474 265.364 487.797 265.719C486.063 266.083 484.38 266.63 482.776 267.338L480.235 261.568C482.214 260.693 484.318 260.015 486.516 259.552C488.656 259.104 490.854 258.87 493.083 258.87C501.886 258.87 509.865 262.437 515.63 268.203C521.401 273.974 524.969 281.953 524.969 290.755C524.969 299.557 521.401 307.531 515.63 313.302C509.865 319.073 501.886 322.646 493.083 322.646C488.37 322.646 483.875 321.609 479.823 319.75C475.625 317.828 471.912 315.015 468.943 311.573L473.698 307.458Z" fill="#181D22"/>
<path d="M476.995 273.833C477.506 272.661 477.901 271.448 478.167 270.198C478.417 268.989 478.552 267.703 478.552 266.364C478.552 261.245 476.474 256.604 473.12 253.25C469.766 249.896 465.131 247.823 460.011 247.823C456.453 247.823 453.125 248.823 450.308 250.557C447.386 252.359 444.995 254.943 443.443 258.005L437.823 255.172C439.907 251.047 443.099 247.583 447.006 245.182C450.792 242.854 455.25 241.51 460.011 241.51C466.875 241.51 473.089 244.292 477.584 248.792C482.084 253.286 484.87 259.5 484.87 266.364C484.87 268.094 484.683 269.802 484.334 271.479C483.974 273.193 483.443 274.833 482.766 276.37L476.995 273.833Z" fill="#181D22"/>
<path d="M445.802 262.364C444.917 261.547 443.88 260.89 442.745 260.448C441.661 260.026 440.469 259.797 439.208 259.797C436.531 259.797 434.099 260.88 432.344 262.635C430.589 264.385 429.5 266.818 429.5 269.505C429.505 270.078 429.526 270.573 429.63 271.14C430.016 273.443 431.219 275.474 432.927 276.922C434.615 278.354 436.807 279.219 439.208 279.219V285.531C435.271 285.531 431.656 284.104 428.859 281.729C426.026 279.323 424.036 275.948 423.406 272.114C423.312 271.823 423.245 270.693 423.224 270.443L423.188 269.505C423.188 265.094 424.984 261.088 427.88 258.182C430.781 255.276 434.786 253.479 439.208 253.479C441.25 253.479 443.219 253.864 445.036 254.578C446.917 255.307 448.62 256.39 450.068 257.724L445.802 262.364Z" fill="#181D22"/>
<path d="M429.802 303.776C429.802 311.536 432.948 318.568 438.031 323.656C443.115 328.75 450.146 331.89 457.917 331.89C463.286 331.89 468.302 330.396 472.552 327.797C476.964 325.104 480.573 321.224 482.948 316.609L488.547 319.495C485.646 325.14 481.224 329.875 475.833 333.172C470.599 336.364 464.469 338.208 457.917 338.208C448.417 338.208 439.812 334.349 433.578 328.12C427.339 321.89 423.484 313.276 423.484 303.776H429.802Z" fill="#181D22"/>
<path d="M425.656 274.568C424.995 274.427 424.344 274.318 423.703 274.255C423.104 274.187 422.438 274.156 421.703 274.156C416.495 274.156 411.787 276.266 408.375 279.667C404.974 283.078 402.865 287.792 402.865 293C402.865 298.203 404.974 302.917 408.38 306.323C411.787 309.729 416.495 311.839 421.703 311.839C422.682 311.839 423.625 311.766 424.526 311.63C425.474 311.495 426.386 311.281 427.25 311.021L429.099 317.036C427.896 317.401 426.667 317.688 425.438 317.875C424.198 318.057 422.953 318.151 421.703 318.151C414.766 318.151 408.479 315.333 403.932 310.781C399.365 306.234 396.552 299.943 396.552 293C396.552 286.062 399.365 279.776 403.917 275.224L403.932 275.214C408.479 270.661 414.766 267.844 421.703 267.844C422.537 267.844 423.422 267.896 424.344 267.99C425.255 268.083 426.13 268.224 426.964 268.401L425.656 274.568Z" fill="#181D22"/>
</svg>
